#VRML V2.0 utf8
# 3D model generated by easyeda2kicad.py (https://github.com/uPesy/easyeda2kicad.py)

Shape{
    appearance Appearance {
        material  Material 	{
            diffuseColor 0.8509803921568627 0.8509803921568627 0.8509803921568627
            specularColor 0.4235294117647059 0.4235294117647059 0.4235294117647059
            ambientIntensity 0.851
            transparency 0.0
            shininess 0.5
        }
    }
    geometry IndexedFaceSet {
        ccw TRUE
        solid FALSE
        coord DEF co Coordinate {
            point [
                -0.7677 0.2502 0.5905, -0.7677 0.4724 0.5905, -0.7677 0.2502 0.5315, -0.7677 0.4724 0.5315, -0.689 0.1378 0.5905, -0.689 0.1378 0.5315, -0.7677 -0.2502 0.5905, -0.689 -0.1378 0.5905, -0.7677 -0.2502 0.5315, -0.689 -0.1378 0.5315, -0.7677 -0.4724 0.5905, -0.7677 -0.4724 0.5315, -0.6102 -0.4724 0.5905, -0.6102 -0.4724 0.5315, -0.6102 -0.5118 0.3543, -0.6102 -0.5709 0.3543, -0.6102 -0.5118 0.4921, -0.6102 -0.5709 0.4921, -0.6102 -0.5105 0.5023, -0.6102 -0.5675 0.5176, -0.6102 -0.5065 0.5118, -0.6102 -0.5577 0.5413, -0.6102 -0.5003 0.52, -0.6102 -0.542 0.5617, -0.6102 -0.4921 0.5262, -0.6102 -0.5217 0.5774, -0.6102 -0.4826 0.5302, -0.6102 -0.4979 0.5872, 0.3796 -0.5709 0.353, 0.3891 -0.5709 0.3491, 0.6102 -0.5709 0.4921, -0.4019 -0.5709 0.3428, -0.3937 -0.5709 0.3491, 0.4075 -0.5709 0.3251, 0.6102 -0.5709 0.3566, 0.4035 -0.5709 0.3346, 0.3973 -0.5709 0.3428, 0.7238 -0.5709 0.315, 0.645 -0.5709 0.315, 0.7631 -0.5709 0.2756, 0.4088 -0.5709 0.315, 0.6115 -0.5709 0.3391, 0.6098 -0.5709 0.3478, 0.7631 -0.5709 0.2362, 0.6363 -0.5709 0.3161, 0.4482 -0.5709 0.1968, 0.7238 -0.5709 0.1968, -0.4187 -0.5709 0.2165, -0.6155 -0.5709 0.3346, -0.4249 -0.5709 0.2084, -0.4331 -0.5709 0.2021, -0.6218 -0.5709 0.3265, -0.6299 -0.5709 0.3202, -0.4528 -0.5709 0.1968, -0.6394 -0.5709 0.3163, -0.7283 -0.5709 0.1968, -0.6496 -0.5709 0.315, -0.7283 -0.5709 0.315, 0.6281 -0.5709 0.3193, 0.6209 -0.5709 0.3244, 0.438 -0.5709 0.1982, 0.6153 -0.5709 0.3312, 0.4285 -0.5709 0.2021, 0.4204 -0.5709 0.2084, 0.4088 -0.5709 0.2362, 0.4102 -0.5709 0.226, 0.4141 -0.5709 0.2165, -0.4147 -0.5709 0.226, -0.4134 -0.5709 0.2362, -0.6116 -0.5709 0.3441, -0.4134 -0.5709 0.315, -0.412 -0.5709 0.3251, -0.4081 -0.5709 0.3346, -0.4426 -0.5709 0.1982, -0.3842 -0.5709 0.353, -0.374 -0.5709 0.3543, 0.3694 -0.5709 0.3543, -0.748 -0.5709 0.3097, -0.7562 -0.5709 0.3034, -0.7624 -0.5709 0.2953, 0.734 -0.5709 0.1982, 0.7435 -0.5709 0.2021, 0.7516 -0.5709 0.2084, 0.7579 -0.5709 0.2953, 0.7516 -0.5709 0.3034, 0.7618 -0.5709 0.2858, 0.7435 -0.5709 0.3097, 0.734 -0.5709 0.3136, -0.7664 -0.5709 0.2858, -0.7677 -0.5709 0.2756, -0.7385 -0.5709 0.3136, -0.7664 -0.5709 0.226, -0.7385 -0.5709 0.1982, -0.7677 -0.5709 0.2362, 0.7579 -0.5709 0.2165, 0.7618 -0.5709 0.226, -0.7624 -0.5709 0.2165, -0.7562 -0.5709 0.2084, -0.748 -0.5709 0.2021, 0.6102 -0.4724 0.5315, 0.6102 -0.4724 0.5905, 0.6102 -0.4826 0.5302, 0.6102 -0.4979 0.5872, 0.6102 -0.4921 0.5262, 0.6102 -0.5217 0.5774, 0.6102 -0.5003 0.52, 0.6102 -0.542 0.5617, 0.6102 -0.5065 0.5118, 0.6102 -0.5577 0.5413, 0.6102 -0.5105 0.5023, 0.6102 -0.5675 0.5176, 0.6102 -0.5118 0.4921, 0.6102 -0.5118 0.3566, 0.7677 -0.4724 0.5905, 0.7677 -0.4724 0.5315, 0.7677 -0.2502 0.5905, 0.7677 -0.2502 0.5315, 0.689 -0.1378 0.5905, 0.689 -0.1378 0.5315, 0.7677 0.2502 0.5905, 0.689 0.1378 0.5905, 0.7677 0.2502 0.5315, 0.689 0.1378 0.5315, 0.7677 0.4724 0.5905, 0.7677 0.4724 0.5315, 0.6102 0.4724 0.5905, 0.6102 0.4724 0.5315, 0.6102 0.5118 0.3566, 0.6102 0.5709 0.3566, 0.6102 0.5118 0.4921, 0.6102 0.5709 0.4921, 0.6102 0.5105 0.5023, 0.6102 0.5675 0.5176, 0.6102 0.5065 0.5118, 0.6102 0.5577 0.5413, 0.6102 0.5003 0.52, 0.6102 0.542 0.5617, 0.6102 0.4921 0.5262, 0.6102 0.5217 0.5774, 0.6102 0.4826 0.5302, 0.6102 0.4979 0.5872, -0.6102 0.5709 0.4921, -0.3842 0.5709 0.353, -0.3937 0.5709 0.3491, 0.4075 0.5709 0.3251, 0.4035 0.5709 0.3346, 0.3973 0.5709 0.3428, 0.3891 0.5709 0.3491, 0.4285 0.5709 0.2021, 0.4204 0.5709 0.2084, 0.6153 0.5709 0.3312, 0.3796 0.5709 0.353, 0.3694 0.5709 0.3543, -0.374 0.5709 0.3543, 0.6209 0.5709 0.3244, 0.6281 0.5709 0.3193, 0.4482 0.5709 0.1968, 0.6363 0.5709 0.3161, 0.7238 0.5709 0.1968, 0.645 0.5709 0.315, 0.734 0.5709 0.1982, -0.6394 0.5709 0.3163, -0.4528 0.5709 0.1968, -0.6496 0.5709 0.315, -0.7283 0.5709 0.1968, -0.7385 0.5709 0.1982, 0.6098 0.5709 0.3478, 0.4088 0.5709 0.315, 0.6115 0.5709 0.3391, 0.4141 0.5709 0.2165, 0.4102 0.5709 0.226, 0.4088 0.5709 0.2362, 0.7618 0.5709 0.226, 0.7579 0.5709 0.2165, -0.748 0.5709 0.2021, -0.7562 0.5709 0.2084, -0.7624 0.5709 0.2165, -0.7664 0.5709 0.226, -0.7677 0.5709 0.2362, -0.7283 0.5709 0.315, -0.7677 0.5709 0.2756, -0.7385 0.5709 0.3136, -0.4147 0.5709 0.226, -0.4187 0.5709 0.2165, -0.6155 0.5709 0.3346, -0.4249 0.5709 0.2084, -0.4019 0.5709 0.3428, -0.4081 0.5709 0.3346, -0.6102 0.5709 0.3543, -0.412 0.5709 0.3251, -0.6116 0.5709 0.3441, -0.4134 0.5709 0.315, -0.4134 0.5709 0.2362, 0.438 0.5709 0.1982, -0.7664 0.5709 0.2858, -0.7624 0.5709 0.2953, -0.7562 0.5709 0.3034, -0.6299 0.5709 0.3202, -0.6218 0.5709 0.3265, -0.4426 0.5709 0.1982, -0.4331 0.5709 0.2021, -0.748 0.5709 0.3097, 0.7579 0.5709 0.2953, 0.7238 0.5709 0.315, 0.7516 0.5709 0.3034, 0.734 0.5709 0.3136, 0.7435 0.5709 0.3097, 0.7516 0.5709 0.2084, 0.7435 0.5709 0.2021, 0.7618 0.5709 0.2858, 0.7631 0.5709 0.2756, 0.7631 0.5709 0.2362, -0.6102 0.4724 0.5315, -0.6102 0.4724 0.5905, -0.6102 0.4826 0.5302, -0.6102 0.4979 0.5872, -0.6102 0.4921 0.5262, -0.6102 0.5217 0.5774, -0.6102 0.5003 0.52, -0.6102 0.542 0.5617, -0.6102 0.5065 0.5118, -0.6102 0.5577 0.5413, -0.6102 0.5105 0.5023, -0.6102 0.5675 0.5176, -0.6102 0.5118 0.4921, -0.6102 0.5118 0.3543, -0.1938 0.2966 0.5905, -0.1423 0.3245 0.5905, -0.087 -0.3435 0.5905, -0.1423 -0.3245 0.5905, -0.24 0.2607 0.5905, -0.1938 -0.2966 0.5905, -0.24 -0.2607 0.5905, -0.2796 -0.2176 0.5905, -0.3116 -0.1686 0.5905, 0.1938 -0.2966 0.5905, 0.1423 -0.3245 0.5905, 0.3543 0.0 0.5905, 0.3495 -0.0583 0.5905, 0.3351 -0.1151 0.5905, 0.3116 -0.1686 0.5905, 0.2796 -0.2176 0.5905, 0.24 -0.2607 0.5905, 0.0293 0.3531 0.5905, -0.0293 0.3531 0.5905, -0.087 0.3435 0.5905, 0.087 0.3435 0.5905, 0.1423 0.3245 0.5905, 0.1938 0.2966 0.5905, -0.3351 -0.1151 0.5905, -0.3495 -0.0583 0.5905, 0.087 -0.3435 0.5905, 0.0293 -0.3531 0.5905, -0.0293 -0.3531 0.5905, 0.24 0.2607 0.5905, 0.2796 0.2176 0.5905, 0.3116 0.1686 0.5905, 0.3351 0.1151 0.5905, 0.3495 0.0583 0.5905, -0.3543 0.0 0.5905, -0.3495 0.0583 0.5905, -0.3351 0.1151 0.5905, -0.3116 0.1686 0.5905, -0.2796 0.2176 0.5905, 0.1938 -0.2966 0.5315, 0.24 -0.2607 0.5315, -0.1938 -0.2966 0.5315, -0.1423 -0.3245 0.5315, -0.1423 0.3245 0.5315, -0.087 0.3435 0.5315, -0.0293 0.3531 0.5315, -0.2796 0.2176 0.5315, -0.3116 0.1686 0.5315, -0.3351 0.1151 0.5315, -0.1938 0.2966 0.5315, -0.24 0.2607 0.5315, 0.2796 -0.2176 0.5315, 0.3116 -0.1686 0.5315, 0.3351 -0.1151 0.5315, 0.3351 0.1151 0.5315, 0.3116 0.1686 0.5315, 0.2796 0.2176 0.5315, -0.3495 0.0583 0.5315, -0.3543 0.0 0.5315, -0.3495 -0.0583 0.5315, -0.3351 -0.1151 0.5315, 0.0293 0.3531 0.5315, 0.087 0.3435 0.5315, 0.3495 -0.0583 0.5315, 0.3543 -0.0 0.5315, 0.3495 0.0583 0.5315, 0.24 0.2607 0.5315, 0.1938 0.2966 0.5315, 0.1423 0.3245 0.5315, -0.24 -0.2607 0.5315, -0.087 -0.3435 0.5315, -0.0293 -0.3531 0.5315, -0.3116 -0.1686 0.5315, -0.2796 -0.2176 0.5315, 0.0293 -0.3531 0.5315, 0.087 -0.3435 0.5315, 0.1423 -0.3245 0.5315, 0.6098 -0.5118 0.3478, 0.6115 -0.5118 0.3391, 0.6153 -0.5118 0.3312, 0.6209 -0.5118 0.3244, 0.6281 -0.5118 0.3193, 0.6363 -0.5118 0.3161, 0.645 -0.5118 0.315, 0.7238 -0.5118 0.315, 0.734 -0.5118 0.3136, 0.7435 -0.5118 0.3097, 0.7516 -0.5118 0.3034, 0.7579 -0.5118 0.2953, 0.7618 -0.5118 0.2858, 0.7631 -0.5118 0.2756, 0.7631 -0.5118 0.2362, 0.7618 -0.5118 0.226, 0.7579 -0.5118 0.2165, 0.7516 -0.5118 0.2084, 0.7435 -0.5118 0.2021, 0.734 -0.5118 0.1982, 0.7238 -0.5118 0.1968, 0.4482 -0.5118 0.1968, 0.438 -0.5118 0.1982, 0.4285 -0.5118 0.2021, 0.4204 -0.5118 0.2084, 0.4141 -0.5118 0.2165, 0.4102 -0.5118 0.226, 0.4088 -0.5118 0.2362, 0.4088 -0.5118 0.315, 0.4075 -0.5118 0.3251, 0.4035 -0.5118 0.3346, 0.3973 -0.5118 0.3428, 0.3891 -0.5118 0.3491, 0.3796 -0.5118 0.353, 0.3694 -0.5118 0.3543, -0.374 -0.5118 0.3543, -0.3842 -0.5118 0.353, -0.3937 -0.5118 0.3491, -0.4019 -0.5118 0.3428, -0.4081 -0.5118 0.3346, -0.412 -0.5118 0.3251, -0.4134 -0.5118 0.315, -0.4134 -0.5118 0.2362, -0.4147 -0.5118 0.226, -0.4187 -0.5118 0.2165, -0.4249 -0.5118 0.2084, -0.4331 -0.5118 0.2021, -0.4426 -0.5118 0.1982, -0.4528 -0.5118 0.1968, -0.7283 -0.5118 0.1968, -0.7385 -0.5118 0.1982, -0.748 -0.5118 0.2021, -0.7562 -0.5118 0.2084, -0.7624 -0.5118 0.2165, -0.7664 -0.5118 0.226, -0.7677 -0.5118 0.2362, -0.7677 -0.5118 0.2756, -0.7664 -0.5118 0.2858, -0.7624 -0.5118 0.2953, -0.7562 -0.5118 0.3034, -0.748 -0.5118 0.3097, -0.7385 -0.5118 0.3136, -0.7283 -0.5118 0.315, -0.6496 -0.5118 0.315, -0.6394 -0.5118 0.3163, -0.6299 -0.5118 0.3202, -0.6218 -0.5118 0.3265, -0.6155 -0.5118 0.3346, -0.6116 -0.5118 0.3441, -0.6116 0.5118 0.3441, -0.6155 0.5118 0.3346, -0.6218 0.5118 0.3265, -0.6299 0.5118 0.3202, -0.6394 0.5118 0.3163, -0.6496 0.5118 0.315, -0.7283 0.5118 0.315, -0.7385 0.5118 0.3136, -0.748 0.5118 0.3097, -0.7562 0.5118 0.3034, -0.7624 0.5118 0.2953, -0.7664 0.5118 0.2858, -0.7677 0.5118 0.2756, -0.7677 0.5118 0.2362, -0.7664 0.5118 0.226, -0.7624 0.5118 0.2165, -0.7562 0.5118 0.2084, -0.748 0.5118 0.2021, -0.7385 0.5118 0.1982, -0.7283 0.5118 0.1968, -0.4528 0.5118 0.1968, -0.4426 0.5118 0.1982, -0.4331 0.5118 0.2021, -0.4249 0.5118 0.2084, -0.4187 0.5118 0.2165, -0.4147 0.5118 0.226, -0.4134 0.5118 0.2362, -0.4134 0.5118 0.315, -0.412 0.5118 0.3251, -0.4081 0.5118 0.3346, -0.4019 0.5118 0.3428, -0.3937 0.5118 0.3491, -0.3842 0.5118 0.353, -0.374 0.5118 0.3543, 0.3694 0.5118 0.3543, 0.3796 0.5118 0.353, 0.3891 0.5118 0.3491, 0.3973 0.5118 0.3428, 0.4035 0.5118 0.3346, 0.4075 0.5118 0.3251, 0.4088 0.5118 0.315, 0.4088 0.5118 0.2362, 0.4102 0.5118 0.226, 0.4141 0.5118 0.2165, 0.4204 0.5118 0.2084, 0.4285 0.5118 0.2021, 0.438 0.5118 0.1982, 0.4482 0.5118 0.1968, 0.7238 0.5118 0.1968, 0.734 0.5118 0.1982, 0.7435 0.5118 0.2021, 0.7516 0.5118 0.2084, 0.7579 0.5118 0.2165, 0.7618 0.5118 0.226, 0.7631 0.5118 0.2362, 0.7631 0.5118 0.2756, 0.7618 0.5118 0.2858, 0.7579 0.5118 0.2953, 0.7516 0.5118 0.3034, 0.7435 0.5118 0.3097, 0.734 0.5118 0.3136, 0.7238 0.5118 0.315, 0.645 0.5118 0.315, 0.6363 0.5118 0.3161, 0.6281 0.5118 0.3193, 0.6209 0.5118 0.3244, 0.6153 0.5118 0.3312, 0.6115 0.5118 0.3391, 0.6098 0.5118 0.3478, -0.7283 0.1378 0.3425, -0.7283 -0.1378 0.3425, -0.7874 0.1378 0.3425, -0.7874 -0.1378 0.3425, -0.6992 0.1378 0.5302, -0.6992 -0.1378 0.5302, -0.7087 0.1378 0.5262, -0.7087 -0.1378 0.5262, -0.7168 0.1378 0.52, -0.7168 -0.1378 0.52, -0.7231 0.1378 0.5118, -0.7231 -0.1378 0.5118, -0.727 0.1378 0.5023, -0.727 -0.1378 0.5023, -0.7283 0.1378 0.4921, -0.7283 -0.1378 0.4921, -0.7145 -0.1378 0.5872, -0.7382 -0.1378 0.5774, -0.7586 -0.1378 0.5617, -0.7742 -0.1378 0.5413, -0.784 -0.1378 0.5176, -0.7874 -0.1378 0.4921, -0.7874 0.1378 0.4921, -0.784 0.1378 0.5176, -0.7742 0.1378 0.5413, -0.7586 0.1378 0.5617, -0.7382 0.1378 0.5774, -0.7145 0.1378 0.5872, 0.7283 -0.1378 0.3425, 0.7283 0.1378 0.3425, 0.7874 -0.1378 0.3425, 0.7874 0.1378 0.3425, 0.7874 -0.1378 0.4921, 0.7874 0.1378 0.4921, 0.784 0.1378 0.5176, 0.784 -0.1378 0.5176, 0.7742 0.1378 0.5413, 0.7742 -0.1378 0.5413, 0.7586 0.1378 0.5617, 0.7586 -0.1378 0.5617, 0.7382 0.1378 0.5774, 0.7382 -0.1378 0.5774, 0.7145 0.1378 0.5872, 0.7145 -0.1378 0.5872, 0.7283 -0.1378 0.4921, 0.727 -0.1378 0.5023, 0.7231 -0.1378 0.5118, 0.7168 -0.1378 0.52, 0.7087 -0.1378 0.5262, 0.6992 -0.1378 0.5302, 0.6992 0.1378 0.5302, 0.7087 0.1378 0.5262, 0.7168 0.1378 0.52, 0.7231 0.1378 0.5118, 0.727 0.1378 0.5023, 0.7283 0.1378 0.4921
            ]
        }
        coordIndex [
            0,1,2,-1,2,1,3,-1,4,0,5,-1,5,0,2,-1,6,7,8,-1,8,7,9,-1,10,6,11,-1,11,6,8,-1,12,10,13,-1,13,10,11,-1,14,15,16,-1,16,15,17,-1,16,17,18,-1,18,17,19,-1,18,19,20,-1,20,19,21,-1,20,21,22,-1,22,21,23,-1,22,23,24,-1,24,23,25,-1,24,25,26,-1,26,25,27,-1,26,27,13,-1,13,27,12,-1,28,29,30,-1,31,32,17,-1,33,34,35,-1,35,34,30,-1,35,30,36,-1,36,30,29,-1,37,38,39,-1,40,41,33,-1,33,41,42,-1,33,42,34,-1,39,38,43,-1,44,45,38,-1,38,45,46,-1,47,48,49,-1,49,48,50,-1,51,52,53,-1,53,52,54,-1,53,54,55,-1,55,54,56,-1,55,56,57,-1,44,58,45,-1,45,58,59,-1,45,59,60,-1,60,59,61,-1,60,61,62,-1,62,61,63,-1,40,64,41,-1,41,64,65,-1,41,65,61,-1,61,65,66,-1,61,66,63,-1,47,67,48,-1,48,67,68,-1,48,68,69,-1,69,68,70,-1,69,70,15,-1,15,70,71,-1,15,71,17,-1,17,71,72,-1,17,72,31,-1,51,53,48,-1,48,53,73,-1,48,73,50,-1,32,74,17,-1,17,74,75,-1,17,75,30,-1,30,75,76,-1,30,76,28,-1,77,78,79,-1,46,80,38,-1,38,80,81,-1,38,81,82,-1,83,84,85,-1,85,84,86,-1,85,86,39,-1,39,86,87,-1,39,87,37,-1,79,88,77,-1,77,88,89,-1,77,89,90,-1,91,92,93,-1,93,92,55,-1,93,55,89,-1,89,55,57,-1,89,57,90,-1,82,94,38,-1,38,94,95,-1,38,95,43,-1,91,96,92,-1,92,96,97,-1,92,97,98,-1,99,100,101,-1,101,100,102,-1,101,102,103,-1,103,102,104,-1,103,104,105,-1,105,104,106,-1,105,106,107,-1,107,106,108,-1,107,108,109,-1,109,108,110,-1,109,110,111,-1,111,110,30,-1,111,30,112,-1,112,30,34,-1,113,100,114,-1,114,100,99,-1,115,113,116,-1,116,113,114,-1,117,115,118,-1,118,115,116,-1,119,120,121,-1,121,120,122,-1,123,119,124,-1,124,119,121,-1,125,123,126,-1,126,123,124,-1,127,128,129,-1,129,128,130,-1,129,130,131,-1,131,130,132,-1,131,132,133,-1,133,132,134,-1,133,134,135,-1,135,134,136,-1,135,136,137,-1,137,136,138,-1,137,138,139,-1,139,138,140,-1,139,140,126,-1,126,140,125,-1,141,142,143,-1,144,145,130,-1,130,145,146,-1,130,146,147,-1,148,149,150,-1,147,151,130,-1,130,151,152,-1,130,152,141,-1,141,152,153,-1,141,153,142,-1,154,155,156,-1,156,155,157,-1,156,157,158,-1,158,157,159,-1,158,159,160,-1,161,162,163,-1,163,162,164,-1,163,164,165,-1,130,128,144,-1,144,128,166,-1,144,166,167,-1,167,166,168,-1,149,169,150,-1,150,169,170,-1,150,170,168,-1,168,170,171,-1,168,171,167,-1,172,173,159,-1,165,174,163,-1,163,174,175,-1,163,175,176,-1,176,177,163,-1,163,177,178,-1,163,178,179,-1,179,178,180,-1,179,180,181,-1,182,183,184,-1,184,183,185,-1,143,186,141,-1,141,186,187,-1,141,187,188,-1,188,187,189,-1,188,189,190,-1,190,189,191,-1,190,191,184,-1,184,191,192,-1,184,192,182,-1,154,156,150,-1,150,156,193,-1,150,193,148,-1,194,195,196,-1,161,197,162,-1,162,197,198,-1,162,198,199,-1,199,198,184,-1,199,184,200,-1,200,184,185,-1,194,196,180,-1,180,196,201,-1,180,201,181,-1,202,203,204,-1,204,203,205,-1,204,205,206,-1,173,207,159,-1,159,207,208,-1,159,208,160,-1,202,209,203,-1,203,209,210,-1,203,210,159,-1,159,210,211,-1,159,211,172,-1,212,213,214,-1,214,213,215,-1,214,215,216,-1,216,215,217,-1,216,217,218,-1,218,217,219,-1,218,219,220,-1,220,219,221,-1,220,221,222,-1,222,221,223,-1,222,223,224,-1,224,223,141,-1,224,141,225,-1,225,141,188,-1,1,213,3,-1,3,213,212,-1,226,227,213,-1,228,229,12,-1,1,0,213,-1,213,0,4,-1,213,4,226,-1,226,4,230,-1,231,232,7,-1,7,232,233,-1,7,233,234,-1,235,236,100,-1,120,237,117,-1,117,237,238,-1,117,238,239,-1,239,240,117,-1,117,240,241,-1,117,241,242,-1,243,125,244,-1,244,125,213,-1,244,213,245,-1,245,213,227,-1,243,246,125,-1,125,246,247,-1,125,247,248,-1,234,249,7,-1,7,249,250,-1,7,250,4,-1,236,251,100,-1,100,251,252,-1,100,252,12,-1,12,252,253,-1,12,253,228,-1,6,10,7,-1,7,10,12,-1,7,12,231,-1,231,12,229,-1,248,254,125,-1,125,254,255,-1,125,255,123,-1,123,255,256,-1,123,256,119,-1,119,256,257,-1,119,257,120,-1,120,257,258,-1,120,258,237,-1,250,259,4,-1,4,259,260,-1,4,260,261,-1,113,115,100,-1,100,115,117,-1,100,117,235,-1,235,117,242,-1,261,262,4,-1,4,262,263,-1,4,263,230,-1,118,264,265,-1,266,267,13,-1,268,212,269,-1,269,212,270,-1,212,271,3,-1,3,271,272,-1,3,272,2,-1,2,272,273,-1,2,273,5,-1,268,274,212,-1,212,274,275,-1,212,275,271,-1,265,276,118,-1,118,276,277,-1,118,277,278,-1,279,280,122,-1,122,280,281,-1,273,282,5,-1,5,282,283,-1,5,283,9,-1,9,283,284,-1,9,284,285,-1,124,121,126,-1,126,121,122,-1,270,212,286,-1,286,212,126,-1,286,126,287,-1,278,288,118,-1,118,288,289,-1,118,289,122,-1,122,289,290,-1,122,290,279,-1,281,291,122,-1,122,291,292,-1,122,292,126,-1,126,292,293,-1,126,293,287,-1,11,8,13,-1,13,8,9,-1,13,9,266,-1,266,9,294,-1,267,295,13,-1,13,295,296,-1,13,296,99,-1,285,297,9,-1,9,297,298,-1,9,298,294,-1,296,299,99,-1,99,299,300,-1,99,300,301,-1,116,114,118,-1,118,114,99,-1,118,99,264,-1,264,99,301,-1,112,34,302,-1,302,34,42,-1,302,42,303,-1,303,42,41,-1,303,41,304,-1,304,41,61,-1,304,61,305,-1,305,61,59,-1,305,59,306,-1,306,59,58,-1,306,58,307,-1,307,58,44,-1,307,44,308,-1,308,44,38,-1,309,308,37,-1,37,308,38,-1,309,37,87,-1,309,87,310,-1,310,87,86,-1,310,86,311,-1,311,86,84,-1,311,84,312,-1,312,84,83,-1,312,83,313,-1,313,83,85,-1,313,85,314,-1,314,85,39,-1,314,39,315,-1,316,315,43,-1,43,315,39,-1,316,43,95,-1,316,95,317,-1,317,95,94,-1,317,94,318,-1,318,94,82,-1,318,82,319,-1,319,82,81,-1,319,81,320,-1,320,81,80,-1,320,80,321,-1,321,80,46,-1,321,46,322,-1,323,322,45,-1,45,322,46,-1,323,45,60,-1,323,60,324,-1,324,60,62,-1,324,62,325,-1,325,62,63,-1,325,63,326,-1,326,63,66,-1,326,66,327,-1,327,66,65,-1,327,65,328,-1,328,65,64,-1,328,64,329,-1,330,329,40,-1,40,329,64,-1,330,40,331,-1,331,40,33,-1,331,33,332,-1,332,33,35,-1,332,35,333,-1,333,35,36,-1,333,36,334,-1,334,36,29,-1,334,29,335,-1,335,29,28,-1,335,28,336,-1,336,28,76,-1,337,336,75,-1,75,336,76,-1,337,75,338,-1,338,75,74,-1,338,74,339,-1,339,74,32,-1,339,32,340,-1,340,32,31,-1,340,31,341,-1,341,31,72,-1,341,72,342,-1,342,72,71,-1,342,71,343,-1,343,71,70,-1,344,343,68,-1,68,343,70,-1,344,68,67,-1,344,67,345,-1,345,67,47,-1,345,47,346,-1,346,47,49,-1,346,49,347,-1,347,49,50,-1,347,50,348,-1,348,50,73,-1,348,73,349,-1,349,73,53,-1,349,53,350,-1,351,350,55,-1,55,350,53,-1,351,55,92,-1,351,92,352,-1,352,92,98,-1,352,98,353,-1,353,98,97,-1,353,97,354,-1,354,97,96,-1,354,96,355,-1,355,96,91,-1,355,91,356,-1,356,91,93,-1,356,93,357,-1,358,357,89,-1,89,357,93,-1,358,89,88,-1,358,88,359,-1,359,88,79,-1,359,79,360,-1,360,79,78,-1,360,78,361,-1,361,78,77,-1,361,77,362,-1,362,77,90,-1,362,90,363,-1,363,90,57,-1,363,57,364,-1,365,364,56,-1,56,364,57,-1,365,56,366,-1,366,56,54,-1,366,54,367,-1,367,54,52,-1,367,52,368,-1,368,52,51,-1,368,51,369,-1,369,51,48,-1,369,48,370,-1,370,48,69,-1,370,69,14,-1,14,69,15,-1,345,346,369,-1,338,339,16,-1,339,340,16,-1,16,340,341,-1,16,341,14,-1,14,341,342,-1,14,342,370,-1,370,342,343,-1,370,343,369,-1,369,343,344,-1,369,344,345,-1,356,357,351,-1,369,349,368,-1,368,349,350,-1,368,350,367,-1,357,364,351,-1,351,364,365,-1,351,365,350,-1,350,365,366,-1,350,366,367,-1,346,347,369,-1,369,347,348,-1,369,348,349,-1,361,362,360,-1,360,362,359,-1,357,358,364,-1,364,358,359,-1,364,359,363,-1,363,359,362,-1,331,332,111,-1,111,332,333,-1,111,333,334,-1,351,352,356,-1,356,352,353,-1,356,353,355,-1,355,353,354,-1,325,326,304,-1,111,112,331,-1,331,112,302,-1,331,302,330,-1,330,302,303,-1,334,335,111,-1,111,335,336,-1,111,336,16,-1,16,336,337,-1,16,337,338,-1,326,327,304,-1,304,327,328,-1,304,328,303,-1,303,328,329,-1,303,329,330,-1,305,323,304,-1,304,323,324,-1,304,324,325,-1,305,306,323,-1,323,306,307,-1,323,307,322,-1,322,307,308,-1,322,308,321,-1,314,315,309,-1,317,318,308,-1,310,311,312,-1,309,315,308,-1,308,315,316,-1,308,316,317,-1,318,319,308,-1,308,319,320,-1,308,320,321,-1,310,312,309,-1,309,312,313,-1,309,313,314,-1,225,188,371,-1,371,188,190,-1,371,190,372,-1,372,190,184,-1,372,184,373,-1,373,184,198,-1,373,198,374,-1,374,198,197,-1,374,197,375,-1,375,197,161,-1,375,161,376,-1,376,161,163,-1,377,376,179,-1,179,376,163,-1,377,179,181,-1,377,181,378,-1,378,181,201,-1,378,201,379,-1,379,201,196,-1,379,196,380,-1,380,196,195,-1,380,195,381,-1,381,195,194,-1,381,194,382,-1,382,194,180,-1,382,180,383,-1,384,383,178,-1,178,383,180,-1,384,178,177,-1,384,177,385,-1,385,177,176,-1,385,176,386,-1,386,176,175,-1,386,175,387,-1,387,175,174,-1,387,174,388,-1,388,174,165,-1,388,165,389,-1,389,165,164,-1,389,164,390,-1,391,390,162,-1,162,390,164,-1,391,162,199,-1,391,199,392,-1,392,199,200,-1,392,200,393,-1,393,200,185,-1,393,185,394,-1,394,185,183,-1,394,183,395,-1,395,183,182,-1,395,182,396,-1,396,182,192,-1,396,192,397,-1,398,397,191,-1,191,397,192,-1,398,191,399,-1,399,191,189,-1,399,189,400,-1,400,189,187,-1,400,187,401,-1,401,187,186,-1,401,186,402,-1,402,186,143,-1,402,143,403,-1,403,143,142,-1,403,142,404,-1,404,142,153,-1,405,404,152,-1,152,404,153,-1,405,152,406,-1,406,152,151,-1,406,151,407,-1,407,151,147,-1,407,147,408,-1,408,147,146,-1,408,146,409,-1,409,146,145,-1,409,145,410,-1,410,145,144,-1,410,144,411,-1,411,144,167,-1,412,411,171,-1,171,411,167,-1,412,171,170,-1,412,170,413,-1,413,170,169,-1,413,169,414,-1,414,169,149,-1,414,149,415,-1,415,149,148,-1,415,148,416,-1,416,148,193,-1,416,193,417,-1,417,193,156,-1,417,156,418,-1,419,418,158,-1,158,418,156,-1,419,158,160,-1,419,160,420,-1,420,160,208,-1,420,208,421,-1,421,208,207,-1,421,207,422,-1,422,207,173,-1,422,173,423,-1,423,173,172,-1,423,172,424,-1,424,172,211,-1,424,211,425,-1,426,425,210,-1,210,425,211,-1,426,210,209,-1,426,209,427,-1,427,209,202,-1,427,202,428,-1,428,202,204,-1,428,204,429,-1,429,204,206,-1,429,206,430,-1,430,206,205,-1,430,205,431,-1,431,205,203,-1,431,203,432,-1,433,432,159,-1,159,432,203,-1,433,159,434,-1,434,159,157,-1,434,157,435,-1,435,157,155,-1,435,155,436,-1,436,155,154,-1,436,154,437,-1,437,154,150,-1,437,150,438,-1,438,150,168,-1,438,168,439,-1,439,168,166,-1,439,166,127,-1,127,166,128,-1,224,225,399,-1,406,407,129,-1,373,374,391,-1,391,374,375,-1,391,375,390,-1,414,415,437,-1,399,225,398,-1,398,225,371,-1,398,371,397,-1,397,371,372,-1,397,372,396,-1,373,391,372,-1,372,391,392,-1,372,392,393,-1,399,400,224,-1,224,400,401,-1,224,401,402,-1,407,408,129,-1,129,408,409,-1,129,409,127,-1,127,409,410,-1,127,410,439,-1,439,410,438,-1,393,394,372,-1,372,394,395,-1,372,395,396,-1,382,383,377,-1,377,383,390,-1,377,390,376,-1,376,390,375,-1,402,403,224,-1,224,403,404,-1,224,404,129,-1,129,404,405,-1,129,405,406,-1,410,411,438,-1,438,411,412,-1,438,412,437,-1,437,412,413,-1,437,413,414,-1,383,384,390,-1,390,384,385,-1,390,385,389,-1,389,385,386,-1,389,386,388,-1,388,386,387,-1,434,418,433,-1,433,418,419,-1,433,419,420,-1,434,435,418,-1,418,435,436,-1,418,436,417,-1,417,436,437,-1,417,437,416,-1,416,437,415,-1,377,378,382,-1,382,378,379,-1,382,379,381,-1,381,379,380,-1,427,428,426,-1,426,428,429,-1,426,429,430,-1,423,424,433,-1,433,424,425,-1,433,425,426,-1,430,431,426,-1,426,431,432,-1,426,432,433,-1,420,421,433,-1,433,421,422,-1,433,422,423,-1,213,125,140,-1,213,140,215,-1,215,140,138,-1,215,138,217,-1,217,138,136,-1,217,136,219,-1,219,136,134,-1,219,134,221,-1,221,134,132,-1,221,132,223,-1,223,132,130,-1,223,130,141,-1,100,12,27,-1,100,27,102,-1,102,27,25,-1,102,25,104,-1,104,25,23,-1,104,23,106,-1,106,23,21,-1,106,21,108,-1,108,21,19,-1,108,19,110,-1,110,19,17,-1,110,17,30,-1,126,212,139,-1,139,212,214,-1,139,214,137,-1,137,214,216,-1,137,216,135,-1,135,216,218,-1,135,218,133,-1,133,218,220,-1,133,220,131,-1,131,220,222,-1,131,222,129,-1,129,222,224,-1,111,16,109,-1,109,16,18,-1,109,18,107,-1,107,18,20,-1,107,20,105,-1,105,20,22,-1,105,22,103,-1,103,22,24,-1,103,24,101,-1,101,24,26,-1,101,26,99,-1,99,26,13,-1,440,441,442,-1,442,441,443,-1,5,9,444,-1,444,9,445,-1,444,445,446,-1,446,445,447,-1,446,447,448,-1,448,447,449,-1,448,449,450,-1,450,449,451,-1,450,451,452,-1,452,451,453,-1,452,453,454,-1,454,453,455,-1,9,7,445,-1,445,7,456,-1,445,456,447,-1,447,456,457,-1,447,457,449,-1,449,457,458,-1,449,458,451,-1,451,458,459,-1,451,459,453,-1,453,459,460,-1,453,460,455,-1,455,460,461,-1,462,461,460,-1,462,460,463,-1,463,460,459,-1,463,459,464,-1,464,459,458,-1,464,458,465,-1,465,458,457,-1,465,457,466,-1,466,457,456,-1,466,456,467,-1,467,456,7,-1,467,7,4,-1,454,462,452,-1,452,462,463,-1,452,463,450,-1,450,463,464,-1,450,464,448,-1,448,464,465,-1,448,465,446,-1,446,465,466,-1,446,466,444,-1,444,466,467,-1,444,467,5,-1,5,467,4,-1,440,454,441,-1,441,454,455,-1,441,455,443,-1,443,455,461,-1,443,461,442,-1,442,461,462,-1,462,454,442,-1,442,454,440,-1,468,469,470,-1,470,469,471,-1,472,473,474,-1,472,474,475,-1,475,474,476,-1,475,476,477,-1,477,476,478,-1,477,478,479,-1,479,478,480,-1,479,480,481,-1,481,480,482,-1,481,482,483,-1,483,482,120,-1,483,120,117,-1,484,472,485,-1,485,472,475,-1,485,475,486,-1,486,475,477,-1,486,477,487,-1,487,477,479,-1,487,479,488,-1,488,479,481,-1,488,481,489,-1,489,481,483,-1,489,483,118,-1,118,483,117,-1,118,122,489,-1,489,122,490,-1,489,490,488,-1,488,490,491,-1,488,491,487,-1,487,491,492,-1,487,492,486,-1,486,492,493,-1,486,493,485,-1,485,493,494,-1,485,494,484,-1,484,494,495,-1,122,120,490,-1,490,120,482,-1,490,482,491,-1,491,482,480,-1,491,480,492,-1,492,480,478,-1,492,478,493,-1,493,478,476,-1,493,476,494,-1,494,476,474,-1,494,474,495,-1,495,474,473,-1,471,473,470,-1,470,473,472,-1,470,472,468,-1,468,472,484,-1,468,484,469,-1,469,484,495,-1,495,473,469,-1,469,473,471,-1,289,237,290,-1,290,237,258,-1,290,258,279,-1,279,258,257,-1,279,257,280,-1,280,257,256,-1,280,256,281,-1,281,256,255,-1,281,255,291,-1,291,255,254,-1,291,254,292,-1,292,254,248,-1,292,248,293,-1,293,248,247,-1,293,247,287,-1,287,247,246,-1,287,246,286,-1,286,246,243,-1,286,243,270,-1,270,243,244,-1,270,244,269,-1,269,244,245,-1,269,245,268,-1,268,245,227,-1,268,227,274,-1,274,227,226,-1,274,226,275,-1,275,226,230,-1,275,230,271,-1,271,230,263,-1,271,263,272,-1,272,263,262,-1,272,262,273,-1,273,262,261,-1,273,261,282,-1,282,261,260,-1,282,260,283,-1,283,260,259,-1,283,259,284,-1,284,259,250,-1,284,250,285,-1,285,250,249,-1,285,249,297,-1,297,249,234,-1,297,234,298,-1,298,234,233,-1,298,233,294,-1,294,233,232,-1,294,232,266,-1,266,232,231,-1,266,231,267,-1,267,231,229,-1,267,229,295,-1,295,229,228,-1,295,228,296,-1,296,228,253,-1,296,253,299,-1,299,253,252,-1,299,252,300,-1,300,252,251,-1,300,251,301,-1,301,251,236,-1,301,236,264,-1,264,236,235,-1,264,235,265,-1,265,235,242,-1,265,242,276,-1,276,242,241,-1,276,241,277,-1,277,241,240,-1,277,240,278,-1,278,240,239,-1,278,239,288,-1,288,239,238,-1,288,238,289,-1,289,238,237,-1,
        ]
    }
}
Shape{
    appearance Appearance {
        material  Material 	{
            diffuseColor 0.2235294117647059 0.2235294117647059 0.2235294117647059
            specularColor 0.11372549019607843 0.11372549019607843 0.11372549019607843
            ambientIntensity 0.2235
            transparency 0.0
            shininess 0.5
        }
    }
    geometry IndexedFaceSet {
        ccw TRUE
        solid FALSE
        coord DEF co Coordinate {
            point [
                -0.028 0.2498 -0.0, -0.0204 0.2487 -0.0, -0.0204 0.1472 -0.0, -0.3937 -0.5285 -0.0, -0.4211 -0.5167 -0.0, -0.1128 -0.5167 -0.0, -0.6743 -0.2559 -0.0, -0.6743 -0.1493 -0.0, -0.1128 -0.1493 -0.0, 0.1179 -0.0429 -0.0, 0.1214 -0.0393 -0.0, 0.1214 -0.0519 -0.0, 0.0516 -0.0519 -0.0, 0.0516 0.0477 -0.0, 0.0612 -0.0354 -0.0, 0.0612 -0.0462 -0.0, 0.0717 -0.0505 -0.0, 0.0817 -0.0519 -0.0, 0.0516 0.1472 -0.0, 0.0757 0.0477 -0.0, 0.0726 0.0475 -0.0, 0.0612 0.0444 -0.0, 0.0612 0.0312 -0.0, 0.0723 0.036 -0.0, 0.063 -0.0364 -0.0, 0.0843 0.0375 -0.0, 0.094 0.0364 -0.0, 0.1013 0.0338 -0.0, 0.1081 0.0292 -0.0, 0.1141 0.0227 -0.0, 0.1212 -0.0031 -0.0, 0.1202 -0.0138 -0.0, 0.1176 -0.0223 -0.0, 0.0957 -0.0407 -0.0, 0.0865 -0.0417 -0.0, 0.1028 -0.038 -0.0, 0.1089 -0.034 -0.0, 0.1135 -0.0291 -0.0, 0.0734 -0.0403 -0.0, 0.1181 0.0151 -0.0, 0.1208 0.0045 -0.0, 0.1214 0.0477 -0.0, 0.1214 0.0324 -0.0, 0.1146 0.0389 -0.0, 0.1052 0.0443 -0.0, 0.0943 0.0475 -0.0, 0.0917 0.0477 -0.0, 0.1386 -0.0519 -0.0, 0.1253 -0.0351 -0.0, 0.1305 -0.0258 -0.0, 0.1235 0.0304 -0.0, 0.1386 0.0477 -0.0, 0.1292 0.0212 -0.0, 0.1335 -0.0153 -0.0, 0.1344 -0.004 -0.0, 0.133 0.01 -0.0, 0.0941 -0.0519 -0.0, 0.1004 -0.0512 -0.0, 0.11 -0.048 -0.0, 0.0883 -0.0525 -0.0, 0.1214 -0.1493 -0.0, 0.0856 -0.0525 -0.0, 0.0516 -0.1493 -0.0, -0.1087 0.0054 -0.0, -0.1092 -0.0009 -0.0, -0.1128 0.0477 -0.0, -0.1128 -0.0519 -0.0, -0.1087 -0.0054 -0.0, -0.1087 -0.0519 -0.0, -0.1078 -0.014 -0.0, -0.1043 -0.0243 -0.0, -0.0987 -0.0331 -0.0, -0.0906 -0.0409 -0.0, -0.0803 -0.0469 -0.0, -0.0578 0.0471 -0.0, -0.072 0.0456 -0.0, -0.1087 0.0477 -0.0, -0.0835 0.0416 -0.0, -0.0942 0.0344 -0.0, -0.0943 0.0343 -0.0, -0.1013 0.0266 -0.0, -0.1059 0.0181 -0.0, -0.1085 0.0084 -0.0, -0.03 0.0471 -0.0, -0.0204 0.0477 -0.0, -0.03 -0.0513 -0.0, -0.0204 -0.0519 -0.0, -0.0568 -0.0513 -0.0, -0.0689 -0.0502 -0.0, -0.7874 -0.4921 -0.0, -0.7874 -0.2559 -0.0, -0.5406 -0.4921 -0.0, -0.4899 -0.4962 -0.0, -0.286 -0.5668 -0.0, -0.3354 -0.5545 -0.0, -0.3822 -0.5345 -0.0, 0.4211 -0.5167 -0.0, 0.3937 -0.5285 -0.0, 0.1386 -0.5167 -0.0, 0.3822 -0.5345 -0.0, 0.3354 -0.5545 -0.0, 0.286 -0.5668 -0.0, 0.2353 -0.5709 -0.0, 0.1386 -0.1493 -0.0, 0.6743 -0.1493 -0.0, 0.6743 -0.2559 -0.0, 0.4899 -0.4962 -0.0, 0.4405 -0.5085 -0.0, 0.7874 -0.2559 -0.0, 0.7874 -0.4921 -0.0, 0.5406 -0.4921 -0.0, 0.6743 -0.0519 -0.0, 0.1428 -0.0405 -0.0, 0.1428 -0.0513 -0.0, 0.1932 -0.0513 -0.0, 0.6743 0.1472 -0.0, 0.6743 0.0477 -0.0, 0.6743 0.2559 -0.0, 0.3937 0.5285 -0.0, 0.4405 0.5085 -0.0, 0.7874 0.4921 -0.0, 0.7874 0.2559 -0.0, 0.5406 0.4921 -0.0, 0.4899 0.4962 -0.0, 0.2353 0.5709 -0.0, 0.286 0.5668 -0.0, 0.1386 0.1472 -0.0, 0.3354 0.5545 -0.0, 0.3822 0.5345 -0.0, -0.6743 0.0477 -0.0, -0.6743 0.1472 -0.0, -0.1128 0.1472 -0.0, -0.6743 0.2559 -0.0, -0.3354 0.5545 -0.0, -0.286 0.5668 -0.0, -0.2353 0.5709 -0.0, -0.1128 0.5709 -0.0, -0.4899 0.4962 -0.0, -0.4405 0.5085 -0.0, -0.3937 0.5285 -0.0, -0.3822 0.5345 -0.0, -0.7874 0.2559 -0.0, -0.7874 0.4921 -0.0, -0.5406 0.4921 -0.0, -0.1908 -0.0513 -0.0, -0.2053 -0.0513 -0.0, -0.6743 -0.0519 -0.0, -0.1668 0.0471 -0.0, -0.1809 -0.0237 -0.0, -0.1402 -0.0237 -0.0, -0.1308 -0.0513 -0.0, -0.1164 -0.0513 -0.0, -0.1536 0.0471 -0.0, -0.0204 0.5709 -0.0, -0.0204 0.4599 -0.0, -0.028 0.4589 -0.0, -0.1087 0.1472 -0.0, -0.0938 0.3002 -0.0, -0.0766 0.2778 -0.0, -0.0766 0.4309 -0.0, -0.0938 0.4085 -0.0, -0.1087 0.5709 -0.0, -0.0541 0.4481 -0.0, -0.1046 0.3824 -0.0, -0.1083 0.3543 -0.0, -0.1046 0.3263 -0.0, -0.0541 0.2606 -0.0, 0.0516 0.5709 -0.0, 0.028 0.4589 -0.0, 0.0 0.4626 -0.0, 0.1046 0.3824 -0.0, 0.0938 0.4085 -0.0, 0.1214 0.5709 -0.0, 0.0766 0.4309 -0.0, 0.0541 0.4481 -0.0, 0.0516 0.4491 -0.0, 0.0766 0.2778 -0.0, 0.0938 0.3002 -0.0, 0.1214 0.1472 -0.0, 0.1046 0.3263 -0.0, 0.1083 0.3543 -0.0, 0.0 0.2461 -0.0, 0.028 0.2498 -0.0, 0.0516 0.2595 -0.0, 0.0541 0.2606 -0.0, -0.0204 -0.1493 -0.0, -0.0204 -0.2487 -0.0, -0.028 -0.2498 -0.0, -0.028 -0.4589 -0.0, -0.0204 -0.5167 -0.0, -0.0541 -0.4481 -0.0, -0.1087 -0.5167 -0.0, -0.0766 -0.4309 -0.0, -0.1087 -0.1493 -0.0, -0.0541 -0.2606 -0.0, -0.0766 -0.2778 -0.0, -0.0938 -0.3002 -0.0, -0.1046 -0.3263 -0.0, -0.1083 -0.3543 -0.0, -0.1046 -0.3824 -0.0, -0.0938 -0.4085 -0.0, 0.028 -0.2498 -0.0, 0.0 -0.2461 -0.0, 0.1046 -0.3263 -0.0, 0.0938 -0.3002 -0.0, 0.0766 -0.4309 -0.0, 0.0938 -0.4085 -0.0, 0.1214 -0.5167 -0.0, 0.1046 -0.3824 -0.0, 0.1083 -0.3543 -0.0, 0.0766 -0.2778 -0.0, 0.0541 -0.2606 -0.0, 0.0516 -0.2595 -0.0, 0.0516 -0.5167 -0.0, 0.0516 -0.4491 -0.0, 0.0541 -0.4481 -0.0, -0.0204 -0.4599 -0.0, 0.0 -0.4626 -0.0, 0.028 -0.4589 -0.0, 0.1386 0.5709 -0.0, 0.0844 0.0483 -0.0, -0.0084 0.0471 -0.0, -0.0084 0.0363 -0.0, -0.0108 -0.0405 -0.0, -0.0108 -0.0513 -0.0, 0.042 -0.0513 -0.0, 0.042 0.0471 -0.0, 0.0288 -0.0069 -0.0, 0.0288 -0.0405 -0.0, -0.006 -0.0069 -0.0, -0.006 0.0039 -0.0, 0.0288 0.0039 -0.0, 0.0288 0.0363 -0.0, 0.18 -0.0405 -0.0, 0.18 0.0471 -0.0, 0.1932 0.0471 -0.0, -0.4405 -0.5085 -0.0, 0.1386 -0.5709 -0.0, 0.1214 -0.5709 -0.0, 0.0516 -0.5709 -0.0, -0.0204 -0.5709 -0.0, -0.1087 -0.5709 -0.0, -0.1128 -0.5709 -0.0, -0.2353 -0.5709 -0.0, 0.7874 0.4921 0.3346, 0.6693 0.4921 0.3346, 0.6693 0.4921 0.5315, 0.5406 0.4921 0.3346, -0.6693 0.4921 0.5315, -0.5406 0.4921 0.3346, -0.6693 0.4921 0.3346, -0.7874 0.4921 0.3346, -0.7874 -0.4921 0.3346, -0.6693 -0.4921 0.3346, -0.6693 -0.4921 0.5315, -0.5406 -0.4921 0.3346, 0.6693 -0.4921 0.5315, 0.5406 -0.4921 0.3346, 0.6693 -0.4921 0.3346, 0.7874 -0.4921 0.3346, -0.2353 -0.5709 0.3346, 0.2353 -0.5709 0.3346, 0.4899 -0.4962 0.3346, 0.4405 -0.5085 0.3346, 0.3937 -0.5285 0.3346, 0.3822 -0.5345 0.3346, 0.3354 -0.5545 0.3346, 0.286 -0.5668 0.3346, -0.3937 -0.5285 0.3346, -0.4405 -0.5085 0.3346, -0.4899 -0.4962 0.3346, -0.3822 -0.5345 0.3346, -0.286 -0.5668 0.3346, -0.3354 -0.5545 0.3346, 0.2353 0.5709 0.3346, -0.2353 0.5709 0.3346, 0.7874 0.2559 0.0551, 0.7874 0.5709 0.3346, 0.7874 0.5709 0.3626, 0.7874 0.4921 0.5315, 0.7874 0.1575 0.3346, 0.7874 0.1575 0.5315, 0.7874 -0.2559 0.0551, 0.7874 -0.1575 0.3346, 0.7874 -0.1575 0.5315, 0.7874 -0.4921 0.5315, 0.7874 -0.5709 0.3626, 0.7874 -0.5709 0.3346, -0.7874 -0.2559 0.0551, -0.7874 -0.5709 0.3346, -0.7874 -0.5709 0.3626, -0.7874 -0.4921 0.5315, -0.7874 -0.1575 0.3346, -0.7874 -0.1575 0.5315, -0.7874 0.2559 0.0551, -0.7874 0.1575 0.3346, -0.7874 0.1575 0.5315, -0.7874 0.4921 0.5315, -0.7874 0.5709 0.3626, -0.7874 0.5709 0.3346, 0.7087 0.1575 0.5315, 0.0916 0.3219 0.5315, 0.1492 0.2996 0.5315, 0.7087 -0.1575 0.5315, -0.7087 0.1575 0.5315, -0.0916 -0.3219 0.5315, -0.1492 -0.2996 0.5315, -0.7087 -0.1575 0.5315, -0.2017 -0.2671 0.5315, 0.0309 0.3332 0.5315, -0.0309 0.3332 0.5315, -0.0916 0.3219 0.5315, -0.1492 0.2996 0.5315, -0.2017 0.2671 0.5315, -0.2473 -0.2254 0.5315, -0.2845 -0.1762 0.5315, -0.312 -0.1209 0.5315, 0.2017 0.2671 0.5315, 0.2473 0.2254 0.5315, 0.2845 0.1762 0.5315, -0.312 0.1209 0.5315, -0.2845 0.1762 0.5315, -0.2473 0.2254 0.5315, 0.0916 -0.3219 0.5315, 0.0309 -0.3332 0.5315, -0.0309 -0.3332 0.5315, 0.3346 0.0 0.5315, 0.3289 0.0615 0.5315, 0.312 0.1209 0.5315, 0.3289 -0.0615 0.5315, 0.312 -0.1209 0.5315, 0.2845 -0.1762 0.5315, 0.2473 -0.2254 0.5315, 0.2017 -0.2671 0.5315, 0.1492 -0.2996 0.5315, -0.3289 -0.0615 0.5315, -0.3346 -0.0 0.5315, -0.3289 0.0615 0.5315, 0.286 0.5668 0.3346, 0.3354 0.5545 0.3346, 0.3822 0.5345 0.3346, 0.3937 0.5285 0.3346, 0.4405 0.5085 0.3346, 0.4899 0.4962 0.3346, -0.3822 0.5345 0.3346, -0.3354 0.5545 0.3346, -0.286 0.5668 0.3346, -0.3937 0.5285 0.3346, -0.4899 0.4962 0.3346, -0.4405 0.5085 0.3346, 0.7087 -0.1575 0.3346, 0.7087 0.1575 0.3346, -0.7087 0.1575 0.3346, -0.7087 -0.1575 0.3346, -0.6693 -0.5709 0.3626, -0.6693 -0.5709 0.3346, 0.6693 -0.5709 0.3626, 0.6693 -0.5709 0.3346, 0.6693 0.5709 0.3626, 0.6693 0.5709 0.3346, -0.6693 0.5709 0.3626, -0.6693 0.5709 0.3346
            ]
        }
        coordIndex [
            0,1,2,-1,3,4,5,-1,6,7,8,-1,9,10,11,-1,12,13,14,-1,14,15,12,-1,12,15,16,-1,12,16,17,-1,18,19,13,-1,13,19,20,-1,20,21,13,-1,13,21,22,-1,13,22,14,-1,14,22,23,-1,14,23,24,-1,24,23,25,-1,24,25,26,-1,26,27,24,-1,24,27,28,-1,24,28,29,-1,30,31,24,-1,24,31,32,-1,33,34,35,-1,35,34,36,-1,32,37,24,-1,24,37,36,-1,24,36,38,-1,38,36,34,-1,29,39,24,-1,24,39,40,-1,24,40,30,-1,41,42,43,-1,43,44,41,-1,41,44,45,-1,41,45,46,-1,47,48,49,-1,42,41,50,-1,50,41,51,-1,50,51,52,-1,49,53,47,-1,47,53,54,-1,47,54,51,-1,51,54,55,-1,51,55,52,-1,56,57,11,-1,11,57,58,-1,11,58,9,-1,59,60,61,-1,61,60,62,-1,61,62,17,-1,59,56,60,-1,60,56,11,-1,60,11,47,-1,47,11,10,-1,47,10,48,-1,63,64,65,-1,65,64,66,-1,66,64,67,-1,66,67,68,-1,68,67,69,-1,68,69,70,-1,70,71,68,-1,68,71,72,-1,68,72,73,-1,74,75,76,-1,75,77,76,-1,76,77,78,-1,76,78,79,-1,79,80,76,-1,76,80,81,-1,76,81,82,-1,83,84,85,-1,85,84,86,-1,85,86,87,-1,87,86,68,-1,87,68,88,-1,88,68,73,-1,89,90,91,-1,91,90,6,-1,91,6,92,-1,93,94,5,-1,5,94,95,-1,5,95,3,-1,96,97,98,-1,98,97,99,-1,99,100,98,-1,98,100,101,-1,98,101,102,-1,103,104,105,-1,106,107,105,-1,108,109,105,-1,105,109,110,-1,105,110,106,-1,104,103,111,-1,51,112,47,-1,47,112,113,-1,47,113,114,-1,115,116,51,-1,117,118,119,-1,120,121,122,-1,122,121,117,-1,122,117,123,-1,123,117,119,-1,124,125,126,-1,126,125,127,-1,117,115,118,-1,118,115,126,-1,118,126,128,-1,128,126,127,-1,129,130,131,-1,131,130,132,-1,133,134,131,-1,131,134,135,-1,131,135,136,-1,137,138,132,-1,132,138,139,-1,132,139,131,-1,131,139,140,-1,131,140,133,-1,141,142,132,-1,132,142,143,-1,132,143,137,-1,144,66,145,-1,145,66,146,-1,145,146,147,-1,147,146,129,-1,147,129,65,-1,65,129,131,-1,148,149,144,-1,144,149,150,-1,144,150,66,-1,66,150,151,-1,66,151,65,-1,65,151,152,-1,65,152,147,-1,153,154,155,-1,156,157,158,-1,159,160,161,-1,153,155,161,-1,161,155,162,-1,161,162,159,-1,160,163,161,-1,161,163,164,-1,161,164,156,-1,156,164,165,-1,156,165,157,-1,0,2,166,-1,167,168,153,-1,153,168,169,-1,153,169,154,-1,170,171,172,-1,171,173,172,-1,172,173,174,-1,172,174,167,-1,167,174,175,-1,167,175,168,-1,176,177,178,-1,178,177,179,-1,178,179,180,-1,181,182,18,-1,18,182,183,-1,18,183,178,-1,178,183,184,-1,178,184,176,-1,185,186,187,-1,188,189,190,-1,190,189,191,-1,190,191,192,-1,185,187,193,-1,193,187,194,-1,193,194,195,-1,195,196,193,-1,193,196,197,-1,193,197,198,-1,198,199,191,-1,191,199,200,-1,191,200,192,-1,62,201,185,-1,185,201,202,-1,185,202,186,-1,203,204,60,-1,205,206,207,-1,207,206,208,-1,207,208,209,-1,204,210,60,-1,60,210,211,-1,60,211,62,-1,62,211,212,-1,62,212,201,-1,213,214,207,-1,207,214,215,-1,207,215,205,-1,188,216,189,-1,189,216,217,-1,189,217,213,-1,213,217,218,-1,213,218,214,-1,124,126,219,-1,219,126,178,-1,219,178,172,-1,172,178,180,-1,172,180,170,-1,136,161,131,-1,131,161,156,-1,131,156,65,-1,65,156,76,-1,65,76,63,-1,63,76,82,-1,158,166,156,-1,156,166,2,-1,156,2,76,-1,76,2,84,-1,76,84,74,-1,74,84,83,-1,115,51,126,-1,126,51,41,-1,126,41,178,-1,178,41,46,-1,178,46,18,-1,18,46,220,-1,18,220,19,-1,1,181,2,-1,2,181,18,-1,2,18,84,-1,84,18,13,-1,84,13,221,-1,221,222,84,-1,84,222,223,-1,84,223,86,-1,86,223,224,-1,86,224,12,-1,12,224,225,-1,12,225,13,-1,13,225,226,-1,13,226,221,-1,227,228,229,-1,229,228,223,-1,229,223,230,-1,230,223,222,-1,230,222,231,-1,231,222,232,-1,17,62,12,-1,12,62,185,-1,12,185,86,-1,86,185,193,-1,86,193,68,-1,68,193,8,-1,68,8,66,-1,66,8,7,-1,66,7,146,-1,233,112,234,-1,234,112,51,-1,234,51,235,-1,235,51,116,-1,235,116,114,-1,114,116,111,-1,114,111,47,-1,47,111,103,-1,47,103,60,-1,198,191,193,-1,193,191,5,-1,193,5,8,-1,8,5,4,-1,8,4,6,-1,6,4,236,-1,6,236,92,-1,107,96,105,-1,105,96,98,-1,105,98,103,-1,103,98,207,-1,103,207,60,-1,60,207,209,-1,60,209,203,-1,102,237,98,-1,98,237,238,-1,98,238,207,-1,207,238,239,-1,207,239,213,-1,213,239,240,-1,213,240,189,-1,189,240,241,-1,189,241,191,-1,191,241,242,-1,191,242,5,-1,5,242,243,-1,5,243,93,-1,244,120,245,-1,245,120,122,-1,245,122,246,-1,246,122,247,-1,246,247,248,-1,248,247,249,-1,248,249,250,-1,250,249,143,-1,250,143,251,-1,251,143,142,-1,252,89,253,-1,253,89,91,-1,253,91,254,-1,254,91,255,-1,254,255,256,-1,256,255,257,-1,256,257,258,-1,258,257,110,-1,258,110,259,-1,259,110,109,-1,260,243,242,-1,242,241,260,-1,260,241,240,-1,260,240,261,-1,261,240,239,-1,239,238,261,-1,261,238,237,-1,261,237,102,-1,110,257,106,-1,106,257,262,-1,106,262,107,-1,107,262,263,-1,107,263,96,-1,96,263,264,-1,96,264,97,-1,99,97,265,-1,265,97,264,-1,99,265,266,-1,99,266,100,-1,100,266,267,-1,100,267,101,-1,101,267,261,-1,101,261,102,-1,3,268,4,-1,4,268,269,-1,255,91,270,-1,270,91,92,-1,270,92,269,-1,269,92,236,-1,269,236,4,-1,3,95,268,-1,268,95,271,-1,243,260,272,-1,243,272,93,-1,93,272,273,-1,93,273,94,-1,94,273,271,-1,94,271,95,-1,274,124,219,-1,219,172,274,-1,274,172,167,-1,274,167,275,-1,275,167,153,-1,153,161,275,-1,275,161,136,-1,275,136,135,-1,276,121,120,-1,277,278,244,-1,244,278,279,-1,244,279,280,-1,280,279,281,-1,109,108,282,-1,283,284,259,-1,120,244,276,-1,276,244,280,-1,276,280,282,-1,282,280,283,-1,282,283,109,-1,109,283,259,-1,284,285,259,-1,259,285,286,-1,259,286,287,-1,288,90,89,-1,289,290,252,-1,252,290,291,-1,252,291,292,-1,292,291,293,-1,142,141,294,-1,295,296,251,-1,89,252,288,-1,288,252,292,-1,288,292,294,-1,294,292,295,-1,294,295,142,-1,142,295,251,-1,296,297,251,-1,251,297,298,-1,251,298,299,-1,300,301,302,-1,285,284,256,-1,256,284,303,-1,248,297,304,-1,304,297,296,-1,305,306,307,-1,307,306,308,-1,309,246,310,-1,310,246,248,-1,310,248,311,-1,311,248,304,-1,311,304,312,-1,312,304,313,-1,308,314,307,-1,307,314,315,-1,307,315,316,-1,302,317,300,-1,300,317,318,-1,300,318,319,-1,281,279,300,-1,300,279,246,-1,300,246,301,-1,301,246,309,-1,320,321,304,-1,304,321,322,-1,304,322,313,-1,323,324,256,-1,256,324,325,-1,256,325,254,-1,326,303,327,-1,327,303,300,-1,327,300,328,-1,328,300,319,-1,326,329,303,-1,303,329,330,-1,303,330,256,-1,256,330,331,-1,256,331,332,-1,332,333,256,-1,256,333,334,-1,256,334,323,-1,293,291,307,-1,307,291,254,-1,307,254,305,-1,305,254,325,-1,316,335,307,-1,307,335,336,-1,307,336,304,-1,304,336,337,-1,304,337,320,-1,124,274,338,-1,124,338,125,-1,125,338,339,-1,125,339,127,-1,127,339,340,-1,127,340,128,-1,341,118,340,-1,340,118,128,-1,118,341,119,-1,119,341,342,-1,119,342,123,-1,123,342,343,-1,123,343,122,-1,122,343,247,-1,140,344,345,-1,140,345,133,-1,133,345,346,-1,133,346,134,-1,134,346,275,-1,134,275,135,-1,344,140,347,-1,347,140,139,-1,143,249,137,-1,137,249,348,-1,137,348,138,-1,138,348,349,-1,138,349,139,-1,139,349,347,-1,270,263,255,-1,255,263,262,-1,255,262,257,-1,270,269,263,-1,263,269,268,-1,263,268,264,-1,273,272,260,-1,265,261,266,-1,266,261,267,-1,265,264,261,-1,261,264,268,-1,261,268,260,-1,260,268,271,-1,260,271,273,-1,249,247,348,-1,348,247,349,-1,247,343,349,-1,349,343,342,-1,349,342,347,-1,347,342,341,-1,347,341,340,-1,275,347,274,-1,274,347,340,-1,274,340,338,-1,338,340,339,-1,346,345,275,-1,275,345,344,-1,275,344,347,-1,283,350,284,-1,284,350,303,-1,350,351,303,-1,303,351,300,-1,351,280,300,-1,300,280,281,-1,351,350,280,-1,280,350,283,-1,295,352,296,-1,296,352,304,-1,352,353,304,-1,304,353,307,-1,353,292,307,-1,307,292,293,-1,353,352,292,-1,292,352,295,-1,354,355,254,-1,254,355,253,-1,290,289,354,-1,354,289,355,-1,253,355,252,-1,252,355,289,-1,356,357,286,-1,286,357,287,-1,256,258,356,-1,356,258,357,-1,287,357,259,-1,259,357,258,-1,358,359,246,-1,246,359,245,-1,278,277,358,-1,358,277,359,-1,245,359,244,-1,244,359,277,-1,360,361,298,-1,298,361,299,-1,248,250,360,-1,360,250,361,-1,299,361,251,-1,251,361,250,-1,279,278,246,-1,246,278,358,-1,248,360,297,-1,297,360,298,-1,256,356,285,-1,285,356,286,-1,291,290,254,-1,254,290,354,-1,
        ]
    }
}
Shape{
    appearance Appearance {
        material  Material 	{
            diffuseColor 0.8509803921568627 0.8509803921568627 0.8509803921568627
            specularColor 0.4235294117647059 0.4235294117647059 0.4235294117647059
            ambientIntensity 0.851
            transparency 0.0
            shininess 0.5
        }
    }
    geometry IndexedFaceSet {
        ccw TRUE
        solid FALSE
        coord DEF co Coordinate {
            point [
                0.7874 -0.2559 0.0551, 0.9449 -0.2559 0.0551, 0.7874 0.2559 0.0551, 0.9449 0.2559 0.0551, 0.6743 0.2559 -0.0039, 0.6743 0.2559 -0.0, 0.7874 0.2559 -0.0, 0.9449 0.2559 -0.0039, 0.6743 -0.2559 -0.0, 0.6743 -0.2559 -0.0039, 0.7874 -0.2559 -0.0, 0.9449 -0.2559 -0.0039, 0.6743 -0.1493 -0.0, 0.6743 -0.0519 -0.0, 0.6743 0.0477 -0.0, 0.6743 0.1472 -0.0, -0.9449 0.2559 0.0551, -0.9449 -0.2559 0.0551, -0.7874 0.2559 0.0551, -0.7874 -0.2559 0.0551, -0.6743 -0.2559 -0.0039, -0.6743 -0.2559 -0.0, -0.7874 -0.2559 -0.0, -0.9449 -0.2559 -0.0039, -0.6743 0.2559 -0.0, -0.6743 0.2559 -0.0039, -0.7874 0.2559 -0.0, -0.9449 0.2559 -0.0039, -0.6743 -0.1493 -0.0, -0.6743 0.1472 -0.0, -0.6743 0.0477 -0.0, -0.6743 -0.0519 -0.0
            ]
        }
        coordIndex [
            0,1,2,-1,2,1,3,-1,4,5,6,-1,2,3,6,-1,6,3,7,-1,6,7,4,-1,8,9,10,-1,10,9,11,-1,10,11,0,-1,0,11,1,-1,7,3,11,-1,11,3,1,-1,9,8,12,-1,12,13,9,-1,9,13,14,-1,9,14,4,-1,4,14,15,-1,4,15,5,-1,9,4,11,-1,11,4,7,-1,16,17,18,-1,18,17,19,-1,20,21,22,-1,19,17,22,-1,22,17,23,-1,22,23,20,-1,24,25,26,-1,26,25,27,-1,26,27,18,-1,18,27,16,-1,23,17,27,-1,27,17,16,-1,28,21,20,-1,24,29,25,-1,25,29,30,-1,25,30,20,-1,20,30,31,-1,20,31,28,-1,25,20,27,-1,27,20,23,-1,
        ]
    }
}
Shape{
    appearance Appearance {
        material  Material 	{
            diffuseColor 0.2235294117647059 0.2235294117647059 0.2235294117647059
            specularColor 0.11372549019607843 0.11372549019607843 0.11372549019607843
            ambientIntensity 0.2235
            transparency 0.0
            shininess 0.5
        }
    }
    geometry IndexedFaceSet {
        ccw TRUE
        solid FALSE
        coord DEF co Coordinate {
            point [
                -0.1668 0.0471 0.0039, -0.2053 -0.0513 0.0039, -0.1668 0.0471 -0.0, -0.2053 -0.0513 -0.0, -0.1908 -0.0513 0.0039, -0.1908 -0.0513 -0.0, -0.1809 -0.0237 0.0039, -0.1809 -0.0237 -0.0, -0.1402 -0.0237 0.0039, -0.1402 -0.0237 -0.0, -0.1308 -0.0513 0.0039, -0.1308 -0.0513 -0.0, -0.1164 -0.0513 0.0039, -0.1164 -0.0513 -0.0, -0.1536 0.0471 0.0039, -0.1536 0.0471 -0.0, -0.1435 -0.0129 0.0039, -0.1765 -0.0129 0.0039, -0.1582 0.0282 0.0039, -0.1592 0.0316 0.0039, -0.1598 0.0351 0.0039, -0.1601 0.0351 0.0039, -0.1608 0.0316 0.0039, -0.1616 0.0282 0.0039, -0.1435 -0.0129 -0.0, -0.1765 -0.0129 -0.0, -0.1582 0.0282 -0.0, -0.1592 0.0316 -0.0, -0.1598 0.0351 -0.0, -0.1601 0.0351 -0.0, -0.1608 0.0316 -0.0, -0.1616 0.0282 -0.0, -0.0568 -0.0513 0.0039, -0.03 -0.0513 0.0039, -0.0568 -0.0513 -0.0, -0.03 -0.0513 -0.0, -0.03 0.0471 0.0039, -0.03 0.0471 -0.0, -0.0578 0.0471 0.0039, -0.0578 0.0471 -0.0, -0.1092 -0.0009 0.0039, -0.1092 -0.0009 -0.0, -0.1085 0.0084 0.0039, -0.1087 0.0054 -0.0, -0.1085 0.0084 -0.0, -0.1059 0.0181 -0.0, -0.1059 0.0181 0.0039, -0.1013 0.0266 -0.0, -0.1013 0.0266 0.0039, -0.0943 0.0343 -0.0, -0.0943 0.0343 0.0039, -0.0942 0.0344 -0.0, -0.0942 0.0344 0.0039, -0.0835 0.0416 -0.0, -0.0835 0.0416 0.0039, -0.072 0.0456 -0.0, -0.072 0.0456 0.0039, -0.0689 -0.0502 -0.0, -0.0689 -0.0502 0.0039, -0.0803 -0.0469 -0.0, -0.0803 -0.0469 0.0039, -0.0906 -0.0409 -0.0, -0.0906 -0.0409 0.0039, -0.0987 -0.0331 -0.0, -0.0987 -0.0331 0.0039, -0.1043 -0.0243 -0.0, -0.1043 -0.0243 0.0039, -0.1078 -0.014 -0.0, -0.1078 -0.014 0.0039, -0.1087 -0.0054 -0.0, -0.0895 0.0225 0.0039, -0.0847 0.0276 0.0039, -0.0775 0.0322 0.0039, -0.0694 0.0351 0.0039, -0.0577 0.0363 0.0039, -0.0432 0.0363 0.0039, -0.0432 -0.0405 0.0039, -0.0572 -0.0405 0.0039, -0.0676 -0.0395 0.0039, -0.0759 -0.037 0.0039, -0.0826 -0.033 0.0039, -0.0881 -0.0275 0.0039, -0.0922 -0.0207 0.0039, -0.0951 -0.0115 0.0039, -0.096 -0.0011 0.0039, -0.0952 0.0087 0.0039, -0.0929 0.0164 0.0039, -0.0577 0.0363 -0.0, -0.0432 0.0363 -0.0, -0.0694 0.0351 -0.0, -0.0775 0.0322 -0.0, -0.0847 0.0276 -0.0, -0.0895 0.0225 -0.0, -0.0929 0.0164 -0.0, -0.0952 0.0087 -0.0, -0.096 -0.0011 -0.0, -0.0951 -0.0115 -0.0, -0.0922 -0.0207 -0.0, -0.0881 -0.0275 -0.0, -0.0826 -0.033 -0.0, -0.0759 -0.037 -0.0, -0.0676 -0.0395 -0.0, -0.0572 -0.0405 -0.0, -0.0432 -0.0405 -0.0, -0.0108 -0.0405 0.0039, -0.0108 -0.0513 0.0039, -0.0108 -0.0405 -0.0, -0.0108 -0.0513 -0.0, 0.042 -0.0513 0.0039, 0.042 -0.0513 -0.0, 0.042 0.0471 0.0039, 0.042 0.0471 -0.0, -0.0084 0.0471 0.0039, -0.0084 0.0471 -0.0, -0.0084 0.0363 0.0039, -0.0084 0.0363 -0.0, 0.0288 0.0363 0.0039, 0.0288 0.0363 -0.0, 0.0288 0.0039 0.0039, 0.0288 0.0039 -0.0, -0.006 0.0039 0.0039, -0.006 0.0039 -0.0, -0.006 -0.0069 0.0039, -0.006 -0.0069 -0.0, 0.0288 -0.0069 0.0039, 0.0288 -0.0069 -0.0, 0.0288 -0.0405 0.0039, 0.0288 -0.0405 -0.0, 0.0612 -0.0354 0.0039, 0.0612 -0.0462 0.0039, 0.0612 -0.0354 -0.0, 0.0612 -0.0462 -0.0, 0.0717 -0.0505 0.0039, 0.0883 -0.0525 0.0039, 0.0883 -0.0525 -0.0, 0.0856 -0.0525 -0.0, 0.0856 -0.0525 0.0039, 0.0817 -0.0519 -0.0, 0.0717 -0.0505 -0.0, 0.1253 -0.0351 -0.0, 0.1305 -0.0258 0.0039, 0.1305 -0.0258 -0.0, 0.1335 -0.0153 0.0039, 0.1335 -0.0153 -0.0, 0.1344 -0.004 0.0039, 0.1344 -0.004 -0.0, 0.1214 -0.0393 -0.0, 0.1179 -0.0429 0.0039, 0.1253 -0.0351 0.0039, 0.1179 -0.0429 -0.0, 0.11 -0.048 -0.0, 0.11 -0.048 0.0039, 0.1004 -0.0512 -0.0, 0.1004 -0.0512 0.0039, 0.0941 -0.0519 -0.0, 0.0844 0.0483 0.0039, 0.0844 0.0483 -0.0, 0.0943 0.0475 0.0039, 0.0917 0.0477 -0.0, 0.0943 0.0475 -0.0, 0.1052 0.0443 -0.0, 0.1052 0.0443 0.0039, 0.1146 0.0389 -0.0, 0.1214 0.0324 -0.0, 0.1235 0.0304 0.0039, 0.1146 0.0389 0.0039, 0.1235 0.0304 -0.0, 0.1292 0.0212 -0.0, 0.1292 0.0212 0.0039, 0.133 0.01 -0.0, 0.133 0.01 0.0039, 0.0757 0.0477 -0.0, 0.0726 0.0475 0.0039, 0.0726 0.0475 -0.0, 0.0612 0.0444 0.0039, 0.0612 0.0444 -0.0, 0.0612 0.0312 0.0039, 0.0612 0.0312 -0.0, 0.0843 0.0375 0.0039, 0.0843 0.0375 -0.0, 0.0723 0.036 -0.0, 0.0723 0.036 0.0039, 0.1212 -0.0031 0.0039, 0.1212 -0.0031 -0.0, 0.1208 0.0045 -0.0, 0.1208 0.0045 0.0039, 0.1181 0.0151 -0.0, 0.1181 0.0151 0.0039, 0.1141 0.0227 -0.0, 0.1141 0.0227 0.0039, 0.1081 0.0292 -0.0, 0.1081 0.0292 0.0039, 0.1013 0.0338 -0.0, 0.1013 0.0338 0.0039, 0.094 0.0364 -0.0, 0.094 0.0364 0.0039, 0.0865 -0.0417 0.0039, 0.0865 -0.0417 -0.0, 0.0957 -0.0407 -0.0, 0.0957 -0.0407 0.0039, 0.1028 -0.038 -0.0, 0.1028 -0.038 0.0039, 0.1089 -0.034 -0.0, 0.1089 -0.034 0.0039, 0.1135 -0.0291 -0.0, 0.1135 -0.0291 0.0039, 0.1176 -0.0223 -0.0, 0.1176 -0.0223 0.0039, 0.1202 -0.0138 -0.0, 0.1202 -0.0138 0.0039, 0.063 -0.0364 -0.0, 0.063 -0.0364 0.0039, 0.0734 -0.0403 -0.0, 0.0734 -0.0403 0.0039, 0.1428 -0.0405 0.0039, 0.1428 -0.0513 0.0039, 0.1428 -0.0405 -0.0, 0.1428 -0.0513 -0.0, 0.1932 -0.0513 0.0039, 0.1932 -0.0513 -0.0, 0.1932 0.0471 0.0039, 0.1932 0.0471 -0.0, 0.18 0.0471 0.0039, 0.18 0.0471 -0.0, 0.18 -0.0405 0.0039, 0.18 -0.0405 -0.0, 0.2399 -0.217 0.6917, 0.239 -0.2178 0.6917, 0.2473 -0.2254 0.5315, 0.0958 -0.3089 0.6917, 0.0884 -0.3107 0.6917, 0.0916 -0.3219 0.5315, -0.1919 -0.2604 0.6917, -0.1948 -0.2579 0.6917, -0.2017 -0.2671 0.5315, -0.0324 0.3218 0.6917, -0.0298 0.3219 0.6917, -0.0309 0.3332 0.5315, 0.3227 0.0216 0.6917, 0.3346 0.0 0.5315, 0.3176 0.0594 0.6917, 0.3289 0.0615 0.5315, 0.317 0.0644 0.6917, 0.3055 0.1061 0.6917, 0.312 0.1209 0.5315, 0.3011 0.1166 0.6917, 0.2887 0.1459 0.6917, 0.2845 0.1762 0.5315, 0.2744 0.1699 0.6917, 0.2473 0.2254 0.5315, 0.239 0.2178 0.6917, 0.2399 0.217 0.6917, 0.2667 0.1831 0.6917, 0.2088 0.247 0.6917, 0.2017 0.2671 0.5315, 0.1945 0.2575 0.6917, 0.0916 0.3219 0.5315, 0.0884 0.3107 0.6917, 0.0958 0.3089 0.6917, 0.1492 0.2996 0.5315, 0.1361 0.2934 0.6917, 0.1439 0.2891 0.6917, 0.174 0.2726 0.6917, 0.0538 0.3189 0.6917, 0.0309 0.3332 0.5315, 0.0298 0.3214 0.6917, 0.0108 0.3233 0.6917, -0.075 0.3146 0.6917, -0.0916 0.3219 0.5315, -0.0883 0.3105 0.6917, -0.2017 0.2671 0.5315, -0.1948 0.2579 0.6917, -0.1919 0.2604 0.6917, -0.1492 0.2996 0.5315, -0.1554 0.2836 0.6917, -0.1439 0.289 0.6917, -0.1162 0.3018 0.6917, -0.2249 0.2325 0.6917, -0.2473 0.2254 0.5315, -0.2385 0.2174 0.6917, -0.2845 0.1762 0.5315, -0.2747 0.1701 0.6917, -0.2538 0.2005 0.6917, -0.312 0.1209 0.5315, -0.2978 0.1263 0.6917, -0.2783 0.1648 0.6917, -0.3206 0.0431 0.6917, -0.3173 0.0593 0.6917, -0.3289 0.0615 0.5315, -0.3119 0.0855 0.6917, -0.3011 0.1167 0.6917, -0.3234 0.0 0.6917, -0.3346 -0.0 0.5315, -0.3206 -0.0431 0.6917, -0.3289 -0.0615 0.5315, -0.3173 -0.0593 0.6917, -0.2845 -0.1762 0.5315, -0.2747 -0.1701 0.6917, -0.2783 -0.1648 0.6917, -0.312 -0.1209 0.5315, -0.2978 -0.1263 0.6917, -0.3011 -0.1167 0.6917, -0.3119 -0.0855 0.6917, -0.2538 -0.2005 0.6917, -0.2473 -0.2254 0.5315, -0.2385 -0.2174 0.6917, -0.2249 -0.2325 0.6917, -0.1554 -0.2836 0.6917, -0.1492 -0.2996 0.5315, -0.1439 -0.289 0.6917, -0.1162 -0.3018 0.6917, -0.0916 -0.3219 0.5315, -0.0883 -0.3105 0.6917, -0.0309 -0.3332 0.5315, -0.0298 -0.3219 0.6917, -0.0324 -0.3218 0.6917, -0.075 -0.3146 0.6917, 0.0108 -0.3233 0.6917, 0.0309 -0.3332 0.5315, 0.0298 -0.3214 0.6917, 0.0538 -0.3189 0.6917, 0.1361 -0.2934 0.6917, 0.1492 -0.2996 0.5315, 0.1439 -0.2891 0.6917, 0.174 -0.2726 0.6917, 0.2017 -0.2671 0.5315, 0.1945 -0.2575 0.6917, 0.2088 -0.247 0.6917, 0.2667 -0.1831 0.6917, 0.2845 -0.1762 0.5315, 0.2744 -0.1699 0.6917, 0.312 -0.1209 0.5315, 0.3289 -0.0615 0.5315, 0.317 -0.0644 0.6917, 0.3055 -0.1061 0.6917, 0.3011 -0.1166 0.6917, 0.2887 -0.1459 0.6917, 0.3234 0.0 0.6917, 0.3227 -0.0216 0.6917, 0.3176 -0.0594 0.6917, -0.2842 0.0 0.7283, -0.2816 -0.0379 0.7283, 0.0 0.0 0.7283, -0.2816 0.0379 0.7283, -0.2445 0.1448 0.7283, -0.2616 0.1109 0.7283, -0.2741 0.0751 0.7283, -0.1686 0.2288 0.7283, -0.1976 0.2043 0.7283, -0.223 0.1761 0.7283, -0.0659 0.2764 0.7283, -0.1021 0.2652 0.7283, -0.1366 0.2492 0.7283, 0.0473 0.2802 0.7283, 0.0095 0.284 0.7283, -0.0284 0.2827 0.7283, 0.1529 0.2395 0.7283, 0.1196 0.2578 0.7283, 0.0842 0.2714 0.7283, 0.2343 0.1608 0.7283, 0.2108 0.1906 0.7283, 0.1835 0.217 0.7283, 0.2785 0.0566 0.7283, 0.2684 0.0932 0.7283, 0.2536 0.1282 0.7283, 0.2785 -0.0566 0.7283, 0.2835 -0.019 0.7283, 0.2835 0.019 0.7283, 0.2343 -0.1608 0.7283, 0.2536 -0.1282 0.7283, 0.2684 -0.0932 0.7283, 0.1529 -0.2395 0.7283, 0.1835 -0.217 0.7283, 0.2108 -0.1906 0.7283, 0.0473 -0.2802 0.7283, 0.0842 -0.2714 0.7283, 0.1196 -0.2578 0.7283, -0.0659 -0.2764 0.7283, -0.0284 -0.2827 0.7283, 0.0095 -0.284 0.7283, -0.1686 -0.2288 0.7283, -0.1366 -0.2492 0.7283, -0.1021 -0.2652 0.7283, -0.2445 -0.1448 0.7283, -0.223 -0.1761 0.7283, -0.1976 -0.2043 0.7283, -0.2741 -0.0751 0.7283, -0.2616 -0.1109 0.7283, -0.2235 -0.2311 0.7014, -0.2523 -0.1993 0.7014, -0.2767 -0.1639 0.7014, -0.296 -0.1255 0.7014, -0.1907 -0.2589 0.7014, -0.1545 -0.282 0.7014, -0.1156 -0.3001 0.7014, -0.0745 -0.3128 0.7014, -0.0322 -0.3199 0.7014, 0.0107 -0.3214 0.7014, 0.0535 -0.3171 0.7014, 0.0953 -0.3071 0.7014, 0.1353 -0.2917 0.7014, 0.173 -0.271 0.7014, 0.2076 -0.2455 0.7014, 0.2385 -0.2157 0.7014, 0.2651 -0.182 0.7014, 0.287 -0.145 0.7014, 0.3037 -0.1055 0.7014, 0.3151 -0.064 0.7014, 0.3208 -0.0215 0.7014, 0.3208 0.0215 0.7014, 0.3151 0.064 0.7014, 0.3037 0.1055 0.7014, 0.287 0.145 0.7014, 0.2651 0.182 0.7014, 0.2385 0.2157 0.7014, 0.2076 0.2455 0.7014, 0.173 0.271 0.7014, 0.1353 0.2917 0.7014, 0.0953 0.3071 0.7014, 0.0535 0.3171 0.7014, 0.0107 0.3214 0.7014, -0.0322 0.3199 0.7014, -0.0745 0.3128 0.7014, -0.1156 0.3001 0.7014, -0.1545 0.282 0.7014, -0.1907 0.2589 0.7014, -0.2235 0.2311 0.7014, -0.2523 0.1993 0.7014, -0.2767 0.1639 0.7014, -0.296 0.1255 0.7014, -0.3101 0.0849 0.7014, -0.3187 0.0429 0.7014, -0.3215 0.0 0.7014, -0.3187 -0.0429 0.7014, -0.3101 -0.0849 0.7014, -0.3145 0.0423 0.7102, -0.306 0.0838 0.7102, -0.2921 0.1239 0.7102, -0.273 0.1617 0.7102, -0.249 0.1967 0.7102, -0.2206 0.2281 0.7102, -0.1882 0.2555 0.7102, -0.1525 0.2783 0.7102, -0.114 0.2961 0.7102, -0.0736 0.3087 0.7102, -0.0318 0.3157 0.7102, 0.0106 0.3171 0.7102, 0.0528 0.3129 0.7102, 0.094 0.3031 0.7102, 0.1336 0.2878 0.7102, 0.1707 0.2675 0.7102, 0.2049 0.2423 0.7102, 0.2353 0.2128 0.7102, 0.2616 0.1796 0.7102, 0.2832 0.1431 0.7102, 0.2998 0.1041 0.7102, 0.311 0.0632 0.7102, 0.3166 0.0212 0.7102, 0.3166 -0.0212 0.7102, 0.311 -0.0632 0.7102, 0.2998 -0.1041 0.7102, 0.2832 -0.1431 0.7102, 0.2616 -0.1796 0.7102, 0.2353 -0.2128 0.7102, 0.2049 -0.2423 0.7102, 0.1707 -0.2675 0.7102, 0.1336 -0.2878 0.7102, 0.094 -0.3031 0.7102, 0.0528 -0.3129 0.7102, 0.0106 -0.3171 0.7102, -0.0318 -0.3157 0.7102, -0.0736 -0.3087 0.7102, -0.114 -0.2961 0.7102, -0.1525 -0.2783 0.7102, -0.1882 -0.2555 0.7102, -0.2206 -0.2281 0.7102, -0.249 -0.1967 0.7102, -0.273 -0.1617 0.7102, -0.2921 -0.1239 0.7102, -0.306 -0.0838 0.7102, -0.3145 -0.0423 0.7102, -0.3173 0.0 0.7102, -0.3082 0.0415 0.7178, -0.3 0.0822 0.7178, -0.2863 0.1214 0.7178, -0.2676 0.1585 0.7178, -0.2441 0.1928 0.7178, -0.2162 0.2236 0.7178, -0.1845 0.2504 0.7178, -0.1495 0.2727 0.7178, -0.1118 0.2902 0.7178, -0.0721 0.3025 0.7178, -0.0311 0.3095 0.7178, 0.0104 0.3108 0.7178, 0.0517 0.3067 0.7178, 0.0921 0.2971 0.7178, 0.1309 0.2821 0.7178, 0.1674 0.2622 0.7178, 0.2008 0.2375 0.7178, 0.2307 0.2086 0.7178, 0.2564 0.176 0.7178, 0.2776 0.1403 0.7178, 0.2938 0.102 0.7178, 0.3048 0.062 0.7178, 0.3103 0.0208 0.7178, 0.3103 -0.0208 0.7178, 0.3048 -0.062 0.7178, 0.2938 -0.102 0.7178, 0.2776 -0.1403 0.7178, 0.2564 -0.176 0.7178, 0.2307 -0.2086 0.7178, 0.2008 -0.2375 0.7178, 0.1674 -0.2622 0.7178, 0.1309 -0.2821 0.7178, 0.0921 -0.2971 0.7178, 0.0517 -0.3067 0.7178, 0.0104 -0.3108 0.7178, -0.0311 -0.3095 0.7178, -0.0721 -0.3025 0.7178, -0.1118 -0.2902 0.7178, -0.1495 -0.2727 0.7178, -0.1845 -0.2504 0.7178, -0.2162 -0.2236 0.7178, -0.2441 -0.1928 0.7178, -0.2676 -0.1585 0.7178, -0.2863 -0.1214 0.7178, -0.3 -0.0822 0.7178, -0.3082 -0.0415 0.7178, -0.311 0.0 0.7178, -0.3003 0.0404 0.7235, -0.2923 0.0801 0.7235, -0.279 0.1183 0.7235, -0.2607 0.1544 0.7235, -0.2378 0.1878 0.7235, -0.2107 0.2178 0.7235, -0.1798 0.244 0.7235, -0.1456 0.2658 0.7235, -0.1089 0.2828 0.7235, -0.0703 0.2948 0.7235, -0.0303 0.3015 0.7235, 0.0101 0.3029 0.7235, 0.0504 0.2988 0.7235, 0.0898 0.2894 0.7235, 0.1276 0.2749 0.7235, 0.1631 0.2554 0.7235, 0.1957 0.2314 0.7235, 0.2248 0.2033 0.7235, 0.2499 0.1715 0.7235, 0.2705 0.1367 0.7235, 0.2863 0.0994 0.7235, 0.297 0.0604 0.7235, 0.3024 0.0202 0.7235, 0.3024 -0.0202 0.7235, 0.297 -0.0604 0.7235, 0.2863 -0.0994 0.7235, 0.2705 -0.1367 0.7235, 0.2499 -0.1715 0.7235, 0.2248 -0.2033 0.7235, 0.1957 -0.2314 0.7235, 0.1631 -0.2554 0.7235, 0.1276 -0.2749 0.7235, 0.0898 -0.2894 0.7235, 0.0504 -0.2988 0.7235, 0.0101 -0.3029 0.7235, -0.0303 -0.3015 0.7235, -0.0703 -0.2948 0.7235, -0.1089 -0.2828 0.7235, -0.1456 -0.2658 0.7235, -0.1798 -0.244 0.7235, -0.2107 -0.2178 0.7235, -0.2378 -0.1878 0.7235, -0.2607 -0.1544 0.7235, -0.279 -0.1183 0.7235, -0.2923 -0.0801 0.7235, -0.3003 -0.0404 0.7235, -0.3031 0.0 0.7235, -0.2913 0.0392 0.7271, -0.2835 0.0777 0.7271, -0.2706 0.1147 0.7271, -0.2529 0.1498 0.7271, -0.2307 0.1822 0.7271, -0.2043 0.2113 0.7271, -0.1743 0.2366 0.7271, -0.1412 0.2577 0.7271, -0.1056 0.2743 0.7271, -0.0681 0.2859 0.7271, -0.0294 0.2924 0.7271, 0.0098 0.2938 0.7271, 0.0489 0.2898 0.7271, 0.0871 0.2807 0.7271, 0.1237 0.2666 0.7271, 0.1581 0.2477 0.7271, 0.1898 0.2244 0.7271, 0.218 0.1972 0.7271, 0.2423 0.1663 0.7271, 0.2623 0.1326 0.7271, 0.2777 0.0964 0.7271, 0.288 0.0585 0.7271, 0.2933 0.0196 0.7271, 0.2933 -0.0196 0.7271, 0.288 -0.0585 0.7271, 0.2777 -0.0964 0.7271, 0.2623 -0.1326 0.7271, 0.2423 -0.1663 0.7271, 0.218 -0.1972 0.7271, 0.1898 -0.2244 0.7271, 0.1581 -0.2477 0.7271, 0.1237 -0.2666 0.7271, 0.0871 -0.2807 0.7271, 0.0489 -0.2898 0.7271, 0.0098 -0.2938 0.7271, -0.0294 -0.2924 0.7271, -0.0681 -0.2859 0.7271, -0.1056 -0.2743 0.7271, -0.1412 -0.2577 0.7271, -0.1743 -0.2366 0.7271, -0.2043 -0.2113 0.7271, -0.2307 -0.1822 0.7271, -0.2529 -0.1498 0.7271, -0.2706 -0.1147 0.7271, -0.2835 -0.0777 0.7271, -0.2913 -0.0392 0.7271, -0.2939 0.0 0.7271, 0.1075 0.3418 -0.0984, 0.1083 0.3543 -0.0, 0.1046 0.3263 -0.0, 0.0938 0.3002 -0.0, 0.1017 0.3173 -0.0984, 0.1039 0.3265 -0.0984, 0.0766 0.2778 -0.0, 0.0905 0.2948 -0.0984, 0.0933 0.3004 -0.0984, 0.028 0.2498 -0.0, 0.0311 0.2506 -0.0984, 0.0516 0.2595 -0.0, 0.0541 0.2606 -0.0984, 0.0541 0.2606 -0.0, 0.0743 0.2756 -0.0984, 0.0763 0.278 -0.0984, 0.0 0.2461 -0.0, 0.0063 0.2462 -0.0984, 0.028 0.2501 -0.0984, -0.0541 0.2606 -0.0, -0.0429 0.2549 -0.0984, -0.028 0.2498 -0.0, -0.0278 0.2504 -0.0984, -0.0204 0.2487 -0.0, -0.0188 0.2477 -0.0984, 0.0 0.2466 -0.0984, -0.0766 0.2778 -0.0, -0.0647 0.2675 -0.0984, -0.0538 0.2612 -0.0984, -0.0938 0.3002 -0.0, -0.0829 0.2847 -0.0984, -0.0761 0.2783 -0.0984, -0.1046 0.3263 -0.0, -0.0968 0.3057 -0.0984, -0.0933 0.3005 -0.0984, -0.1083 0.3543 -0.0, -0.1053 0.3294 -0.0984, -0.1043 0.3264 -0.0984, -0.1046 0.3824 -0.0, -0.1053 0.3793 -0.0984, -0.1083 0.3543 -0.0984, -0.0938 0.4085 -0.0, -0.0968 0.4029 -0.0984, -0.1043 0.3822 -0.0984, -0.0766 0.4309 -0.0, -0.0829 0.4239 -0.0984, -0.0933 0.4082 -0.0984, -0.0541 0.4481 -0.0, -0.0647 0.4412 -0.0984, -0.0761 0.4304 -0.0984, -0.028 0.4589 -0.0, -0.0429 0.4537 -0.0984, -0.0538 0.4475 -0.0984, 0.028 0.4589 -0.0, 0.0063 0.4624 -0.0984, 0.0 0.4626 -0.0, 0.0 0.4621 -0.0984, -0.0204 0.4599 -0.0, -0.0188 0.461 -0.0984, -0.0278 0.4583 -0.0984, 0.0766 0.4309 -0.0, 0.0743 0.4331 -0.0984, 0.0541 0.4481 -0.0, 0.0541 0.4481 -0.0984, 0.0516 0.4491 -0.0, 0.0311 0.458 -0.0984, 0.028 0.4586 -0.0984, 0.0938 0.4085 -0.0, 0.0905 0.4138 -0.0984, 0.0763 0.4307 -0.0984, 0.1046 0.3824 -0.0, 0.1017 0.3914 -0.0984, 0.0933 0.4082 -0.0984, 0.1075 0.3543 -0.0984, 0.1075 0.3669 -0.0984, 0.1039 0.3822 -0.0984, -0.0264 0.3411 -0.1772, -0.0287 0.3475 -0.1772, 0.0 0.3543 -0.1772, -0.0295 0.3543 -0.1772, -0.0287 0.3611 -0.1772, -0.0117 0.3272 -0.1772, -0.0176 0.3306 -0.1772, -0.0226 0.3354 -0.1772, 0.0085 0.326 -0.1772, 0.0017 0.3249 -0.1772, -0.0051 0.3253 -0.1772, 0.0247 0.3381 -0.1772, 0.0203 0.3329 -0.1772, 0.0148 0.3288 -0.1772, 0.0293 0.3578 -0.1772, 0.0293 0.3509 -0.1772, 0.0277 0.3442 -0.1772, 0.0203 0.3758 -0.1772, 0.0247 0.3706 -0.1772, 0.0277 0.3644 -0.1772, 0.0017 0.3838 -0.1772, 0.0085 0.3826 -0.1772, 0.0148 0.3799 -0.1772, -0.0176 0.378 -0.1772, -0.0117 0.3814 -0.1772, -0.0051 0.3834 -0.1772, -0.0264 0.3676 -0.1772, -0.0226 0.3733 -0.1772, 0.1075 -0.3669 -0.0984, 0.1083 -0.3543 -0.0, 0.1046 -0.3824 -0.0, 0.0938 -0.4085 -0.0, 0.1017 -0.3914 -0.0984, 0.1039 -0.3822 -0.0984, 0.0766 -0.4309 -0.0, 0.0905 -0.4138 -0.0984, 0.0933 -0.4082 -0.0984, 0.028 -0.4589 -0.0, 0.0311 -0.458 -0.0984, 0.0516 -0.4491 -0.0, 0.0541 -0.4481 -0.0984, 0.0541 -0.4481 -0.0, 0.0743 -0.4331 -0.0984, 0.0763 -0.4307 -0.0984, 0.0 -0.4626 -0.0, 0.0063 -0.4624 -0.0984, 0.028 -0.4586 -0.0984, -0.0541 -0.4481 -0.0, -0.0429 -0.4537 -0.0984, -0.028 -0.4589 -0.0, -0.0278 -0.4583 -0.0984, -0.0204 -0.4599 -0.0, -0.0188 -0.461 -0.0984, 0.0 -0.4621 -0.0984, -0.0766 -0.4309 -0.0, -0.0647 -0.4412 -0.0984, -0.0538 -0.4475 -0.0984, -0.0938 -0.4085 -0.0, -0.0829 -0.4239 -0.0984, -0.0761 -0.4304 -0.0984, -0.1046 -0.3824 -0.0, -0.0968 -0.4029 -0.0984, -0.0933 -0.4082 -0.0984, -0.1083 -0.3543 -0.0, -0.1053 -0.3793 -0.0984, -0.1043 -0.3822 -0.0984, -0.1046 -0.3263 -0.0, -0.1053 -0.3294 -0.0984, -0.1083 -0.3543 -0.0984, -0.0938 -0.3002 -0.0, -0.0968 -0.3057 -0.0984, -0.1043 -0.3264 -0.0984, -0.0766 -0.2778 -0.0, -0.0829 -0.2847 -0.0984, -0.0933 -0.3005 -0.0984, -0.0541 -0.2606 -0.0, -0.0647 -0.2675 -0.0984, -0.0761 -0.2783 -0.0984, -0.028 -0.2498 -0.0, -0.0429 -0.2549 -0.0984, -0.0538 -0.2612 -0.0984, 0.028 -0.2498 -0.0, 0.0063 -0.2462 -0.0984, 0.0 -0.2461 -0.0, 0.0 -0.2466 -0.0984, -0.0204 -0.2487 -0.0, -0.0188 -0.2477 -0.0984, -0.0278 -0.2504 -0.0984, 0.0766 -0.2778 -0.0, 0.0743 -0.2756 -0.0984, 0.0541 -0.2606 -0.0, 0.0541 -0.2606 -0.0984, 0.0516 -0.2595 -0.0, 0.0311 -0.2506 -0.0984, 0.028 -0.2501 -0.0984, 0.0938 -0.3002 -0.0, 0.0905 -0.2948 -0.0984, 0.0763 -0.278 -0.0984, 0.1046 -0.3263 -0.0, 0.1017 -0.3173 -0.0984, 0.0933 -0.3004 -0.0984, 0.1075 -0.3543 -0.0984, 0.1075 -0.3418 -0.0984, 0.1039 -0.3265 -0.0984, -0.0264 -0.3676 -0.1772, -0.0287 -0.3611 -0.1772, 0.0 -0.3543 -0.1772, -0.0295 -0.3543 -0.1772, -0.0287 -0.3475 -0.1772, -0.0117 -0.3814 -0.1772, -0.0176 -0.378 -0.1772, -0.0226 -0.3733 -0.1772, 0.0085 -0.3826 -0.1772, 0.0017 -0.3838 -0.1772, -0.0051 -0.3834 -0.1772, 0.0247 -0.3706 -0.1772, 0.0203 -0.3758 -0.1772, 0.0148 -0.3799 -0.1772, 0.0293 -0.3509 -0.1772, 0.0293 -0.3578 -0.1772, 0.0277 -0.3644 -0.1772, 0.0203 -0.3329 -0.1772, 0.0247 -0.3381 -0.1772, 0.0277 -0.3442 -0.1772, 0.0017 -0.3249 -0.1772, 0.0085 -0.326 -0.1772, 0.0148 -0.3288 -0.1772, -0.0176 -0.3306 -0.1772, -0.0117 -0.3272 -0.1772, -0.0051 -0.3253 -0.1772, -0.0264 -0.3411 -0.1772, -0.0226 -0.3354 -0.1772, -0.0944 -0.3069 -0.1188, -0.0809 -0.2865 -0.1188, -0.0631 -0.2696 -0.1188, -0.0183 -0.2504 -0.1188, 0.0061 -0.2489 -0.1188, 0.0303 -0.2532 -0.1188, 0.0882 -0.2963 -0.1188, 0.0992 -0.3182 -0.1188, 0.1049 -0.3421 -0.1188, 0.0992 -0.3904 -0.1188, 0.0882 -0.4124 -0.1188, 0.0725 -0.4311 -0.1188, 0.0061 -0.4597 -0.1188, -0.0183 -0.4583 -0.1188, -0.0418 -0.4513 -0.1188, -0.0809 -0.4222 -0.1188, -0.0944 -0.4017 -0.1188, -0.1027 -0.3787 -0.1188, -0.0298 -0.3944 -0.1745, -0.0198 -0.4002 -0.1745, -0.0411 -0.4096 -0.1666, -0.0273 -0.4176 -0.1666, -0.0509 -0.4227 -0.1541, -0.0337 -0.4326 -0.1541, -0.0584 -0.4327 -0.1378, -0.0387 -0.4441 -0.1378, -0.0631 -0.439 -0.1188, 0.0496 -0.3601 -0.1745, 0.0496 -0.3485 -0.1745, 0.0684 -0.3623 -0.1666, 0.0684 -0.3463 -0.1666, 0.0846 -0.3642 -0.1541, 0.0846 -0.3444 -0.1541, 0.0971 -0.3657 -0.1378, 0.0971 -0.343 -0.1378, 0.1049 -0.3666 -0.1188, -0.0198 -0.3085 -0.1745, -0.0298 -0.3143 -0.1745, -0.0273 -0.2911 -0.1666, -0.0411 -0.2991 -0.1666, -0.0337 -0.2761 -0.1541, -0.0509 -0.286 -0.1541, -0.0387 -0.2646 -0.1378, -0.0584 -0.2759 -0.1378, -0.0418 -0.2574 -0.1188, -0.0499 -0.3543 -0.1745, -0.0486 -0.3658 -0.1745, -0.0689 -0.3543 -0.1666, -0.067 -0.3702 -0.1666, -0.0852 -0.3543 -0.1541, -0.0829 -0.374 -0.1541, -0.0977 -0.3543 -0.1378, -0.0951 -0.3769 -0.1378, -0.1056 -0.3543 -0.1188, -0.0873 -0.3982 -0.1378, -0.0761 -0.3926 -0.1541, -0.0616 -0.3853 -0.1666, -0.0446 -0.3767 -0.1745, -0.0749 -0.4171 -0.1378, -0.0653 -0.4091 -0.1541, -0.0528 -0.3986 -0.1666, -0.0382 -0.3864 -0.1745, -0.017 -0.4506 -0.1378, -0.0148 -0.4382 -0.1541, -0.012 -0.4222 -0.1666, -0.0087 -0.4035 -0.1745, 0.0057 -0.4519 -0.1378, 0.005 -0.4394 -0.1541, 0.004 -0.4231 -0.1666, 0.0029 -0.4042 -0.1745, 0.0303 -0.4555 -0.1188, 0.028 -0.4479 -0.1378, 0.0244 -0.436 -0.1541, 0.0198 -0.4203 -0.1666, 0.0143 -0.4021 -0.1745, 0.025 -0.3976 -0.1745, 0.0344 -0.414 -0.1666, 0.0426 -0.4281 -0.1541, 0.0489 -0.439 -0.1378, 0.0528 -0.4458 -0.1188, 0.0342 -0.3906 -0.1745, 0.0473 -0.4044 -0.1666, 0.0585 -0.4163 -0.1541, 0.0671 -0.4254 -0.1378, 0.0816 -0.408 -0.1378, 0.0712 -0.4012 -0.1541, 0.0576 -0.3922 -0.1666, 0.0417 -0.3818 -0.1745, 0.0918 -0.3878 -0.1378, 0.0801 -0.3835 -0.1541, 0.0647 -0.3779 -0.1666, 0.0469 -0.3714 -0.1745, 0.0918 -0.3209 -0.1378, 0.0801 -0.3252 -0.1541, 0.0647 -0.3308 -0.1666, 0.0469 -0.3373 -0.1745, 0.0816 -0.3006 -0.1378, 0.0712 -0.3075 -0.1541, 0.0576 -0.3165 -0.1666, 0.0417 -0.3269 -0.1745, 0.0725 -0.2775 -0.1188, 0.0671 -0.2833 -0.1378, 0.0585 -0.2924 -0.1541, 0.0473 -0.3042 -0.1666, 0.0342 -0.318 -0.1745, 0.025 -0.3111 -0.1745, 0.0344 -0.2947 -0.1666, 0.0426 -0.2805 -0.1541, 0.0489 -0.2697 -0.1378, 0.0528 -0.2629 -0.1188, 0.0143 -0.3065 -0.1745, 0.0198 -0.2883 -0.1666, 0.0244 -0.2727 -0.1541, 0.028 -0.2607 -0.1378, 0.0057 -0.2568 -0.1378, 0.005 -0.2693 -0.1541, 0.004 -0.2855 -0.1666, 0.0029 -0.3045 -0.1745, -0.017 -0.2581 -0.1378, -0.0148 -0.2704 -0.1541, -0.012 -0.2865 -0.1666, -0.0087 -0.3052 -0.1745, -0.0749 -0.2915 -0.1378, -0.0653 -0.2996 -0.1541, -0.0528 -0.31 -0.1666, -0.0382 -0.3223 -0.1745, -0.0873 -0.3105 -0.1378, -0.0761 -0.3161 -0.1541, -0.0616 -0.3234 -0.1666, -0.0446 -0.3319 -0.1745, -0.1027 -0.33 -0.1188, -0.0951 -0.3318 -0.1378, -0.0829 -0.3347 -0.1541, -0.067 -0.3384 -0.1666, -0.0486 -0.3428 -0.1745, -0.0944 0.4017 -0.1188, -0.0809 0.4222 -0.1188, -0.0631 0.439 -0.1188, -0.0183 0.4583 -0.1188, 0.0061 0.4597 -0.1188, 0.0303 0.4555 -0.1188, 0.0882 0.4124 -0.1188, 0.0992 0.3904 -0.1188, 0.1049 0.3666 -0.1188, 0.0992 0.3182 -0.1188, 0.0882 0.2963 -0.1188, 0.0725 0.2775 -0.1188, 0.0061 0.2489 -0.1188, -0.0183 0.2504 -0.1188, -0.0418 0.2574 -0.1188, -0.0809 0.2865 -0.1188, -0.0944 0.3069 -0.1188, -0.1027 0.33 -0.1188, -0.0298 0.3143 -0.1745, -0.0198 0.3085 -0.1745, -0.0411 0.2991 -0.1666, -0.0273 0.2911 -0.1666, -0.0509 0.286 -0.1541, -0.0337 0.2761 -0.1541, -0.0584 0.2759 -0.1378, -0.0387 0.2646 -0.1378, -0.0631 0.2696 -0.1188, 0.0496 0.3485 -0.1745, 0.0496 0.3601 -0.1745, 0.0684 0.3463 -0.1666, 0.0684 0.3623 -0.1666, 0.0846 0.3444 -0.1541, 0.0846 0.3642 -0.1541, 0.0971 0.343 -0.1378, 0.0971 0.3657 -0.1378, 0.1049 0.3421 -0.1188, -0.0198 0.4002 -0.1745, -0.0298 0.3944 -0.1745, -0.0273 0.4176 -0.1666, -0.0411 0.4096 -0.1666, -0.0337 0.4326 -0.1541, -0.0509 0.4227 -0.1541, -0.0387 0.4441 -0.1378, -0.0584 0.4327 -0.1378, -0.0418 0.4513 -0.1188, -0.0499 0.3543 -0.1745, -0.0486 0.3428 -0.1745, -0.0689 0.3543 -0.1666, -0.067 0.3384 -0.1666, -0.0852 0.3543 -0.1541, -0.0829 0.3347 -0.1541, -0.0977 0.3543 -0.1378, -0.0951 0.3318 -0.1378, -0.1056 0.3543 -0.1188, -0.0873 0.3105 -0.1378, -0.0761 0.3161 -0.1541, -0.0616 0.3234 -0.1666, -0.0446 0.3319 -0.1745, -0.0749 0.2915 -0.1378, -0.0653 0.2996 -0.1541, -0.0528 0.31 -0.1666, -0.0382 0.3223 -0.1745, -0.017 0.2581 -0.1378, -0.0148 0.2704 -0.1541, -0.012 0.2865 -0.1666, -0.0087 0.3052 -0.1745, 0.0057 0.2568 -0.1378, 0.005 0.2693 -0.1541, 0.004 0.2855 -0.1666, 0.0029 0.3045 -0.1745, 0.0303 0.2532 -0.1188, 0.028 0.2607 -0.1378, 0.0244 0.2727 -0.1541, 0.0198 0.2883 -0.1666, 0.0143 0.3065 -0.1745, 0.025 0.3111 -0.1745, 0.0344 0.2947 -0.1666, 0.0426 0.2805 -0.1541, 0.0489 0.2697 -0.1378, 0.0528 0.2629 -0.1188, 0.0342 0.318 -0.1745, 0.0473 0.3042 -0.1666, 0.0585 0.2924 -0.1541, 0.0671 0.2833 -0.1378, 0.0816 0.3006 -0.1378, 0.0712 0.3075 -0.1541, 0.0576 0.3165 -0.1666, 0.0417 0.3269 -0.1745, 0.0918 0.3209 -0.1378, 0.0801 0.3252 -0.1541, 0.0647 0.3308 -0.1666, 0.0469 0.3373 -0.1745, 0.0918 0.3878 -0.1378, 0.0801 0.3835 -0.1541, 0.0647 0.3779 -0.1666, 0.0469 0.3714 -0.1745, 0.0816 0.408 -0.1378, 0.0712 0.4012 -0.1541, 0.0576 0.3922 -0.1666, 0.0417 0.3818 -0.1745, 0.0725 0.4311 -0.1188, 0.0671 0.4254 -0.1378, 0.0585 0.4163 -0.1541, 0.0473 0.4044 -0.1666, 0.0342 0.3906 -0.1745, 0.025 0.3976 -0.1745, 0.0344 0.414 -0.1666, 0.0426 0.4281 -0.1541, 0.0489 0.439 -0.1378, 0.0528 0.4458 -0.1188, 0.0143 0.4021 -0.1745, 0.0198 0.4203 -0.1666, 0.0244 0.436 -0.1541, 0.028 0.4479 -0.1378, 0.0057 0.4519 -0.1378, 0.005 0.4394 -0.1541, 0.004 0.4231 -0.1666, 0.0029 0.4042 -0.1745, -0.017 0.4506 -0.1378, -0.0148 0.4382 -0.1541, -0.012 0.4222 -0.1666, -0.0087 0.4035 -0.1745, -0.0749 0.4171 -0.1378, -0.0653 0.4091 -0.1541, -0.0528 0.3986 -0.1666, -0.0382 0.3864 -0.1745, -0.0873 0.3982 -0.1378, -0.0761 0.3926 -0.1541, -0.0616 0.3853 -0.1666, -0.0446 0.3767 -0.1745, -0.1027 0.3787 -0.1188, -0.0951 0.3769 -0.1378, -0.0829 0.374 -0.1541, -0.067 0.3702 -0.1666, -0.0486 0.3658 -0.1745
            ]
        }
        coordIndex [
            0,1,2,-1,2,1,3,-1,1,4,3,-1,3,4,5,-1,4,6,5,-1,5,6,7,-1,6,8,7,-1,7,8,9,-1,8,10,9,-1,9,10,11,-1,10,12,11,-1,11,12,13,-1,12,14,13,-1,13,14,15,-1,14,0,15,-1,15,0,2,-1,16,8,17,-1,17,8,6,-1,18,14,16,-1,16,14,12,-1,16,12,8,-1,8,12,10,-1,18,19,14,-1,14,19,20,-1,14,20,0,-1,0,20,21,-1,0,21,22,-1,22,23,0,-1,0,23,17,-1,0,17,1,-1,1,17,6,-1,1,6,4,-1,16,17,24,-1,24,17,25,-1,18,16,26,-1,26,16,24,-1,18,26,27,-1,18,27,19,-1,19,27,28,-1,19,28,20,-1,21,20,29,-1,29,20,28,-1,21,29,30,-1,21,30,22,-1,22,30,31,-1,22,31,23,-1,17,23,25,-1,25,23,31,-1,32,33,34,-1,34,33,35,-1,33,36,35,-1,35,36,37,-1,36,38,37,-1,37,38,39,-1,40,41,42,-1,42,41,43,-1,43,44,42,-1,42,44,45,-1,42,45,46,-1,46,45,47,-1,46,47,48,-1,48,47,49,-1,48,49,50,-1,50,49,51,-1,50,51,52,-1,52,51,53,-1,52,53,54,-1,54,53,55,-1,54,55,56,-1,56,55,39,-1,56,39,38,-1,32,34,57,-1,32,57,58,-1,58,57,59,-1,58,59,60,-1,60,59,61,-1,60,61,62,-1,62,61,63,-1,62,63,64,-1,64,63,65,-1,64,65,66,-1,66,65,67,-1,66,67,68,-1,68,67,40,-1,40,67,69,-1,40,69,41,-1,46,48,70,-1,70,48,50,-1,70,50,71,-1,71,50,52,-1,71,52,72,-1,72,52,54,-1,72,54,73,-1,73,54,56,-1,73,56,74,-1,74,56,38,-1,74,38,75,-1,75,38,36,-1,75,36,76,-1,76,36,33,-1,76,33,77,-1,77,33,32,-1,77,32,78,-1,78,32,58,-1,78,58,79,-1,79,58,60,-1,79,60,80,-1,80,60,62,-1,80,62,81,-1,81,62,64,-1,81,64,82,-1,82,64,66,-1,82,66,83,-1,83,66,68,-1,83,68,84,-1,84,68,40,-1,84,40,85,-1,85,40,42,-1,85,42,86,-1,86,42,46,-1,86,46,70,-1,74,75,87,-1,87,75,88,-1,74,87,89,-1,74,89,73,-1,73,89,90,-1,73,90,72,-1,72,90,91,-1,72,91,71,-1,71,91,92,-1,71,92,70,-1,70,92,93,-1,70,93,86,-1,86,93,94,-1,86,94,85,-1,85,94,95,-1,85,95,84,-1,84,95,96,-1,84,96,83,-1,83,96,97,-1,83,97,82,-1,82,97,98,-1,82,98,81,-1,81,98,99,-1,81,99,80,-1,80,99,100,-1,80,100,79,-1,79,100,101,-1,79,101,78,-1,78,101,102,-1,78,102,77,-1,76,77,103,-1,103,77,102,-1,75,76,88,-1,88,76,103,-1,104,105,106,-1,106,105,107,-1,105,108,107,-1,107,108,109,-1,108,110,109,-1,109,110,111,-1,110,112,111,-1,111,112,113,-1,112,114,113,-1,113,114,115,-1,114,116,115,-1,115,116,117,-1,116,118,117,-1,117,118,119,-1,118,120,119,-1,119,120,121,-1,120,122,121,-1,121,122,123,-1,122,124,123,-1,123,124,125,-1,124,126,125,-1,125,126,127,-1,126,104,127,-1,127,104,106,-1,108,105,104,-1,104,126,108,-1,108,126,124,-1,108,124,110,-1,114,112,116,-1,116,112,110,-1,116,110,118,-1,118,110,124,-1,118,124,120,-1,120,124,122,-1,128,129,130,-1,130,129,131,-1,131,129,132,-1,133,134,135,-1,133,135,136,-1,136,135,137,-1,136,137,132,-1,132,137,138,-1,132,138,131,-1,139,140,141,-1,141,140,142,-1,141,142,143,-1,143,142,144,-1,143,144,145,-1,146,147,139,-1,139,147,148,-1,139,148,140,-1,146,149,147,-1,147,149,150,-1,147,150,151,-1,151,150,152,-1,151,152,153,-1,153,152,133,-1,133,152,154,-1,133,154,134,-1,155,156,157,-1,157,156,158,-1,158,159,157,-1,157,159,160,-1,157,160,161,-1,161,160,162,-1,163,164,162,-1,162,164,165,-1,162,165,161,-1,163,166,164,-1,164,166,167,-1,164,167,168,-1,168,167,169,-1,168,169,170,-1,170,169,145,-1,170,145,144,-1,156,155,171,-1,171,155,172,-1,171,172,173,-1,173,172,174,-1,173,174,175,-1,174,176,175,-1,175,176,177,-1,178,179,180,-1,178,180,181,-1,181,180,177,-1,181,177,176,-1,182,183,184,-1,182,184,185,-1,185,184,186,-1,185,186,187,-1,187,186,188,-1,187,188,189,-1,189,188,190,-1,189,190,191,-1,191,190,192,-1,191,192,193,-1,193,192,194,-1,193,194,195,-1,195,194,179,-1,195,179,178,-1,196,197,198,-1,196,198,199,-1,199,198,200,-1,199,200,201,-1,201,200,202,-1,201,202,203,-1,203,202,204,-1,203,204,205,-1,205,204,206,-1,205,206,207,-1,207,206,208,-1,207,208,209,-1,209,208,183,-1,209,183,182,-1,128,130,210,-1,128,210,211,-1,211,210,212,-1,211,212,213,-1,213,212,197,-1,213,197,196,-1,199,133,196,-1,196,133,136,-1,196,136,213,-1,213,136,132,-1,213,132,211,-1,211,132,129,-1,211,129,128,-1,176,174,181,-1,181,174,172,-1,181,172,178,-1,178,172,155,-1,178,155,195,-1,195,155,157,-1,195,157,193,-1,193,157,161,-1,193,161,191,-1,191,161,165,-1,191,165,189,-1,189,165,164,-1,189,164,187,-1,187,164,168,-1,187,168,185,-1,185,168,170,-1,185,170,182,-1,182,170,144,-1,182,144,209,-1,209,144,142,-1,209,142,207,-1,207,142,140,-1,207,140,205,-1,205,140,148,-1,205,148,203,-1,203,148,147,-1,203,147,201,-1,201,147,151,-1,201,151,199,-1,199,151,153,-1,199,153,133,-1,214,215,216,-1,216,215,217,-1,215,218,217,-1,217,218,219,-1,218,220,219,-1,219,220,221,-1,220,222,221,-1,221,222,223,-1,222,224,223,-1,223,224,225,-1,224,214,225,-1,225,214,216,-1,222,220,224,-1,224,220,218,-1,224,218,214,-1,214,218,215,-1,24,25,26,-1,26,25,31,-1,26,31,27,-1,27,31,30,-1,27,30,28,-1,28,30,29,-1,88,103,87,-1,87,103,102,-1,87,102,101,-1,95,94,87,-1,87,94,93,-1,87,93,89,-1,101,100,87,-1,87,100,99,-1,87,99,98,-1,98,97,87,-1,87,97,96,-1,87,96,95,-1,92,91,93,-1,93,91,90,-1,93,90,89,-1,226,227,228,-1,229,230,231,-1,232,233,234,-1,235,236,237,-1,238,239,240,-1,240,239,241,-1,240,241,242,-1,242,241,243,-1,243,241,244,-1,243,244,245,-1,245,244,246,-1,246,244,247,-1,246,247,248,-1,249,250,251,-1,249,251,247,-1,247,251,252,-1,247,252,248,-1,250,249,253,-1,253,249,254,-1,253,254,255,-1,256,257,258,-1,256,258,259,-1,258,260,259,-1,259,260,261,-1,259,261,254,-1,254,261,262,-1,254,262,255,-1,257,256,263,-1,263,256,264,-1,263,264,265,-1,237,236,264,-1,264,236,266,-1,264,266,265,-1,235,237,267,-1,267,237,268,-1,267,268,269,-1,270,271,272,-1,270,272,273,-1,272,274,273,-1,273,274,275,-1,273,275,268,-1,268,275,276,-1,268,276,269,-1,271,270,277,-1,277,270,278,-1,277,278,279,-1,280,281,278,-1,278,281,282,-1,278,282,279,-1,283,284,280,-1,280,284,285,-1,280,285,281,-1,286,287,288,-1,288,287,289,-1,288,289,283,-1,283,289,290,-1,283,290,284,-1,286,288,291,-1,291,288,292,-1,291,292,293,-1,293,292,294,-1,293,294,295,-1,296,297,298,-1,296,298,299,-1,298,300,299,-1,299,300,301,-1,299,301,294,-1,294,301,302,-1,294,302,295,-1,297,296,303,-1,303,296,304,-1,303,304,305,-1,234,233,304,-1,304,233,306,-1,304,306,305,-1,232,234,307,-1,307,234,308,-1,307,308,309,-1,309,308,310,-1,310,308,311,-1,310,311,312,-1,313,314,315,-1,313,315,311,-1,311,315,316,-1,311,316,312,-1,314,313,317,-1,317,313,318,-1,317,318,319,-1,231,230,318,-1,318,230,320,-1,318,320,319,-1,229,231,321,-1,321,231,322,-1,321,322,323,-1,323,322,324,-1,324,322,325,-1,324,325,326,-1,228,227,325,-1,325,227,327,-1,325,327,326,-1,226,228,328,-1,328,228,329,-1,328,329,330,-1,331,332,333,-1,333,334,331,-1,331,334,335,-1,331,335,329,-1,329,335,336,-1,329,336,330,-1,238,337,239,-1,239,337,338,-1,239,338,332,-1,332,338,339,-1,332,339,333,-1,340,341,342,-1,340,342,343,-1,344,345,342,-1,342,345,346,-1,342,346,343,-1,347,348,342,-1,342,348,349,-1,342,349,344,-1,350,351,342,-1,342,351,352,-1,342,352,347,-1,353,354,342,-1,342,354,355,-1,342,355,350,-1,356,357,342,-1,342,357,358,-1,342,358,353,-1,359,360,342,-1,342,360,361,-1,342,361,356,-1,362,363,342,-1,342,363,364,-1,342,364,359,-1,365,366,342,-1,342,366,367,-1,342,367,362,-1,368,369,342,-1,342,369,370,-1,342,370,365,-1,371,372,342,-1,342,372,373,-1,342,373,368,-1,374,375,342,-1,342,375,376,-1,342,376,371,-1,377,378,342,-1,342,378,379,-1,342,379,374,-1,380,381,342,-1,342,381,382,-1,342,382,377,-1,383,384,342,-1,342,384,385,-1,342,385,380,-1,341,386,342,-1,342,386,387,-1,342,387,383,-1,305,388,303,-1,303,388,389,-1,303,389,297,-1,297,389,390,-1,297,390,298,-1,298,390,391,-1,298,391,300,-1,305,306,388,-1,388,306,233,-1,388,233,392,-1,233,232,392,-1,392,232,307,-1,392,307,393,-1,393,307,309,-1,393,309,394,-1,394,309,310,-1,394,310,395,-1,395,310,312,-1,312,316,395,-1,395,316,315,-1,395,315,396,-1,396,315,314,-1,396,314,397,-1,314,317,397,-1,397,317,319,-1,397,319,398,-1,398,319,320,-1,398,320,399,-1,399,320,230,-1,230,229,399,-1,399,229,321,-1,399,321,400,-1,400,321,323,-1,400,323,401,-1,401,323,324,-1,401,324,402,-1,402,324,326,-1,326,327,402,-1,402,327,227,-1,402,227,403,-1,227,226,403,-1,403,226,328,-1,403,328,404,-1,404,328,330,-1,404,330,405,-1,405,330,336,-1,405,336,406,-1,406,336,335,-1,335,334,406,-1,406,334,333,-1,406,333,407,-1,407,333,339,-1,407,339,408,-1,339,338,408,-1,408,338,337,-1,408,337,409,-1,337,238,409,-1,409,238,240,-1,409,240,410,-1,240,242,410,-1,410,242,243,-1,410,243,411,-1,411,243,245,-1,411,245,412,-1,412,245,246,-1,412,246,413,-1,413,246,248,-1,248,252,413,-1,413,252,251,-1,413,251,414,-1,414,251,250,-1,414,250,415,-1,250,253,415,-1,415,253,255,-1,415,255,416,-1,416,255,262,-1,416,262,417,-1,417,262,261,-1,261,260,417,-1,417,260,258,-1,417,258,418,-1,418,258,257,-1,418,257,419,-1,419,257,263,-1,419,263,420,-1,420,263,265,-1,265,266,420,-1,420,266,236,-1,420,236,421,-1,236,235,421,-1,421,235,267,-1,421,267,422,-1,422,267,269,-1,422,269,423,-1,423,269,276,-1,423,276,424,-1,424,276,275,-1,275,274,424,-1,424,274,272,-1,424,272,425,-1,425,272,271,-1,425,271,426,-1,271,277,426,-1,426,277,279,-1,426,279,427,-1,427,279,282,-1,427,282,428,-1,428,282,281,-1,281,285,428,-1,428,285,284,-1,428,284,429,-1,429,284,290,-1,429,290,430,-1,430,290,289,-1,430,289,431,-1,431,289,287,-1,287,286,431,-1,431,286,291,-1,431,291,432,-1,432,291,293,-1,432,293,433,-1,433,293,295,-1,433,295,434,-1,434,295,302,-1,434,302,391,-1,391,302,301,-1,391,301,300,-1,432,435,431,-1,431,435,436,-1,431,436,430,-1,430,436,437,-1,430,437,429,-1,429,437,438,-1,429,438,428,-1,428,438,439,-1,428,439,427,-1,427,439,440,-1,427,440,426,-1,426,440,441,-1,426,441,425,-1,425,441,442,-1,425,442,424,-1,424,442,443,-1,424,443,423,-1,423,443,444,-1,423,444,422,-1,422,444,445,-1,422,445,421,-1,421,445,446,-1,421,446,420,-1,420,446,447,-1,420,447,419,-1,419,447,448,-1,419,448,418,-1,418,448,449,-1,418,449,417,-1,417,449,450,-1,417,450,416,-1,416,450,451,-1,416,451,415,-1,415,451,452,-1,415,452,414,-1,414,452,453,-1,414,453,413,-1,413,453,454,-1,413,454,412,-1,412,454,455,-1,412,455,411,-1,411,455,456,-1,411,456,410,-1,410,456,457,-1,410,457,409,-1,409,457,458,-1,409,458,408,-1,408,458,459,-1,408,459,407,-1,407,459,460,-1,407,460,406,-1,406,460,461,-1,406,461,405,-1,405,461,462,-1,405,462,404,-1,404,462,463,-1,404,463,403,-1,403,463,464,-1,403,464,402,-1,402,464,465,-1,402,465,401,-1,401,465,466,-1,401,466,400,-1,400,466,467,-1,400,467,399,-1,399,467,468,-1,399,468,398,-1,398,468,469,-1,398,469,397,-1,397,469,470,-1,397,470,396,-1,396,470,471,-1,396,471,395,-1,395,471,472,-1,395,472,394,-1,394,472,473,-1,394,473,393,-1,393,473,474,-1,393,474,392,-1,392,474,475,-1,392,475,388,-1,388,475,476,-1,388,476,389,-1,389,476,477,-1,389,477,390,-1,390,477,478,-1,390,478,391,-1,391,478,479,-1,391,479,434,-1,434,479,480,-1,434,480,433,-1,433,480,481,-1,433,481,432,-1,432,481,435,-1,481,482,435,-1,435,482,483,-1,435,483,436,-1,436,483,484,-1,436,484,437,-1,437,484,485,-1,437,485,438,-1,438,485,486,-1,438,486,439,-1,439,486,487,-1,439,487,440,-1,440,487,488,-1,440,488,441,-1,441,488,489,-1,441,489,442,-1,442,489,490,-1,442,490,443,-1,443,490,491,-1,443,491,444,-1,444,491,492,-1,444,492,445,-1,445,492,493,-1,445,493,446,-1,446,493,494,-1,446,494,447,-1,447,494,495,-1,447,495,448,-1,448,495,496,-1,448,496,449,-1,449,496,497,-1,449,497,450,-1,450,497,498,-1,450,498,451,-1,451,498,499,-1,451,499,452,-1,452,499,500,-1,452,500,453,-1,453,500,501,-1,453,501,454,-1,454,501,502,-1,454,502,455,-1,455,502,503,-1,455,503,456,-1,456,503,504,-1,456,504,457,-1,457,504,505,-1,457,505,458,-1,458,505,506,-1,458,506,459,-1,459,506,507,-1,459,507,460,-1,460,507,508,-1,460,508,461,-1,461,508,509,-1,461,509,462,-1,462,509,510,-1,462,510,463,-1,463,510,511,-1,463,511,464,-1,464,511,512,-1,464,512,465,-1,465,512,513,-1,465,513,466,-1,466,513,514,-1,466,514,467,-1,467,514,515,-1,467,515,468,-1,468,515,516,-1,468,516,469,-1,469,516,517,-1,469,517,470,-1,470,517,518,-1,470,518,471,-1,471,518,519,-1,471,519,472,-1,472,519,520,-1,472,520,473,-1,473,520,521,-1,473,521,474,-1,474,521,522,-1,474,522,475,-1,475,522,523,-1,475,523,476,-1,476,523,524,-1,476,524,477,-1,477,524,525,-1,477,525,478,-1,478,525,526,-1,478,526,479,-1,479,526,527,-1,479,527,480,-1,480,527,528,-1,480,528,481,-1,481,528,482,-1,528,529,482,-1,482,529,530,-1,482,530,483,-1,483,530,531,-1,483,531,484,-1,484,531,532,-1,484,532,485,-1,485,532,533,-1,485,533,486,-1,486,533,534,-1,486,534,487,-1,487,534,535,-1,487,535,488,-1,488,535,536,-1,488,536,489,-1,489,536,537,-1,489,537,490,-1,490,537,538,-1,490,538,491,-1,491,538,539,-1,491,539,492,-1,492,539,540,-1,492,540,493,-1,493,540,541,-1,493,541,494,-1,494,541,542,-1,494,542,495,-1,495,542,543,-1,495,543,496,-1,496,543,544,-1,496,544,497,-1,497,544,545,-1,497,545,498,-1,498,545,546,-1,498,546,499,-1,499,546,547,-1,499,547,500,-1,500,547,548,-1,500,548,501,-1,501,548,549,-1,501,549,502,-1,502,549,550,-1,502,550,503,-1,503,550,551,-1,503,551,504,-1,504,551,552,-1,504,552,505,-1,505,552,553,-1,505,553,506,-1,506,553,554,-1,506,554,507,-1,507,554,555,-1,507,555,508,-1,508,555,556,-1,508,556,509,-1,509,556,557,-1,509,557,510,-1,510,557,558,-1,510,558,511,-1,511,558,559,-1,511,559,512,-1,512,559,560,-1,512,560,513,-1,513,560,561,-1,513,561,514,-1,514,561,562,-1,514,562,515,-1,515,562,563,-1,515,563,516,-1,516,563,564,-1,516,564,517,-1,517,564,565,-1,517,565,518,-1,518,565,566,-1,518,566,519,-1,519,566,567,-1,519,567,520,-1,520,567,568,-1,520,568,521,-1,521,568,569,-1,521,569,522,-1,522,569,570,-1,522,570,523,-1,523,570,571,-1,523,571,524,-1,524,571,572,-1,524,572,525,-1,525,572,573,-1,525,573,526,-1,526,573,574,-1,526,574,527,-1,527,574,575,-1,527,575,528,-1,528,575,529,-1,575,576,529,-1,529,576,577,-1,529,577,530,-1,530,577,578,-1,530,578,531,-1,531,578,579,-1,531,579,532,-1,532,579,580,-1,532,580,533,-1,533,580,581,-1,533,581,534,-1,534,581,582,-1,534,582,535,-1,535,582,583,-1,535,583,536,-1,536,583,584,-1,536,584,537,-1,537,584,585,-1,537,585,538,-1,538,585,586,-1,538,586,539,-1,539,586,587,-1,539,587,540,-1,540,587,588,-1,540,588,541,-1,541,588,589,-1,541,589,542,-1,542,589,590,-1,542,590,543,-1,543,590,591,-1,543,591,544,-1,544,591,592,-1,544,592,545,-1,545,592,593,-1,545,593,546,-1,546,593,594,-1,546,594,547,-1,547,594,595,-1,547,595,548,-1,548,595,596,-1,548,596,549,-1,549,596,597,-1,549,597,550,-1,550,597,598,-1,550,598,551,-1,551,598,599,-1,551,599,552,-1,552,599,600,-1,552,600,553,-1,553,600,601,-1,553,601,554,-1,554,601,602,-1,554,602,555,-1,555,602,603,-1,555,603,556,-1,556,603,604,-1,556,604,557,-1,557,604,605,-1,557,605,558,-1,558,605,606,-1,558,606,559,-1,559,606,607,-1,559,607,560,-1,560,607,608,-1,560,608,561,-1,561,608,609,-1,561,609,562,-1,562,609,610,-1,562,610,563,-1,563,610,611,-1,563,611,564,-1,564,611,612,-1,564,612,565,-1,565,612,613,-1,565,613,566,-1,566,613,614,-1,566,614,567,-1,567,614,615,-1,567,615,568,-1,568,615,616,-1,568,616,569,-1,569,616,617,-1,569,617,570,-1,570,617,618,-1,570,618,571,-1,571,618,619,-1,571,619,572,-1,572,619,620,-1,572,620,573,-1,573,620,621,-1,573,621,574,-1,574,621,622,-1,574,622,575,-1,575,622,576,-1,622,343,576,-1,576,343,346,-1,576,346,577,-1,577,346,345,-1,577,345,578,-1,578,345,344,-1,578,344,579,-1,579,344,349,-1,579,349,580,-1,580,349,348,-1,580,348,581,-1,581,348,347,-1,581,347,582,-1,582,347,352,-1,582,352,583,-1,583,352,351,-1,583,351,584,-1,584,351,350,-1,584,350,585,-1,585,350,355,-1,585,355,586,-1,586,355,354,-1,586,354,587,-1,587,354,353,-1,587,353,588,-1,588,353,358,-1,588,358,589,-1,589,358,357,-1,589,357,590,-1,590,357,356,-1,590,356,591,-1,591,356,361,-1,591,361,592,-1,592,361,360,-1,592,360,593,-1,593,360,359,-1,593,359,594,-1,594,359,364,-1,594,364,595,-1,595,364,363,-1,595,363,596,-1,596,363,362,-1,596,362,597,-1,597,362,367,-1,597,367,598,-1,598,367,366,-1,598,366,599,-1,599,366,365,-1,599,365,600,-1,600,365,370,-1,600,370,601,-1,601,370,369,-1,601,369,602,-1,602,369,368,-1,602,368,603,-1,603,368,373,-1,603,373,604,-1,604,373,372,-1,604,372,605,-1,605,372,371,-1,605,371,606,-1,606,371,376,-1,606,376,607,-1,607,376,375,-1,607,375,608,-1,608,375,374,-1,608,374,609,-1,609,374,379,-1,609,379,610,-1,610,379,378,-1,610,378,611,-1,611,378,377,-1,611,377,612,-1,612,377,382,-1,612,382,613,-1,613,382,381,-1,613,381,614,-1,614,381,380,-1,614,380,615,-1,615,380,385,-1,615,385,616,-1,616,385,384,-1,616,384,617,-1,617,384,383,-1,617,383,618,-1,618,383,387,-1,618,387,619,-1,619,387,386,-1,619,386,620,-1,620,386,341,-1,620,341,621,-1,621,341,340,-1,621,340,622,-1,622,340,343,-1,623,624,625,-1,626,627,625,-1,625,627,628,-1,625,628,623,-1,629,630,626,-1,626,630,631,-1,626,631,627,-1,632,633,634,-1,634,633,635,-1,634,635,636,-1,636,635,637,-1,636,637,629,-1,629,637,638,-1,629,638,630,-1,639,640,632,-1,632,640,641,-1,632,641,633,-1,642,643,644,-1,644,643,645,-1,644,645,646,-1,646,645,647,-1,646,647,639,-1,639,647,648,-1,639,648,640,-1,649,650,642,-1,642,650,651,-1,642,651,643,-1,652,653,649,-1,649,653,654,-1,649,654,650,-1,655,656,652,-1,652,656,657,-1,652,657,653,-1,658,659,655,-1,655,659,660,-1,655,660,656,-1,661,662,658,-1,658,662,663,-1,658,663,659,-1,664,665,661,-1,661,665,666,-1,661,666,662,-1,667,668,664,-1,664,668,669,-1,664,669,665,-1,670,671,667,-1,667,671,672,-1,667,672,668,-1,673,674,670,-1,670,674,675,-1,670,675,671,-1,676,677,678,-1,678,677,679,-1,678,679,680,-1,680,679,681,-1,680,681,673,-1,673,681,682,-1,673,682,674,-1,683,684,685,-1,685,684,686,-1,685,686,687,-1,687,686,688,-1,687,688,676,-1,676,688,689,-1,676,689,677,-1,690,691,683,-1,683,691,692,-1,683,692,684,-1,693,694,690,-1,690,694,695,-1,690,695,691,-1,623,696,624,-1,624,696,697,-1,624,697,693,-1,693,697,698,-1,693,698,694,-1,699,700,701,-1,701,700,702,-1,701,702,703,-1,704,705,701,-1,701,705,706,-1,701,706,699,-1,707,708,701,-1,701,708,709,-1,701,709,704,-1,710,711,701,-1,701,711,712,-1,701,712,707,-1,713,714,701,-1,701,714,715,-1,701,715,710,-1,716,717,701,-1,701,717,718,-1,701,718,713,-1,719,720,701,-1,701,720,721,-1,701,721,716,-1,722,723,701,-1,701,723,724,-1,701,724,719,-1,703,725,701,-1,701,725,726,-1,701,726,722,-1,727,728,729,-1,730,731,729,-1,729,731,732,-1,729,732,727,-1,733,734,730,-1,730,734,735,-1,730,735,731,-1,736,737,738,-1,738,737,739,-1,738,739,740,-1,740,739,741,-1,740,741,733,-1,733,741,742,-1,733,742,734,-1,743,744,736,-1,736,744,745,-1,736,745,737,-1,746,747,748,-1,748,747,749,-1,748,749,750,-1,750,749,751,-1,750,751,743,-1,743,751,752,-1,743,752,744,-1,753,754,746,-1,746,754,755,-1,746,755,747,-1,756,757,753,-1,753,757,758,-1,753,758,754,-1,759,760,756,-1,756,760,761,-1,756,761,757,-1,762,763,759,-1,759,763,764,-1,759,764,760,-1,765,766,762,-1,762,766,767,-1,762,767,763,-1,768,769,765,-1,765,769,770,-1,765,770,766,-1,771,772,768,-1,768,772,773,-1,768,773,769,-1,774,775,771,-1,771,775,776,-1,771,776,772,-1,777,778,774,-1,774,778,779,-1,774,779,775,-1,780,781,782,-1,782,781,783,-1,782,783,784,-1,784,783,785,-1,784,785,777,-1,777,785,786,-1,777,786,778,-1,787,788,789,-1,789,788,790,-1,789,790,791,-1,791,790,792,-1,791,792,780,-1,780,792,793,-1,780,793,781,-1,794,795,787,-1,787,795,796,-1,787,796,788,-1,797,798,794,-1,794,798,799,-1,794,799,795,-1,727,800,728,-1,728,800,801,-1,728,801,797,-1,797,801,802,-1,797,802,798,-1,803,804,805,-1,805,804,806,-1,805,806,807,-1,808,809,805,-1,805,809,810,-1,805,810,803,-1,811,812,805,-1,805,812,813,-1,805,813,808,-1,814,815,805,-1,805,815,816,-1,805,816,811,-1,817,818,805,-1,805,818,819,-1,805,819,814,-1,820,821,805,-1,805,821,822,-1,805,822,817,-1,823,824,805,-1,805,824,825,-1,805,825,820,-1,826,827,805,-1,805,827,828,-1,805,828,823,-1,807,829,805,-1,805,829,830,-1,805,830,826,-1,770,769,831,-1,773,772,832,-1,776,775,833,-1,786,785,834,-1,783,781,835,-1,793,792,836,-1,796,795,837,-1,799,798,838,-1,802,801,839,-1,732,731,840,-1,735,734,841,-1,742,741,842,-1,745,744,843,-1,752,751,844,-1,749,747,845,-1,758,757,846,-1,761,760,847,-1,764,763,848,-1,809,808,849,-1,849,808,850,-1,849,850,851,-1,851,850,852,-1,851,852,853,-1,853,852,854,-1,853,854,855,-1,855,854,856,-1,855,856,857,-1,857,856,845,-1,818,817,858,-1,858,817,859,-1,858,859,860,-1,860,859,861,-1,860,861,862,-1,862,861,863,-1,862,863,864,-1,864,863,865,-1,864,865,866,-1,866,865,839,-1,827,826,867,-1,867,826,868,-1,867,868,869,-1,869,868,870,-1,869,870,871,-1,871,870,872,-1,871,872,873,-1,873,872,874,-1,873,874,875,-1,875,874,833,-1,806,804,876,-1,876,804,877,-1,876,877,878,-1,878,877,879,-1,878,879,880,-1,880,879,881,-1,880,881,882,-1,882,881,883,-1,882,883,884,-1,884,883,848,-1,884,848,767,-1,767,848,763,-1,760,764,847,-1,847,764,848,-1,847,848,885,-1,885,848,883,-1,885,883,886,-1,886,883,881,-1,886,881,887,-1,887,881,879,-1,887,879,888,-1,888,879,877,-1,888,877,803,-1,803,877,804,-1,757,761,846,-1,846,761,847,-1,846,847,889,-1,889,847,885,-1,889,885,890,-1,890,885,886,-1,890,886,891,-1,891,886,887,-1,891,887,892,-1,892,887,888,-1,892,888,810,-1,810,888,803,-1,754,758,857,-1,857,758,846,-1,857,846,855,-1,855,846,889,-1,855,889,853,-1,853,889,890,-1,853,890,851,-1,851,890,891,-1,851,891,849,-1,849,891,892,-1,849,892,809,-1,809,892,810,-1,845,747,857,-1,857,747,755,-1,857,755,754,-1,751,749,844,-1,844,749,845,-1,844,845,893,-1,893,845,856,-1,893,856,894,-1,894,856,854,-1,894,854,895,-1,895,854,852,-1,895,852,896,-1,896,852,850,-1,896,850,813,-1,813,850,808,-1,744,752,843,-1,843,752,844,-1,843,844,897,-1,897,844,893,-1,897,893,898,-1,898,893,894,-1,898,894,899,-1,899,894,895,-1,899,895,900,-1,900,895,896,-1,900,896,812,-1,812,896,813,-1,737,745,901,-1,901,745,843,-1,901,843,902,-1,902,843,897,-1,902,897,903,-1,903,897,898,-1,903,898,904,-1,904,898,899,-1,904,899,905,-1,905,899,900,-1,905,900,811,-1,811,900,812,-1,811,816,905,-1,905,816,906,-1,905,906,904,-1,904,906,907,-1,904,907,903,-1,903,907,908,-1,903,908,902,-1,902,908,909,-1,902,909,901,-1,901,909,910,-1,901,910,737,-1,737,910,739,-1,816,815,906,-1,906,815,911,-1,906,911,907,-1,907,911,912,-1,907,912,908,-1,908,912,913,-1,908,913,909,-1,909,913,914,-1,909,914,910,-1,910,914,842,-1,910,842,739,-1,739,842,741,-1,734,742,841,-1,841,742,842,-1,841,842,915,-1,915,842,914,-1,915,914,916,-1,916,914,913,-1,916,913,917,-1,917,913,912,-1,917,912,918,-1,918,912,911,-1,918,911,814,-1,814,911,815,-1,731,735,840,-1,840,735,841,-1,840,841,919,-1,919,841,915,-1,919,915,920,-1,920,915,916,-1,920,916,921,-1,921,916,917,-1,921,917,922,-1,922,917,918,-1,922,918,819,-1,819,918,814,-1,727,732,866,-1,866,732,840,-1,866,840,864,-1,864,840,919,-1,864,919,862,-1,862,919,920,-1,862,920,860,-1,860,920,921,-1,860,921,858,-1,858,921,922,-1,858,922,818,-1,818,922,819,-1,839,801,866,-1,866,801,800,-1,866,800,727,-1,798,802,838,-1,838,802,839,-1,838,839,923,-1,923,839,865,-1,923,865,924,-1,924,865,863,-1,924,863,925,-1,925,863,861,-1,925,861,926,-1,926,861,859,-1,926,859,822,-1,822,859,817,-1,795,799,837,-1,837,799,838,-1,837,838,927,-1,927,838,923,-1,927,923,928,-1,928,923,924,-1,928,924,929,-1,929,924,925,-1,929,925,930,-1,930,925,926,-1,930,926,821,-1,821,926,822,-1,788,796,931,-1,931,796,837,-1,931,837,932,-1,932,837,927,-1,932,927,933,-1,933,927,928,-1,933,928,934,-1,934,928,929,-1,934,929,935,-1,935,929,930,-1,935,930,820,-1,820,930,821,-1,820,825,935,-1,935,825,936,-1,935,936,934,-1,934,936,937,-1,934,937,933,-1,933,937,938,-1,933,938,932,-1,932,938,939,-1,932,939,931,-1,931,939,940,-1,931,940,788,-1,788,940,790,-1,825,824,936,-1,936,824,941,-1,936,941,937,-1,937,941,942,-1,937,942,938,-1,938,942,943,-1,938,943,939,-1,939,943,944,-1,939,944,940,-1,940,944,836,-1,940,836,790,-1,790,836,792,-1,781,793,835,-1,835,793,836,-1,835,836,945,-1,945,836,944,-1,945,944,946,-1,946,944,943,-1,946,943,947,-1,947,943,942,-1,947,942,948,-1,948,942,941,-1,948,941,823,-1,823,941,824,-1,785,783,834,-1,834,783,835,-1,834,835,949,-1,949,835,945,-1,949,945,950,-1,950,945,946,-1,950,946,951,-1,951,946,947,-1,951,947,952,-1,952,947,948,-1,952,948,828,-1,828,948,823,-1,778,786,875,-1,875,786,834,-1,875,834,873,-1,873,834,949,-1,873,949,871,-1,871,949,950,-1,871,950,869,-1,869,950,951,-1,869,951,867,-1,867,951,952,-1,867,952,827,-1,827,952,828,-1,833,775,875,-1,875,775,779,-1,875,779,778,-1,772,776,832,-1,832,776,833,-1,832,833,953,-1,953,833,874,-1,953,874,954,-1,954,874,872,-1,954,872,955,-1,955,872,870,-1,955,870,956,-1,956,870,868,-1,956,868,830,-1,830,868,826,-1,769,773,831,-1,831,773,832,-1,831,832,957,-1,957,832,953,-1,957,953,958,-1,958,953,954,-1,958,954,959,-1,959,954,955,-1,959,955,960,-1,960,955,956,-1,960,956,829,-1,829,956,830,-1,766,770,961,-1,961,770,831,-1,961,831,962,-1,962,831,957,-1,962,957,963,-1,963,957,958,-1,963,958,964,-1,964,958,959,-1,964,959,965,-1,965,959,960,-1,965,960,807,-1,807,960,829,-1,807,806,965,-1,965,806,876,-1,965,876,964,-1,964,876,878,-1,964,878,963,-1,963,878,880,-1,963,880,962,-1,962,880,882,-1,962,882,961,-1,961,882,884,-1,961,884,766,-1,766,884,767,-1,666,665,966,-1,669,668,967,-1,672,671,968,-1,682,681,969,-1,679,677,970,-1,689,688,971,-1,692,691,972,-1,695,694,973,-1,698,697,974,-1,628,627,975,-1,631,630,976,-1,638,637,977,-1,641,640,978,-1,648,647,979,-1,645,643,980,-1,654,653,981,-1,657,656,982,-1,660,659,983,-1,705,704,984,-1,984,704,985,-1,984,985,986,-1,986,985,987,-1,986,987,988,-1,988,987,989,-1,988,989,990,-1,990,989,991,-1,990,991,992,-1,992,991,980,-1,714,713,993,-1,993,713,994,-1,993,994,995,-1,995,994,996,-1,995,996,997,-1,997,996,998,-1,997,998,999,-1,999,998,1000,-1,999,1000,1001,-1,1001,1000,974,-1,723,722,1002,-1,1002,722,1003,-1,1002,1003,1004,-1,1004,1003,1005,-1,1004,1005,1006,-1,1006,1005,1007,-1,1006,1007,1008,-1,1008,1007,1009,-1,1008,1009,1010,-1,1010,1009,968,-1,702,700,1011,-1,1011,700,1012,-1,1011,1012,1013,-1,1013,1012,1014,-1,1013,1014,1015,-1,1015,1014,1016,-1,1015,1016,1017,-1,1017,1016,1018,-1,1017,1018,1019,-1,1019,1018,983,-1,1019,983,663,-1,663,983,659,-1,656,660,982,-1,982,660,983,-1,982,983,1020,-1,1020,983,1018,-1,1020,1018,1021,-1,1021,1018,1016,-1,1021,1016,1022,-1,1022,1016,1014,-1,1022,1014,1023,-1,1023,1014,1012,-1,1023,1012,699,-1,699,1012,700,-1,653,657,981,-1,981,657,982,-1,981,982,1024,-1,1024,982,1020,-1,1024,1020,1025,-1,1025,1020,1021,-1,1025,1021,1026,-1,1026,1021,1022,-1,1026,1022,1027,-1,1027,1022,1023,-1,1027,1023,706,-1,706,1023,699,-1,650,654,992,-1,992,654,981,-1,992,981,990,-1,990,981,1024,-1,990,1024,988,-1,988,1024,1025,-1,988,1025,986,-1,986,1025,1026,-1,986,1026,984,-1,984,1026,1027,-1,984,1027,705,-1,705,1027,706,-1,980,643,992,-1,992,643,651,-1,992,651,650,-1,647,645,979,-1,979,645,980,-1,979,980,1028,-1,1028,980,991,-1,1028,991,1029,-1,1029,991,989,-1,1029,989,1030,-1,1030,989,987,-1,1030,987,1031,-1,1031,987,985,-1,1031,985,709,-1,709,985,704,-1,640,648,978,-1,978,648,979,-1,978,979,1032,-1,1032,979,1028,-1,1032,1028,1033,-1,1033,1028,1029,-1,1033,1029,1034,-1,1034,1029,1030,-1,1034,1030,1035,-1,1035,1030,1031,-1,1035,1031,708,-1,708,1031,709,-1,633,641,1036,-1,1036,641,978,-1,1036,978,1037,-1,1037,978,1032,-1,1037,1032,1038,-1,1038,1032,1033,-1,1038,1033,1039,-1,1039,1033,1034,-1,1039,1034,1040,-1,1040,1034,1035,-1,1040,1035,707,-1,707,1035,708,-1,707,712,1040,-1,1040,712,1041,-1,1040,1041,1039,-1,1039,1041,1042,-1,1039,1042,1038,-1,1038,1042,1043,-1,1038,1043,1037,-1,1037,1043,1044,-1,1037,1044,1036,-1,1036,1044,1045,-1,1036,1045,633,-1,633,1045,635,-1,712,711,1041,-1,1041,711,1046,-1,1041,1046,1042,-1,1042,1046,1047,-1,1042,1047,1043,-1,1043,1047,1048,-1,1043,1048,1044,-1,1044,1048,1049,-1,1044,1049,1045,-1,1045,1049,977,-1,1045,977,635,-1,635,977,637,-1,630,638,976,-1,976,638,977,-1,976,977,1050,-1,1050,977,1049,-1,1050,1049,1051,-1,1051,1049,1048,-1,1051,1048,1052,-1,1052,1048,1047,-1,1052,1047,1053,-1,1053,1047,1046,-1,1053,1046,710,-1,710,1046,711,-1,627,631,975,-1,975,631,976,-1,975,976,1054,-1,1054,976,1050,-1,1054,1050,1055,-1,1055,1050,1051,-1,1055,1051,1056,-1,1056,1051,1052,-1,1056,1052,1057,-1,1057,1052,1053,-1,1057,1053,715,-1,715,1053,710,-1,623,628,1001,-1,1001,628,975,-1,1001,975,999,-1,999,975,1054,-1,999,1054,997,-1,997,1054,1055,-1,997,1055,995,-1,995,1055,1056,-1,995,1056,993,-1,993,1056,1057,-1,993,1057,714,-1,714,1057,715,-1,974,697,1001,-1,1001,697,696,-1,1001,696,623,-1,694,698,973,-1,973,698,974,-1,973,974,1058,-1,1058,974,1000,-1,1058,1000,1059,-1,1059,1000,998,-1,1059,998,1060,-1,1060,998,996,-1,1060,996,1061,-1,1061,996,994,-1,1061,994,718,-1,718,994,713,-1,691,695,972,-1,972,695,973,-1,972,973,1062,-1,1062,973,1058,-1,1062,1058,1063,-1,1063,1058,1059,-1,1063,1059,1064,-1,1064,1059,1060,-1,1064,1060,1065,-1,1065,1060,1061,-1,1065,1061,717,-1,717,1061,718,-1,684,692,1066,-1,1066,692,972,-1,1066,972,1067,-1,1067,972,1062,-1,1067,1062,1068,-1,1068,1062,1063,-1,1068,1063,1069,-1,1069,1063,1064,-1,1069,1064,1070,-1,1070,1064,1065,-1,1070,1065,716,-1,716,1065,717,-1,716,721,1070,-1,1070,721,1071,-1,1070,1071,1069,-1,1069,1071,1072,-1,1069,1072,1068,-1,1068,1072,1073,-1,1068,1073,1067,-1,1067,1073,1074,-1,1067,1074,1066,-1,1066,1074,1075,-1,1066,1075,684,-1,684,1075,686,-1,721,720,1071,-1,1071,720,1076,-1,1071,1076,1072,-1,1072,1076,1077,-1,1072,1077,1073,-1,1073,1077,1078,-1,1073,1078,1074,-1,1074,1078,1079,-1,1074,1079,1075,-1,1075,1079,971,-1,1075,971,686,-1,686,971,688,-1,677,689,970,-1,970,689,971,-1,970,971,1080,-1,1080,971,1079,-1,1080,1079,1081,-1,1081,1079,1078,-1,1081,1078,1082,-1,1082,1078,1077,-1,1082,1077,1083,-1,1083,1077,1076,-1,1083,1076,719,-1,719,1076,720,-1,681,679,969,-1,969,679,970,-1,969,970,1084,-1,1084,970,1080,-1,1084,1080,1085,-1,1085,1080,1081,-1,1085,1081,1086,-1,1086,1081,1082,-1,1086,1082,1087,-1,1087,1082,1083,-1,1087,1083,724,-1,724,1083,719,-1,674,682,1010,-1,1010,682,969,-1,1010,969,1008,-1,1008,969,1084,-1,1008,1084,1006,-1,1006,1084,1085,-1,1006,1085,1004,-1,1004,1085,1086,-1,1004,1086,1002,-1,1002,1086,1087,-1,1002,1087,723,-1,723,1087,724,-1,968,671,1010,-1,1010,671,675,-1,1010,675,674,-1,668,672,967,-1,967,672,968,-1,967,968,1088,-1,1088,968,1009,-1,1088,1009,1089,-1,1089,1009,1007,-1,1089,1007,1090,-1,1090,1007,1005,-1,1090,1005,1091,-1,1091,1005,1003,-1,1091,1003,726,-1,726,1003,722,-1,665,669,966,-1,966,669,967,-1,966,967,1092,-1,1092,967,1088,-1,1092,1088,1093,-1,1093,1088,1089,-1,1093,1089,1094,-1,1094,1089,1090,-1,1094,1090,1095,-1,1095,1090,1091,-1,1095,1091,725,-1,725,1091,726,-1,662,666,1096,-1,1096,666,966,-1,1096,966,1097,-1,1097,966,1092,-1,1097,1092,1098,-1,1098,1092,1093,-1,1098,1093,1099,-1,1099,1093,1094,-1,1099,1094,1100,-1,1100,1094,1095,-1,1100,1095,703,-1,703,1095,725,-1,703,702,1100,-1,1100,702,1011,-1,1100,1011,1099,-1,1099,1011,1013,-1,1099,1013,1098,-1,1098,1013,1015,-1,1098,1015,1097,-1,1097,1015,1017,-1,1097,1017,1096,-1,1096,1017,1019,-1,1096,1019,662,-1,662,1019,663,-1,
        ]
    }
}