#VRML V2.0 utf8
# 3D model generated by easyeda2kicad.py (https://github.com/uPesy/easyeda2kicad.py)

Shape{
    appearance Appearance {
        material  Material 	{
            diffuseColor 0.25098039215686274 0.25098039215686274 0.25098039215686274
            specularColor 0.12549019607843137 0.12549019607843137 0.12549019607843137
            ambientIntensity 0.251
            transparency 0.0
            shininess 0.5
        }
    }
    geometry IndexedFaceSet {
        ccw TRUE
        solid FALSE
        coord DEF co Coordinate {
            point [
                -0.0127 -0.016 0.0079, -0.0127 -0.0203 0.0079, -0.0165 -0.0205 0.0079, 0.0085 -0.0203 0.0079, 0.0161 -0.0182 0.0079, 0.0161 -0.0139 0.0079, 0.0085 0.0191 0.0079, -0.0107 -0.0025 0.0079, 0.0032 -0.0025 0.0079, 0.0032 -0.016 0.0079, -0.0117 0.0148 0.0079, -0.0117 0.0191 0.0079, -0.0165 0.311 0.0079, 0.0388 -0.0169 0.0079, 0.0418 -0.0138 0.0079, 0.0488 -0.0203 0.0079, -0.0107 0.0018 0.0079, 0.0032 0.0018 0.0079, 0.0032 0.0148 0.0079, 0.0292 0.0148 0.0079, 0.0322 0.0138 0.0079, 0.0169 -0.0143 0.0079, 0.0349 0.0119 0.0079, 0.0373 0.0093 0.0079, 0.0402 -0.001 0.0079, 0.0398 -0.0053 0.0079, 0.0387 -0.0087 0.0079, 0.0299 -0.016 0.0079, 0.0263 -0.0164 0.0079, 0.0328 -0.015 0.0079, 0.0352 -0.0133 0.0079, 0.0371 -0.0114 0.0079, 0.021 -0.0159 0.0079, 0.0488 -0.016 0.0079, 0.0439 -0.0101 0.0079, 0.0451 -0.0059 0.0079, 0.0389 0.0063 0.0079, 0.04 0.0021 0.0079, 0.0637 0.0191 0.0079, 0.0637 -0.016 0.0079, 0.041 0.0124 0.0079, 0.0375 0.0158 0.0079, 0.069 0.0191 0.0079, 0.3898 0.311 0.0079, 0.069 -0.0203 0.0079, 0.3898 -0.0205 0.0079, 0.0293 -0.0205 0.0079, 0.0318 -0.0203 0.0079, 0.0356 -0.0189 0.0079, 0.0454 -0.0013 0.0079, 0.0449 0.0043 0.0079, 0.0434 0.0087 0.0079, 0.0338 0.018 0.0079, 0.0294 0.0193 0.0079, 0.0254 0.0196 0.0079, 0.0207 0.0192 0.0079, 0.0161 0.018 0.0079, 0.0161 0.0127 0.0079, 0.0206 0.0146 0.0079, 0.0254 0.0153 0.0079, 0.027 -0.0208 0.0079, 0.3898 -0.3111 0.0079, 0.0259 -0.0207 0.0079, -0.0165 -0.3111 0.0079, 0.0243 -0.0205 0.0079, -0.3898 -0.3111 0.0079, -0.3898 -0.0205 0.0079, 0.0203 -0.02 0.0079, -0.0549 -0.0203 0.0079, -0.0501 -0.0095 0.0079, -0.0478 -0.013 0.0079, -0.0847 -0.0203 0.0079, -0.0904 -0.0203 0.0079, -0.0751 0.0191 0.0079, -0.3898 0.311 0.0079, -0.0698 0.0191 0.0079, -0.0446 -0.0161 0.0079, -0.0405 -0.0185 0.0079, -0.0359 -0.0199 0.0079, -0.031 -0.0203 0.0079, -0.0203 -0.0203 0.0079, -0.0203 0.0191 0.0079, -0.0315 0.0191 0.0079, -0.0461 0.014 0.0079, -0.0489 0.0109 0.0079, -0.0507 0.0075 0.0079, -0.0371 0.0185 0.0079, -0.0417 0.0169 0.0079, -0.046 0.014 0.0079, -0.0607 -0.0203 0.0079, -0.0644 -0.0092 0.0079, -0.0807 -0.0092 0.0079, -0.0517 0.0036 0.0079, -0.052 -0.0001 0.0079, -0.0515 -0.0054 0.0079, 0.3937 0.311 0.0118, 0.3937 0.311 0.311, 0.3937 -0.3111 0.0118, 0.3937 -0.3111 0.311, -0.3898 0.3149 0.0118, -0.3898 0.3149 0.311, 0.3898 0.3149 0.0118, 0.3898 0.3149 0.311, -0.3937 -0.3111 0.0118, -0.3937 -0.3111 0.311, -0.3937 0.311 0.0118, -0.3937 0.311 0.311, 0.3898 -0.315 0.0118, 0.3898 -0.315 0.311, -0.3898 -0.315 0.0118, -0.3898 -0.315 0.311, 0.3898 -0.3111 0.315, 0.3898 0.311 0.315, -0.3898 -0.3111 0.315, -0.3898 0.311 0.315, -0.3908 0.311 0.3148, -0.3908 -0.3111 0.3148, -0.3917 0.311 0.3144, -0.3917 -0.3111 0.3144, -0.3925 0.311 0.3138, -0.3925 -0.3111 0.3138, -0.3932 0.311 0.313, -0.3932 -0.3111 0.313, -0.3936 0.311 0.312, -0.3936 -0.3111 0.312, -0.3898 -0.3149 0.312, -0.3907 -0.3147 0.312, -0.3907 -0.3128 0.3144, -0.3903 -0.3119 0.3148, -0.3905 -0.3118 0.3148, -0.3907 -0.3113 0.3148, -0.39 -0.312 0.3148, -0.3903 -0.313 0.3144, -0.3905 -0.3137 0.3138, -0.3898 -0.3121 0.3148, -0.3912 -0.3124 0.3144, -0.3906 -0.3116 0.3148, -0.3915 -0.312 0.3144, -0.3917 -0.3116 0.3144, -0.3898 -0.313 0.3144, -0.3898 -0.3138 0.3138, -0.3898 -0.3145 0.313, -0.3912 -0.3135 0.3138, -0.3917 -0.313 0.3138, -0.3922 -0.3124 0.3138, -0.3925 -0.3118 0.3138, -0.3906 -0.3143 0.313, -0.3915 -0.314 0.313, -0.3922 -0.3135 0.313, -0.3927 -0.3128 0.313, -0.3931 -0.3119 0.313, -0.3917 -0.3143 0.312, -0.3925 -0.3137 0.312, -0.3931 -0.313 0.312, -0.3934 -0.312 0.312, -0.3908 -0.3149 0.311, -0.3917 -0.3145 0.311, -0.3925 -0.3138 0.311, -0.3932 -0.313 0.311, -0.3936 -0.3121 0.311, -0.3934 0.312 0.312, -0.3915 0.312 0.3144, -0.3906 0.3115 0.3148, -0.3905 0.3117 0.3148, -0.3898 0.312 0.3148, -0.39 0.312 0.3148, -0.3907 0.3113 0.3148, -0.3917 0.3115 0.3144, -0.3925 0.3117 0.3138, -0.3912 0.3124 0.3144, -0.3903 0.3119 0.3148, -0.3907 0.3127 0.3144, -0.3903 0.3129 0.3144, -0.3898 0.313 0.3144, -0.3922 0.3124 0.3138, -0.3917 0.313 0.3138, -0.3912 0.3134 0.3138, -0.3905 0.3137 0.3138, -0.3898 0.3138 0.3138, -0.3931 0.3119 0.313, -0.3927 0.3127 0.313, -0.3922 0.3134 0.313, -0.3915 0.3139 0.313, -0.3906 0.3143 0.313, -0.3898 0.3144 0.313, -0.3931 0.3129 0.312, -0.3925 0.3137 0.312, -0.3917 0.3143 0.312, -0.3907 0.3147 0.312, -0.3898 0.3148 0.312, -0.3936 0.312 0.311, -0.3932 0.313 0.311, -0.3925 0.3138 0.311, -0.3917 0.3144 0.311, -0.3908 0.3148 0.311, -0.3936 -0.3121 0.0118, -0.3932 -0.313 0.0118, -0.3925 -0.3138 0.0118, -0.3917 -0.3145 0.0118, -0.3908 -0.3149 0.0118, 0.3898 -0.3121 0.3148, 0.3898 -0.313 0.3144, 0.3898 -0.3138 0.3138, 0.3898 -0.3145 0.313, 0.3898 -0.3149 0.312, 0.3908 -0.3111 0.3148, 0.3908 0.311 0.3148, 0.3917 -0.3111 0.3144, 0.3917 0.311 0.3144, 0.3925 -0.3111 0.3138, 0.3925 0.311 0.3138, 0.3932 -0.3111 0.313, 0.3932 0.311 0.313, 0.3936 -0.3111 0.312, 0.3936 0.311 0.312, 0.3898 0.312 0.3148, 0.3898 0.313 0.3144, 0.3898 0.3138 0.3138, 0.3898 0.3144 0.313, 0.3898 0.3148 0.312, -0.3908 0.3148 0.0118, -0.3917 0.3144 0.0118, -0.3925 0.3138 0.0118, -0.3932 0.313 0.0118, -0.3936 0.312 0.0118, -0.3908 -0.3111 0.008, -0.3908 0.311 0.008, -0.3917 -0.3111 0.0084, -0.3917 0.311 0.0084, -0.3925 -0.3111 0.009, -0.3925 0.311 0.009, -0.3932 -0.3111 0.0098, -0.3932 0.311 0.0098, -0.3936 -0.3111 0.0108, -0.3936 0.311 0.0108, -0.3907 -0.3147 0.0108, -0.3917 -0.3143 0.0108, -0.3906 -0.3143 0.0098, -0.3915 -0.314 0.0098, -0.3905 -0.3137 0.009, -0.3912 -0.3135 0.009, -0.3903 -0.313 0.0084, -0.3907 -0.3128 0.0084, -0.39 -0.312 0.008, -0.3903 -0.3119 0.008, -0.3925 -0.3137 0.0108, -0.3922 -0.3135 0.0098, -0.3917 -0.313 0.009, -0.3912 -0.3124 0.0084, -0.3905 -0.3118 0.008, -0.3898 -0.3149 0.0108, -0.3898 -0.3145 0.0098, -0.3898 -0.3138 0.009, -0.3898 -0.313 0.0084, -0.3898 -0.3121 0.008, -0.3931 -0.313 0.0108, -0.3934 -0.312 0.0108, -0.3927 -0.3128 0.0098, -0.3931 -0.3119 0.0098, -0.3922 -0.3124 0.009, -0.3925 -0.3118 0.009, -0.3915 -0.312 0.0084, -0.3917 -0.3116 0.0084, -0.3906 -0.3116 0.008, -0.3907 -0.3113 0.008, 0.3934 -0.312 0.312, 0.3915 -0.312 0.3144, 0.3906 -0.3116 0.3148, 0.3905 -0.3118 0.3148, 0.39 -0.312 0.3148, 0.3907 -0.3113 0.3148, 0.3917 -0.3116 0.3144, 0.3925 -0.3118 0.3138, 0.3912 -0.3124 0.3144, 0.3903 -0.3119 0.3148, 0.3907 -0.3128 0.3144, 0.3903 -0.313 0.3144, 0.3922 -0.3124 0.3138, 0.3917 -0.313 0.3138, 0.3912 -0.3135 0.3138, 0.3905 -0.3137 0.3138, 0.3931 -0.3119 0.313, 0.3927 -0.3128 0.313, 0.3922 -0.3135 0.313, 0.3915 -0.314 0.313, 0.3906 -0.3143 0.313, 0.3931 -0.313 0.312, 0.3925 -0.3137 0.312, 0.3917 -0.3143 0.312, 0.3907 -0.3147 0.312, 0.3936 -0.3121 0.311, 0.3932 -0.313 0.311, 0.3925 -0.3138 0.311, 0.3917 -0.3145 0.311, 0.3908 -0.3149 0.311, 0.3907 0.3147 0.312, 0.3907 0.3127 0.3144, 0.3903 0.3119 0.3148, 0.3905 0.3117 0.3148, 0.3907 0.3113 0.3148, 0.39 0.312 0.3148, 0.3903 0.3129 0.3144, 0.3905 0.3137 0.3138, 0.3912 0.3124 0.3144, 0.3906 0.3115 0.3148, 0.3915 0.312 0.3144, 0.3917 0.3115 0.3144, 0.3912 0.3134 0.3138, 0.3917 0.313 0.3138, 0.3922 0.3124 0.3138, 0.3925 0.3117 0.3138, 0.3906 0.3143 0.313, 0.3915 0.3139 0.313, 0.3922 0.3134 0.313, 0.3927 0.3127 0.313, 0.3931 0.3119 0.313, 0.3917 0.3143 0.312, 0.3925 0.3137 0.312, 0.3931 0.3129 0.312, 0.3934 0.312 0.312, 0.3908 0.3148 0.311, 0.3917 0.3144 0.311, 0.3925 0.3138 0.311, 0.3932 0.313 0.311, 0.3936 0.312 0.311, -0.3934 0.312 0.0108, -0.3931 0.3129 0.0108, -0.3931 0.3119 0.0098, -0.3927 0.3127 0.0098, -0.3925 0.3117 0.009, -0.3922 0.3124 0.009, -0.3917 0.3115 0.0084, -0.3915 0.312 0.0084, -0.3907 0.3113 0.008, -0.3906 0.3115 0.008, -0.3925 0.3137 0.0108, -0.3922 0.3134 0.0098, -0.3917 0.313 0.009, -0.3912 0.3124 0.0084, -0.3905 0.3117 0.008, -0.3917 0.3143 0.0108, -0.3907 0.3147 0.0108, -0.3915 0.3139 0.0098, -0.3906 0.3143 0.0098, -0.3912 0.3134 0.009, -0.3905 0.3137 0.009, -0.3907 0.3127 0.0084, -0.3903 0.3129 0.0084, -0.3903 0.3119 0.008, -0.39 0.312 0.008, -0.3898 0.3148 0.0108, -0.3898 0.3144 0.0098, -0.3898 0.3138 0.009, -0.3898 0.313 0.0084, -0.3898 0.312 0.008, 0.3898 -0.3121 0.008, 0.3898 -0.313 0.0084, 0.3898 -0.3138 0.009, 0.3898 -0.3145 0.0098, 0.3898 -0.3149 0.0108, 0.3908 -0.3149 0.0118, 0.3917 -0.3145 0.0118, 0.3925 -0.3138 0.0118, 0.3932 -0.313 0.0118, 0.3936 -0.3121 0.0118, 0.3936 0.312 0.0118, 0.3932 0.313 0.0118, 0.3925 0.3138 0.0118, 0.3917 0.3144 0.0118, 0.3908 0.3148 0.0118, 0.3898 0.312 0.008, 0.3898 0.313 0.0084, 0.3898 0.3138 0.009, 0.3898 0.3144 0.0098, 0.3898 0.3148 0.0108, 0.3934 -0.312 0.0108, 0.3931 -0.313 0.0108, 0.3931 -0.3119 0.0098, 0.3927 -0.3128 0.0098, 0.3925 -0.3118 0.009, 0.3922 -0.3124 0.009, 0.3917 -0.3116 0.0084, 0.3915 -0.312 0.0084, 0.3907 -0.3113 0.008, 0.3906 -0.3116 0.008, 0.3925 -0.3137 0.0108, 0.3922 -0.3135 0.0098, 0.3917 -0.313 0.009, 0.3912 -0.3124 0.0084, 0.3905 -0.3118 0.008, 0.3936 -0.3111 0.0108, 0.3932 -0.3111 0.0098, 0.3925 -0.3111 0.009, 0.3917 -0.3111 0.0084, 0.3908 -0.3111 0.008, 0.3917 -0.3143 0.0108, 0.3907 -0.3147 0.0108, 0.3915 -0.314 0.0098, 0.3906 -0.3143 0.0098, 0.3912 -0.3135 0.009, 0.3905 -0.3137 0.009, 0.3907 -0.3128 0.0084, 0.3903 -0.313 0.0084, 0.3903 -0.3119 0.008, 0.39 -0.312 0.008, 0.3907 0.3147 0.0108, 0.3917 0.3143 0.0108, 0.3906 0.3143 0.0098, 0.3915 0.3139 0.0098, 0.3905 0.3137 0.009, 0.3912 0.3134 0.009, 0.3903 0.3129 0.0084, 0.3907 0.3127 0.0084, 0.39 0.312 0.008, 0.3903 0.3119 0.008, 0.3925 0.3137 0.0108, 0.3922 0.3134 0.0098, 0.3917 0.313 0.009, 0.3912 0.3124 0.0084, 0.3905 0.3117 0.008, 0.3931 0.3129 0.0108, 0.3934 0.312 0.0108, 0.3927 0.3127 0.0098, 0.3931 0.3119 0.0098, 0.3922 0.3124 0.009, 0.3925 0.3117 0.009, 0.3915 0.312 0.0084, 0.3917 0.3115 0.0084, 0.3906 0.3115 0.008, 0.3907 0.3113 0.008, 0.3936 0.311 0.0108, 0.3932 0.311 0.0098, 0.3925 0.311 0.009, 0.3917 0.311 0.0084, 0.3908 0.311 0.008
            ]
        }
        coordIndex [
            0,1,2,-1,2,1,3,-1,4,3,5,-1,5,3,6,-1,7,8,9,-1,10,2,11,-1,11,2,12,-1,11,12,6,-1,13,14,15,-1,9,0,7,-1,7,0,2,-1,7,2,16,-1,16,2,10,-1,16,10,17,-1,17,10,18,-1,19,20,21,-1,21,20,22,-1,21,22,23,-1,24,25,21,-1,21,25,26,-1,27,28,29,-1,29,28,30,-1,26,31,21,-1,21,31,30,-1,21,30,32,-1,32,30,28,-1,15,14,33,-1,33,14,34,-1,33,34,35,-1,23,36,21,-1,21,36,37,-1,21,37,24,-1,38,39,33,-1,40,41,38,-1,38,41,12,-1,38,12,42,-1,42,12,43,-1,42,43,44,-1,44,43,45,-1,46,47,15,-1,15,47,48,-1,15,48,13,-1,35,49,33,-1,33,49,50,-1,33,50,38,-1,38,50,51,-1,38,51,40,-1,41,52,12,-1,12,52,53,-1,12,53,54,-1,54,55,12,-1,12,55,56,-1,12,56,6,-1,6,56,57,-1,6,57,5,-1,5,57,58,-1,5,58,21,-1,21,58,59,-1,21,59,19,-1,15,44,46,-1,46,44,45,-1,46,45,60,-1,60,45,61,-1,60,61,62,-1,62,61,63,-1,62,63,64,-1,65,66,63,-1,63,66,2,-1,63,2,64,-1,64,2,3,-1,64,3,67,-1,67,3,4,-1,68,69,70,-1,71,2,72,-1,72,2,66,-1,72,66,73,-1,73,66,74,-1,73,74,75,-1,75,74,12,-1,70,76,68,-1,68,76,77,-1,68,77,78,-1,79,80,2,-1,2,80,81,-1,2,81,12,-1,12,81,82,-1,83,84,75,-1,75,84,85,-1,82,86,12,-1,12,86,87,-1,12,87,75,-1,75,87,88,-1,75,88,83,-1,78,79,68,-1,68,79,2,-1,68,2,89,-1,89,2,71,-1,89,71,90,-1,90,71,91,-1,85,92,75,-1,75,92,93,-1,75,93,68,-1,68,93,94,-1,68,94,69,-1,95,96,97,-1,97,96,98,-1,99,100,101,-1,101,100,102,-1,103,104,105,-1,105,104,106,-1,107,108,109,-1,109,108,110,-1,111,112,113,-1,113,112,114,-1,113,114,115,-1,113,115,116,-1,116,115,117,-1,116,117,118,-1,118,117,119,-1,118,119,120,-1,120,119,121,-1,120,121,122,-1,122,121,123,-1,122,123,124,-1,124,123,106,-1,124,106,104,-1,110,125,126,-1,127,128,129,-1,113,116,130,-1,129,128,113,-1,131,113,128,-1,131,128,132,-1,132,128,127,-1,132,127,133,-1,134,113,131,-1,135,136,137,-1,137,136,130,-1,137,130,138,-1,138,130,116,-1,138,116,118,-1,134,131,139,-1,139,131,132,-1,139,132,140,-1,140,132,133,-1,140,133,141,-1,142,135,143,-1,143,135,137,-1,143,137,144,-1,144,137,138,-1,144,138,145,-1,145,138,118,-1,145,118,120,-1,146,142,147,-1,147,142,143,-1,147,143,148,-1,148,143,144,-1,148,144,149,-1,149,144,145,-1,149,145,150,-1,150,145,120,-1,150,120,122,-1,125,146,126,-1,126,146,147,-1,126,147,151,-1,151,147,148,-1,151,148,152,-1,152,148,149,-1,152,149,153,-1,153,149,150,-1,153,150,154,-1,154,150,122,-1,154,122,124,-1,110,126,155,-1,155,126,151,-1,155,151,156,-1,156,151,152,-1,156,152,157,-1,157,152,153,-1,157,153,158,-1,158,153,154,-1,158,154,159,-1,159,154,124,-1,159,124,104,-1,136,113,130,-1,125,141,146,-1,146,141,133,-1,146,133,142,-1,142,133,127,-1,142,127,135,-1,135,127,129,-1,135,129,136,-1,136,129,113,-1,106,123,160,-1,161,162,163,-1,114,164,165,-1,163,162,114,-1,166,114,162,-1,166,162,167,-1,167,162,161,-1,167,161,168,-1,115,114,166,-1,169,170,171,-1,171,170,165,-1,171,165,172,-1,172,165,164,-1,172,164,173,-1,115,166,117,-1,117,166,167,-1,117,167,119,-1,119,167,168,-1,119,168,121,-1,174,169,175,-1,175,169,171,-1,175,171,176,-1,176,171,172,-1,176,172,177,-1,177,172,173,-1,177,173,178,-1,179,174,180,-1,180,174,175,-1,180,175,181,-1,181,175,176,-1,181,176,182,-1,182,176,177,-1,182,177,183,-1,183,177,178,-1,183,178,184,-1,123,179,160,-1,160,179,180,-1,160,180,185,-1,185,180,181,-1,185,181,186,-1,186,181,182,-1,186,182,187,-1,187,182,183,-1,187,183,188,-1,188,183,184,-1,188,184,189,-1,106,160,190,-1,190,160,185,-1,190,185,191,-1,191,185,186,-1,191,186,192,-1,192,186,187,-1,192,187,193,-1,193,187,188,-1,193,188,194,-1,194,188,189,-1,194,189,100,-1,170,114,165,-1,123,121,179,-1,179,121,168,-1,179,168,174,-1,174,168,161,-1,174,161,169,-1,169,161,163,-1,169,163,170,-1,170,163,114,-1,104,103,195,-1,104,195,159,-1,159,195,196,-1,159,196,158,-1,158,196,197,-1,158,197,157,-1,157,197,198,-1,157,198,156,-1,156,198,199,-1,156,199,155,-1,155,199,109,-1,155,109,110,-1,111,113,134,-1,111,134,200,-1,200,134,139,-1,200,139,201,-1,201,139,140,-1,201,140,202,-1,202,140,141,-1,202,141,203,-1,203,141,125,-1,203,125,204,-1,204,125,110,-1,204,110,108,-1,112,111,205,-1,112,205,206,-1,206,205,207,-1,206,207,208,-1,208,207,209,-1,208,209,210,-1,210,209,211,-1,210,211,212,-1,212,211,213,-1,212,213,214,-1,214,213,98,-1,214,98,96,-1,114,112,215,-1,114,215,164,-1,164,215,216,-1,164,216,173,-1,173,216,217,-1,173,217,178,-1,178,217,218,-1,178,218,184,-1,184,218,219,-1,184,219,189,-1,189,219,102,-1,189,102,100,-1,100,99,220,-1,100,220,194,-1,194,220,221,-1,194,221,193,-1,193,221,222,-1,193,222,192,-1,192,222,223,-1,192,223,191,-1,191,223,224,-1,191,224,190,-1,190,224,105,-1,190,105,106,-1,66,65,225,-1,226,74,66,-1,66,225,226,-1,226,225,227,-1,226,227,228,-1,228,227,229,-1,228,229,230,-1,230,229,231,-1,230,231,232,-1,232,231,233,-1,232,233,234,-1,234,233,103,-1,234,103,105,-1,199,198,235,-1,235,198,236,-1,235,236,237,-1,237,236,238,-1,237,238,239,-1,239,238,240,-1,239,240,241,-1,241,240,242,-1,241,242,243,-1,243,242,244,-1,243,244,65,-1,198,197,236,-1,236,197,245,-1,236,245,238,-1,238,245,246,-1,238,246,240,-1,240,246,247,-1,240,247,242,-1,242,247,248,-1,242,248,244,-1,244,248,249,-1,244,249,65,-1,109,199,250,-1,250,199,235,-1,250,235,251,-1,251,235,237,-1,251,237,252,-1,252,237,239,-1,252,239,253,-1,253,239,241,-1,253,241,254,-1,254,241,243,-1,254,243,65,-1,196,195,255,-1,255,195,256,-1,255,256,257,-1,257,256,258,-1,257,258,259,-1,259,258,260,-1,259,260,261,-1,261,260,262,-1,261,262,263,-1,263,262,264,-1,263,264,65,-1,195,103,256,-1,256,103,233,-1,256,233,258,-1,258,233,231,-1,258,231,260,-1,260,231,229,-1,260,229,262,-1,262,229,227,-1,262,227,264,-1,264,227,225,-1,264,225,65,-1,197,196,245,-1,245,196,255,-1,245,255,246,-1,246,255,257,-1,246,257,247,-1,247,257,259,-1,247,259,248,-1,248,259,261,-1,248,261,249,-1,249,261,263,-1,249,263,65,-1,98,213,265,-1,266,267,268,-1,111,200,269,-1,268,267,111,-1,270,111,267,-1,270,267,271,-1,271,267,266,-1,271,266,272,-1,205,111,270,-1,273,274,275,-1,275,274,269,-1,275,269,276,-1,276,269,200,-1,276,200,201,-1,205,270,207,-1,207,270,271,-1,207,271,209,-1,209,271,272,-1,209,272,211,-1,277,273,278,-1,278,273,275,-1,278,275,279,-1,279,275,276,-1,279,276,280,-1,280,276,201,-1,280,201,202,-1,281,277,282,-1,282,277,278,-1,282,278,283,-1,283,278,279,-1,283,279,284,-1,284,279,280,-1,284,280,285,-1,285,280,202,-1,285,202,203,-1,213,281,265,-1,265,281,282,-1,265,282,286,-1,286,282,283,-1,286,283,287,-1,287,283,284,-1,287,284,288,-1,288,284,285,-1,288,285,289,-1,289,285,203,-1,289,203,204,-1,98,265,290,-1,290,265,286,-1,290,286,291,-1,291,286,287,-1,291,287,292,-1,292,287,288,-1,292,288,293,-1,293,288,289,-1,293,289,294,-1,294,289,204,-1,294,204,108,-1,274,111,269,-1,213,211,281,-1,281,211,272,-1,281,272,277,-1,277,272,266,-1,277,266,273,-1,273,266,268,-1,273,268,274,-1,274,268,111,-1,102,219,295,-1,296,297,298,-1,112,206,299,-1,298,297,112,-1,300,112,297,-1,300,297,301,-1,301,297,296,-1,301,296,302,-1,215,112,300,-1,303,304,305,-1,305,304,299,-1,305,299,306,-1,306,299,206,-1,306,206,208,-1,215,300,216,-1,216,300,301,-1,216,301,217,-1,217,301,302,-1,217,302,218,-1,307,303,308,-1,308,303,305,-1,308,305,309,-1,309,305,306,-1,309,306,310,-1,310,306,208,-1,310,208,210,-1,311,307,312,-1,312,307,308,-1,312,308,313,-1,313,308,309,-1,313,309,314,-1,314,309,310,-1,314,310,315,-1,315,310,210,-1,315,210,212,-1,219,311,295,-1,295,311,312,-1,295,312,316,-1,316,312,313,-1,316,313,317,-1,317,313,314,-1,317,314,318,-1,318,314,315,-1,318,315,319,-1,319,315,212,-1,319,212,214,-1,102,295,320,-1,320,295,316,-1,320,316,321,-1,321,316,317,-1,321,317,322,-1,322,317,318,-1,322,318,323,-1,323,318,319,-1,323,319,324,-1,324,319,214,-1,324,214,96,-1,304,112,299,-1,219,218,311,-1,311,218,302,-1,311,302,307,-1,307,302,296,-1,307,296,303,-1,303,296,298,-1,303,298,304,-1,304,298,112,-1,224,223,325,-1,325,223,326,-1,325,326,327,-1,327,326,328,-1,327,328,329,-1,329,328,330,-1,329,330,331,-1,331,330,332,-1,331,332,333,-1,333,332,334,-1,333,334,74,-1,223,222,326,-1,326,222,335,-1,326,335,328,-1,328,335,336,-1,328,336,330,-1,330,336,337,-1,330,337,332,-1,332,337,338,-1,332,338,334,-1,334,338,339,-1,334,339,74,-1,105,224,234,-1,234,224,325,-1,234,325,232,-1,232,325,327,-1,232,327,230,-1,230,327,329,-1,230,329,228,-1,228,329,331,-1,228,331,226,-1,226,331,333,-1,226,333,74,-1,221,220,340,-1,340,220,341,-1,340,341,342,-1,342,341,343,-1,342,343,344,-1,344,343,345,-1,344,345,346,-1,346,345,347,-1,346,347,348,-1,348,347,349,-1,348,349,74,-1,220,99,341,-1,341,99,350,-1,341,350,343,-1,343,350,351,-1,343,351,345,-1,345,351,352,-1,345,352,347,-1,347,352,353,-1,347,353,349,-1,349,353,354,-1,349,354,74,-1,222,221,335,-1,335,221,340,-1,335,340,336,-1,336,340,342,-1,336,342,337,-1,337,342,344,-1,337,344,338,-1,338,344,346,-1,338,346,339,-1,339,346,348,-1,339,348,74,-1,63,61,355,-1,254,65,63,-1,63,355,254,-1,254,355,356,-1,254,356,253,-1,253,356,357,-1,253,357,252,-1,252,357,358,-1,252,358,251,-1,251,358,359,-1,251,359,250,-1,250,359,107,-1,250,107,109,-1,108,107,360,-1,108,360,294,-1,294,360,361,-1,294,361,293,-1,293,361,362,-1,293,362,292,-1,292,362,363,-1,292,363,291,-1,291,363,364,-1,291,364,290,-1,290,364,97,-1,290,97,98,-1,96,95,365,-1,96,365,324,-1,324,365,366,-1,324,366,323,-1,323,366,367,-1,323,367,322,-1,322,367,368,-1,322,368,321,-1,321,368,369,-1,321,369,320,-1,320,369,101,-1,320,101,102,-1,12,74,354,-1,370,43,12,-1,12,354,370,-1,370,354,353,-1,370,353,371,-1,371,353,352,-1,371,352,372,-1,372,352,351,-1,372,351,373,-1,373,351,350,-1,373,350,374,-1,374,350,99,-1,374,99,101,-1,364,363,375,-1,375,363,376,-1,375,376,377,-1,377,376,378,-1,377,378,379,-1,379,378,380,-1,379,380,381,-1,381,380,382,-1,381,382,383,-1,383,382,384,-1,383,384,61,-1,363,362,376,-1,376,362,385,-1,376,385,378,-1,378,385,386,-1,378,386,380,-1,380,386,387,-1,380,387,382,-1,382,387,388,-1,382,388,384,-1,384,388,389,-1,384,389,61,-1,97,364,390,-1,390,364,375,-1,390,375,391,-1,391,375,377,-1,391,377,392,-1,392,377,379,-1,392,379,393,-1,393,379,381,-1,393,381,394,-1,394,381,383,-1,394,383,61,-1,361,360,395,-1,395,360,396,-1,395,396,397,-1,397,396,398,-1,397,398,399,-1,399,398,400,-1,399,400,401,-1,401,400,402,-1,401,402,403,-1,403,402,404,-1,403,404,61,-1,360,107,396,-1,396,107,359,-1,396,359,398,-1,398,359,358,-1,398,358,400,-1,400,358,357,-1,400,357,402,-1,402,357,356,-1,402,356,404,-1,404,356,355,-1,404,355,61,-1,362,361,385,-1,385,361,395,-1,385,395,386,-1,386,395,397,-1,386,397,387,-1,387,397,399,-1,387,399,388,-1,388,399,401,-1,388,401,389,-1,389,401,403,-1,389,403,61,-1,369,368,405,-1,405,368,406,-1,405,406,407,-1,407,406,408,-1,407,408,409,-1,409,408,410,-1,409,410,411,-1,411,410,412,-1,411,412,413,-1,413,412,414,-1,413,414,43,-1,368,367,406,-1,406,367,415,-1,406,415,408,-1,408,415,416,-1,408,416,410,-1,410,416,417,-1,410,417,412,-1,412,417,418,-1,412,418,414,-1,414,418,419,-1,414,419,43,-1,101,369,374,-1,374,369,405,-1,374,405,373,-1,373,405,407,-1,373,407,372,-1,372,407,409,-1,372,409,371,-1,371,409,411,-1,371,411,370,-1,370,411,413,-1,370,413,43,-1,366,365,420,-1,420,365,421,-1,420,421,422,-1,422,421,423,-1,422,423,424,-1,424,423,425,-1,424,425,426,-1,426,425,427,-1,426,427,428,-1,428,427,429,-1,428,429,43,-1,365,95,421,-1,421,95,430,-1,421,430,423,-1,423,430,431,-1,423,431,425,-1,425,431,432,-1,425,432,427,-1,427,432,433,-1,427,433,429,-1,429,433,434,-1,429,434,43,-1,367,366,415,-1,415,366,420,-1,415,420,416,-1,416,420,422,-1,416,422,417,-1,417,422,424,-1,417,424,418,-1,418,424,426,-1,418,426,419,-1,419,426,428,-1,419,428,43,-1,45,43,434,-1,394,61,45,-1,45,434,394,-1,394,434,433,-1,394,433,393,-1,393,433,432,-1,393,432,392,-1,392,432,431,-1,392,431,391,-1,391,431,430,-1,391,430,390,-1,390,430,95,-1,390,95,97,-1,
        ]
    }
}
Shape{
    appearance Appearance {
        material  Material 	{
            diffuseColor 1.0 1.0 1.0
            specularColor 0.5019607843137255 0.5019607843137255 0.5019607843137255
            ambientIntensity 1.0
            transparency 0.0
            shininess 0.5
        }
    }
    geometry IndexedFaceSet {
        ccw TRUE
        solid FALSE
        coord DEF co Coordinate {
            point [
                -0.0658 -0.0049 0.0157, -0.0644 -0.0092 0.0157, -0.0789 -0.0049 0.0157, -0.0807 -0.0092 0.0157, -0.0716 0.0115 0.0157, -0.0698 0.0191 0.0157, -0.0549 -0.0203 0.0157, -0.0607 -0.0203 0.0157, -0.072 0.0129 0.0157, -0.0723 0.0143 0.0157, -0.0751 0.0191 0.0157, -0.0724 0.0143 0.0157, -0.0726 0.0129 0.0157, -0.073 0.0115 0.0157, -0.0904 -0.0203 0.0157, -0.0847 -0.0203 0.0157, -0.0807 -0.0092 0.0079, -0.0847 -0.0203 0.0079, -0.0644 -0.0092 0.0079, -0.0607 -0.0203 0.0079, -0.0549 -0.0203 0.0079, -0.0698 0.0191 0.0079, -0.0751 0.0191 0.0079, -0.0904 -0.0203 0.0079, -0.073 0.0115 0.0079, -0.0726 0.0129 0.0079, -0.0724 0.0143 0.0079, -0.0723 0.0143 0.0079, -0.072 0.0129 0.0079, -0.0716 0.0115 0.0079, -0.0658 -0.0049 0.0079, -0.0789 -0.0049 0.0079, -0.0315 0.0191 0.0157, -0.0315 0.0191 0.0079, -0.0203 0.0191 0.0157, -0.0203 0.0191 0.0079, -0.0371 0.0185 0.0157, -0.0371 0.0185 0.0079, -0.0417 0.0169 0.0157, -0.0417 0.0169 0.0079, -0.046 0.014 0.0157, -0.046 0.014 0.0079, -0.0461 0.014 0.0157, -0.0461 0.014 0.0079, -0.0489 0.0109 0.0157, -0.0489 0.0109 0.0079, -0.0507 0.0075 0.0157, -0.0507 0.0075 0.0079, -0.0517 0.0036 0.0157, -0.0517 0.0036 0.0079, -0.052 -0.0001 0.0157, -0.052 -0.0001 0.0079, -0.0515 -0.0054 0.0157, -0.0515 -0.0054 0.0079, -0.0501 -0.0095 0.0157, -0.0501 -0.0095 0.0079, -0.0478 -0.013 0.0157, -0.0478 -0.013 0.0079, -0.0446 -0.0161 0.0157, -0.0446 -0.0161 0.0079, -0.0405 -0.0185 0.0157, -0.0405 -0.0185 0.0079, -0.0359 -0.0199 0.0157, -0.0359 -0.0199 0.0079, -0.031 -0.0203 0.0157, -0.031 -0.0203 0.0079, -0.0203 -0.0203 0.0157, -0.0203 -0.0203 0.0079, -0.0441 0.0093 0.0157, -0.0422 0.0113 0.0157, -0.0393 0.0131 0.0157, -0.0361 0.0143 0.0157, -0.0314 0.0148 0.0157, -0.0256 0.0148 0.0157, -0.0256 -0.016 0.0157, -0.0312 -0.016 0.0157, -0.0354 -0.0156 0.0157, -0.0387 -0.0145 0.0157, -0.0414 -0.0129 0.0157, -0.0436 -0.0108 0.0157, -0.0452 -0.008 0.0157, -0.0464 -0.0043 0.0157, -0.0467 -0.0002 0.0157, -0.0464 0.0037 0.0157, -0.0455 0.0068 0.0157, -0.0312 -0.016 0.0079, -0.0256 -0.016 0.0079, -0.0354 -0.0156 0.0079, -0.0387 -0.0145 0.0079, -0.0414 -0.0129 0.0079, -0.0436 -0.0108 0.0079, -0.0452 -0.008 0.0079, -0.0464 -0.0043 0.0079, -0.0467 -0.0002 0.0079, -0.0464 0.0037 0.0079, -0.0455 0.0068 0.0079, -0.0441 0.0093 0.0079, -0.0422 0.0113 0.0079, -0.0393 0.0131 0.0079, -0.0361 0.0143 0.0079, -0.0314 0.0148 0.0079, -0.0256 0.0148 0.0079, 0.0085 0.0191 0.0157, 0.0085 0.0191 0.0079, 0.0085 -0.0203 0.0157, 0.0085 -0.0203 0.0079, -0.0117 0.0191 0.0157, -0.0117 0.0191 0.0079, -0.0117 0.0148 0.0157, -0.0117 0.0148 0.0079, 0.0032 0.0148 0.0157, 0.0032 0.0148 0.0079, 0.0032 0.0018 0.0157, 0.0032 0.0018 0.0079, -0.0107 0.0018 0.0157, -0.0107 0.0018 0.0079, -0.0107 -0.0025 0.0157, -0.0107 -0.0025 0.0079, 0.0032 -0.0025 0.0157, 0.0032 -0.0025 0.0079, 0.0032 -0.016 0.0157, 0.0032 -0.016 0.0079, -0.0127 -0.016 0.0157, -0.0127 -0.016 0.0079, -0.0127 -0.0203 0.0157, -0.0127 -0.0203 0.0079, 0.027 -0.0208 0.0079, 0.027 -0.0208 0.0157, 0.0293 -0.0205 0.0079, 0.0318 -0.0203 0.0157, 0.0318 -0.0203 0.0079, 0.0356 -0.0189 0.0157, 0.0356 -0.0189 0.0079, 0.0388 -0.0169 0.0157, 0.0388 -0.0169 0.0079, 0.0418 -0.0138 0.0157, 0.0418 -0.0138 0.0079, 0.0439 -0.0101 0.0157, 0.0439 -0.0101 0.0079, 0.0451 -0.0059 0.0157, 0.0451 -0.0059 0.0079, 0.0454 -0.0013 0.0157, 0.0454 -0.0013 0.0079, 0.0449 0.0043 0.0157, 0.0449 0.0043 0.0079, 0.0434 0.0087 0.0157, 0.0434 0.0087 0.0079, 0.041 0.0124 0.0157, 0.041 0.0124 0.0079, 0.0375 0.0158 0.0157, 0.0375 0.0158 0.0079, 0.0338 0.018 0.0157, 0.0338 0.018 0.0079, 0.0294 0.0193 0.0157, 0.0294 0.0193 0.0079, 0.0254 0.0196 0.0157, 0.0254 0.0196 0.0079, 0.0207 0.0192 0.0157, 0.0207 0.0192 0.0079, 0.0161 0.018 0.0157, 0.0161 0.018 0.0079, 0.0161 0.0127 0.0157, 0.0161 0.0127 0.0079, 0.0206 0.0146 0.0157, 0.0206 0.0146 0.0079, 0.0254 0.0153 0.0157, 0.0254 0.0153 0.0079, 0.0292 0.0148 0.0157, 0.0292 0.0148 0.0079, 0.0322 0.0138 0.0157, 0.0322 0.0138 0.0079, 0.0349 0.0119 0.0157, 0.0349 0.0119 0.0079, 0.0373 0.0093 0.0157, 0.0373 0.0093 0.0079, 0.0389 0.0063 0.0157, 0.0389 0.0063 0.0079, 0.04 0.0021 0.0157, 0.04 0.0021 0.0079, 0.0402 -0.001 0.0157, 0.0402 -0.001 0.0079, 0.0398 -0.0053 0.0157, 0.0398 -0.0053 0.0079, 0.0387 -0.0087 0.0157, 0.0387 -0.0087 0.0079, 0.0371 -0.0114 0.0157, 0.0371 -0.0114 0.0079, 0.0352 -0.0133 0.0157, 0.0352 -0.0133 0.0079, 0.0328 -0.015 0.0157, 0.0328 -0.015 0.0079, 0.0299 -0.016 0.0157, 0.0299 -0.016 0.0079, 0.0263 -0.0164 0.0157, 0.0263 -0.0164 0.0079, 0.021 -0.0159 0.0157, 0.021 -0.0159 0.0079, 0.0169 -0.0143 0.0157, 0.0169 -0.0143 0.0079, 0.0161 -0.0139 0.0157, 0.0161 -0.0139 0.0079, 0.0161 -0.0182 0.0157, 0.0161 -0.0182 0.0079, 0.0203 -0.02 0.0079, 0.0203 -0.02 0.0157, 0.0243 -0.0205 0.0079, 0.0259 -0.0207 0.0157, 0.0259 -0.0207 0.0079, 0.069 0.0191 0.0157, 0.069 0.0191 0.0079, 0.069 -0.0203 0.0157, 0.069 -0.0203 0.0079, 0.0637 0.0191 0.0157, 0.0637 0.0191 0.0079, 0.0637 -0.016 0.0157, 0.0637 -0.016 0.0079, 0.0488 -0.016 0.0157, 0.0488 -0.016 0.0079, 0.0488 -0.0203 0.0157, 0.0488 -0.0203 0.0079
            ]
        }
        coordIndex [
            0,1,2,-1,2,1,3,-1,4,5,0,-1,0,5,6,-1,0,6,1,-1,1,6,7,-1,4,8,5,-1,5,8,9,-1,5,9,10,-1,10,9,11,-1,10,11,12,-1,12,13,10,-1,10,13,2,-1,10,2,14,-1,14,2,3,-1,14,3,15,-1,3,16,15,-1,15,16,17,-1,1,18,3,-1,3,18,16,-1,7,19,1,-1,1,19,18,-1,6,20,7,-1,7,20,19,-1,5,21,6,-1,6,21,20,-1,10,22,5,-1,5,22,21,-1,14,23,10,-1,10,23,22,-1,14,15,23,-1,23,15,17,-1,24,13,12,-1,24,12,25,-1,25,12,11,-1,25,11,26,-1,9,27,11,-1,11,27,26,-1,27,9,8,-1,27,8,28,-1,28,8,4,-1,28,4,29,-1,0,30,4,-1,4,30,29,-1,2,31,0,-1,0,31,30,-1,24,31,13,-1,13,31,2,-1,32,33,34,-1,34,33,35,-1,33,32,36,-1,33,36,37,-1,37,36,38,-1,37,38,39,-1,39,38,40,-1,39,40,41,-1,41,40,42,-1,41,42,43,-1,43,42,44,-1,43,44,45,-1,45,44,46,-1,45,46,47,-1,47,46,48,-1,47,48,49,-1,49,48,50,-1,49,50,51,-1,51,50,52,-1,51,52,53,-1,53,52,54,-1,53,54,55,-1,55,54,56,-1,55,56,57,-1,57,56,58,-1,57,58,59,-1,59,58,60,-1,59,60,61,-1,61,60,62,-1,61,62,63,-1,63,62,64,-1,63,64,65,-1,66,67,64,-1,64,67,65,-1,66,34,67,-1,67,34,35,-1,46,44,68,-1,68,44,42,-1,68,42,69,-1,69,42,40,-1,69,40,70,-1,70,40,38,-1,70,38,71,-1,71,38,36,-1,71,36,72,-1,72,36,32,-1,72,32,73,-1,73,32,34,-1,73,34,74,-1,74,34,66,-1,74,66,75,-1,75,66,64,-1,75,64,76,-1,76,64,62,-1,76,62,77,-1,77,62,60,-1,77,60,78,-1,78,60,58,-1,78,58,79,-1,79,58,56,-1,79,56,80,-1,80,56,54,-1,80,54,81,-1,81,54,52,-1,81,52,82,-1,82,52,50,-1,82,50,83,-1,83,50,48,-1,83,48,84,-1,84,48,46,-1,84,46,68,-1,75,85,74,-1,74,85,86,-1,85,75,76,-1,85,76,87,-1,87,76,77,-1,87,77,88,-1,88,77,78,-1,88,78,89,-1,89,78,79,-1,89,79,90,-1,90,79,80,-1,90,80,91,-1,91,80,81,-1,91,81,92,-1,92,81,82,-1,92,82,93,-1,93,82,83,-1,93,83,94,-1,94,83,84,-1,94,84,95,-1,95,84,68,-1,95,68,96,-1,96,68,69,-1,96,69,97,-1,97,69,70,-1,97,70,98,-1,98,70,71,-1,98,71,99,-1,99,71,72,-1,99,72,100,-1,73,101,72,-1,72,101,100,-1,86,101,74,-1,74,101,73,-1,102,103,104,-1,104,103,105,-1,106,107,102,-1,102,107,103,-1,108,109,106,-1,106,109,107,-1,110,111,108,-1,108,111,109,-1,112,113,110,-1,110,113,111,-1,114,115,112,-1,112,115,113,-1,116,117,114,-1,114,117,115,-1,118,119,116,-1,116,119,117,-1,120,121,118,-1,118,121,119,-1,122,123,120,-1,120,123,121,-1,124,125,122,-1,122,125,123,-1,124,104,125,-1,125,104,105,-1,104,124,122,-1,122,120,104,-1,104,120,118,-1,104,118,102,-1,108,106,110,-1,110,106,102,-1,110,102,112,-1,112,102,118,-1,112,118,114,-1,114,118,116,-1,126,127,128,-1,128,127,129,-1,128,129,130,-1,130,129,131,-1,130,131,132,-1,132,131,133,-1,132,133,134,-1,134,133,135,-1,134,135,136,-1,136,135,137,-1,136,137,138,-1,138,137,139,-1,138,139,140,-1,140,139,141,-1,140,141,142,-1,142,141,143,-1,142,143,144,-1,144,143,145,-1,144,145,146,-1,146,145,147,-1,146,147,148,-1,148,147,149,-1,148,149,150,-1,150,149,151,-1,150,151,152,-1,152,151,153,-1,152,153,154,-1,154,153,155,-1,154,155,156,-1,156,155,157,-1,156,157,158,-1,158,157,159,-1,158,159,160,-1,161,162,159,-1,159,162,160,-1,162,161,163,-1,162,163,164,-1,164,163,165,-1,164,165,166,-1,166,165,167,-1,166,167,168,-1,168,167,169,-1,168,169,170,-1,170,169,171,-1,170,171,172,-1,172,171,173,-1,172,173,174,-1,174,173,175,-1,174,175,176,-1,176,175,177,-1,176,177,178,-1,178,177,179,-1,178,179,180,-1,180,179,181,-1,180,181,182,-1,182,181,183,-1,182,183,184,-1,184,183,185,-1,184,185,186,-1,186,185,187,-1,186,187,188,-1,188,187,189,-1,188,189,190,-1,190,189,191,-1,190,191,192,-1,192,191,193,-1,192,193,194,-1,194,193,195,-1,194,195,196,-1,196,195,197,-1,196,197,198,-1,198,197,199,-1,198,199,200,-1,201,202,199,-1,199,202,200,-1,203,202,204,-1,204,202,201,-1,203,204,205,-1,205,204,206,-1,205,206,207,-1,207,206,127,-1,207,127,126,-1,191,127,193,-1,193,127,206,-1,193,206,195,-1,195,206,204,-1,195,204,197,-1,197,204,201,-1,197,201,199,-1,161,159,163,-1,163,159,157,-1,163,157,165,-1,165,157,155,-1,165,155,167,-1,167,155,153,-1,167,153,169,-1,169,153,151,-1,169,151,171,-1,171,151,149,-1,171,149,173,-1,173,149,147,-1,173,147,175,-1,175,147,145,-1,175,145,177,-1,177,145,143,-1,177,143,179,-1,179,143,141,-1,179,141,181,-1,181,141,139,-1,181,139,183,-1,183,139,137,-1,183,137,185,-1,185,137,135,-1,185,135,187,-1,187,135,133,-1,187,133,189,-1,189,133,131,-1,189,131,191,-1,191,131,129,-1,191,129,127,-1,208,209,210,-1,210,209,211,-1,212,213,208,-1,208,213,209,-1,214,215,212,-1,212,215,213,-1,216,217,214,-1,214,217,215,-1,218,219,216,-1,216,219,217,-1,218,210,219,-1,219,210,211,-1,212,208,214,-1,214,208,210,-1,214,210,216,-1,216,210,218,-1,
        ]
    }
}
Shape{
    appearance Appearance {
        material  Material 	{
            diffuseColor 0.25098039215686274 0.25098039215686274 0.25098039215686274
            specularColor 0.12549019607843137 0.12549019607843137 0.12549019607843137
            ambientIntensity 0.251
            transparency 0.0
            shininess 0.5
        }
    }
    geometry IndexedFaceSet {
        ccw TRUE
        solid FALSE
        coord DEF co Coordinate {
            point [
                -0.0658 -0.0049 0.0079, -0.0789 -0.0049 0.0079, -0.0716 0.0115 0.0079, -0.073 0.0115 0.0079, -0.072 0.0129 0.0079, -0.0726 0.0129 0.0079, -0.0723 0.0143 0.0079, -0.0724 0.0143 0.0079, -0.0256 0.0148 0.0079, -0.0256 -0.016 0.0079, -0.0314 0.0148 0.0079, -0.0312 -0.016 0.0079, -0.0354 -0.0156 0.0079, -0.0467 -0.0002 0.0079, -0.0464 0.0037 0.0079, -0.0455 0.0068 0.0079, -0.0361 0.0143 0.0079, -0.0387 -0.0145 0.0079, -0.0414 -0.0129 0.0079, -0.0436 -0.0108 0.0079, -0.0452 -0.008 0.0079, -0.0464 -0.0043 0.0079, -0.0441 0.0093 0.0079, -0.0422 0.0113 0.0079, -0.0393 0.0131 0.0079
            ]
        }
        coordIndex [
            0,1,2,-1,2,1,3,-1,2,3,4,-1,4,3,5,-1,4,5,6,-1,6,5,7,-1,8,9,10,-1,10,9,11,-1,10,11,12,-1,13,14,10,-1,10,14,15,-1,10,15,16,-1,12,17,10,-1,10,17,18,-1,10,18,19,-1,19,20,10,-1,10,20,21,-1,10,21,13,-1,22,23,15,-1,15,23,24,-1,15,24,16,-1,
        ]
    }
}
Shape{
    appearance Appearance {
        material  Material 	{
            diffuseColor 0.7529411764705882 0.7529411764705882 0.7529411764705882
            specularColor 0.3764705882352941 0.3764705882352941 0.3764705882352941
            ambientIntensity 0.7529
            transparency 0.0
            shininess 0.5
        }
    }
    geometry IndexedFaceSet {
        ccw TRUE
        solid FALSE
        coord DEF co Coordinate {
            point [
                0.3937 0.311 0.0079, 0.3937 -0.3111 0.0079, 0.3937 0.311 0.0, 0.3937 -0.3111 0.0, 0.1614 -0.315 0.0, 0.3898 -0.315 0.0, 0.1614 -0.315 0.0079, 0.3898 -0.315 0.0079, 0.1575 0.311 0.0, 0.1575 -0.3111 0.0, 0.1575 0.311 0.0079, 0.1575 -0.3111 0.0079, 0.1614 0.3149 0.0079, 0.3898 0.3149 0.0079, 0.1614 0.3149 0.0, 0.3898 0.3149 0.0, 0.1586 0.3138 0.0, 0.1594 0.3144 0.0, 0.1604 0.3148 0.0, 0.1604 -0.3149 0.0, 0.1594 -0.3145 0.0, 0.1586 -0.3138 0.0, 0.158 -0.313 0.0, 0.1576 -0.3121 0.0, 0.3936 0.312 0.0, 0.3908 0.3148 0.0, 0.3936 -0.3121 0.0, 0.3908 -0.3149 0.0, 0.3932 -0.313 0.0, 0.3925 -0.3138 0.0, 0.3917 -0.3145 0.0, 0.158 0.313 0.0, 0.1576 0.312 0.0, 0.3917 0.3144 0.0, 0.3925 0.3138 0.0, 0.3932 0.313 0.0, 0.1586 -0.3138 0.0079, 0.158 -0.313 0.0079, 0.1576 -0.3121 0.0079, 0.1594 -0.3145 0.0079, 0.1604 -0.3149 0.0079, 0.3936 0.312 0.0079, 0.3908 0.3148 0.0079, 0.1604 0.3148 0.0079, 0.1594 0.3144 0.0079, 0.1586 0.3138 0.0079, 0.1576 0.312 0.0079, 0.158 0.313 0.0079, 0.3932 -0.313 0.0079, 0.3908 -0.3149 0.0079, 0.3925 -0.3138 0.0079, 0.3917 -0.3145 0.0079, 0.3936 -0.3121 0.0079, 0.3932 0.313 0.0079, 0.3925 0.3138 0.0079, 0.3917 0.3144 0.0079, -0.3937 -0.3111 0.0079, -0.3937 0.311 0.0079, -0.3937 -0.3111 0.0, -0.3937 0.311 0.0, -0.3898 0.3149 0.0079, -0.1614 0.3149 0.0079, -0.3898 0.3149 0.0, -0.1614 0.3149 0.0, -0.1575 -0.3111 0.0, -0.1575 0.311 0.0, -0.1575 -0.3111 0.0079, -0.1575 0.311 0.0079, -0.1614 -0.315 0.0079, -0.3898 -0.315 0.0079, -0.1614 -0.315 0.0, -0.3898 -0.315 0.0, -0.1586 -0.3138 0.0, -0.158 -0.313 0.0, -0.1576 -0.3121 0.0, -0.1594 -0.3145 0.0, -0.1604 -0.3149 0.0, -0.3936 0.312 0.0, -0.3908 0.3148 0.0, -0.1604 0.3148 0.0, -0.1594 0.3144 0.0, -0.1586 0.3138 0.0, -0.1576 0.312 0.0, -0.158 0.313 0.0, -0.3932 -0.313 0.0, -0.3908 -0.3149 0.0, -0.3925 -0.3138 0.0, -0.3917 -0.3145 0.0, -0.3936 -0.3121 0.0, -0.3932 0.313 0.0, -0.3925 0.3138 0.0, -0.3917 0.3144 0.0, -0.1586 0.3138 0.0079, -0.1594 0.3144 0.0079, -0.1604 0.3148 0.0079, -0.1604 -0.3149 0.0079, -0.1594 -0.3145 0.0079, -0.1586 -0.3138 0.0079, -0.158 -0.313 0.0079, -0.1576 -0.3121 0.0079, -0.3936 0.312 0.0079, -0.3908 0.3148 0.0079, -0.3936 -0.3121 0.0079, -0.3908 -0.3149 0.0079, -0.3932 -0.313 0.0079, -0.3925 -0.3138 0.0079, -0.3917 -0.3145 0.0079, -0.158 0.313 0.0079, -0.1576 0.312 0.0079, -0.3917 0.3144 0.0079, -0.3925 0.3138 0.0079, -0.3932 0.313 0.0079
            ]
        }
        coordIndex [
            0,1,2,-1,2,1,3,-1,4,5,6,-1,6,5,7,-1,8,9,10,-1,10,9,11,-1,12,13,14,-1,14,13,15,-1,3,9,2,-1,2,9,8,-1,16,17,18,-1,9,19,20,-1,20,21,9,-1,9,21,22,-1,9,22,23,-1,24,2,25,-1,25,2,15,-1,26,27,3,-1,3,27,5,-1,3,5,9,-1,9,5,4,-1,9,4,19,-1,26,28,27,-1,27,28,29,-1,27,29,30,-1,16,18,31,-1,15,2,14,-1,14,2,8,-1,14,8,18,-1,18,8,32,-1,18,32,31,-1,33,34,25,-1,25,34,35,-1,25,35,24,-1,0,10,1,-1,1,10,11,-1,1,11,6,-1,36,11,37,-1,37,11,38,-1,36,39,11,-1,11,39,40,-1,11,40,6,-1,41,42,0,-1,0,42,13,-1,0,13,10,-1,10,13,12,-1,10,12,43,-1,43,44,10,-1,10,44,45,-1,10,45,46,-1,46,45,47,-1,48,49,50,-1,50,49,51,-1,6,7,1,-1,1,7,49,-1,1,49,52,-1,52,49,48,-1,41,53,42,-1,42,53,54,-1,42,54,55,-1,8,10,46,-1,8,46,32,-1,32,46,47,-1,32,47,31,-1,31,47,45,-1,31,45,16,-1,16,45,44,-1,16,44,17,-1,17,44,43,-1,17,43,18,-1,18,43,12,-1,18,12,14,-1,15,13,42,-1,15,42,25,-1,25,42,55,-1,25,55,33,-1,33,55,54,-1,33,54,34,-1,34,54,53,-1,34,53,35,-1,35,53,41,-1,35,41,24,-1,24,41,0,-1,24,0,2,-1,4,6,40,-1,4,40,19,-1,19,40,39,-1,19,39,20,-1,20,39,36,-1,20,36,21,-1,21,36,37,-1,21,37,22,-1,22,37,38,-1,22,38,23,-1,23,38,11,-1,23,11,9,-1,3,1,52,-1,3,52,26,-1,26,52,48,-1,26,48,28,-1,28,48,50,-1,28,50,29,-1,29,50,51,-1,29,51,30,-1,30,51,49,-1,30,49,27,-1,27,49,7,-1,27,7,5,-1,56,57,58,-1,58,57,59,-1,60,61,62,-1,62,61,63,-1,64,65,66,-1,66,65,67,-1,68,69,70,-1,70,69,71,-1,59,65,58,-1,58,65,64,-1,58,64,70,-1,72,64,73,-1,73,64,74,-1,72,75,64,-1,64,75,76,-1,64,76,70,-1,77,78,59,-1,59,78,62,-1,59,62,65,-1,65,62,63,-1,65,63,79,-1,79,80,65,-1,65,80,81,-1,65,81,82,-1,82,81,83,-1,84,85,86,-1,86,85,87,-1,70,71,58,-1,58,71,85,-1,58,85,88,-1,88,85,84,-1,77,89,78,-1,78,89,90,-1,78,90,91,-1,56,66,57,-1,57,66,67,-1,92,93,94,-1,66,95,96,-1,96,97,66,-1,66,97,98,-1,66,98,99,-1,100,57,101,-1,101,57,60,-1,102,103,56,-1,56,103,69,-1,56,69,66,-1,66,69,68,-1,66,68,95,-1,102,104,103,-1,103,104,105,-1,103,105,106,-1,92,94,107,-1,60,57,61,-1,61,57,67,-1,61,67,94,-1,94,67,108,-1,94,108,107,-1,109,110,101,-1,101,110,111,-1,101,111,100,-1,64,66,99,-1,64,99,74,-1,74,99,98,-1,74,98,73,-1,73,98,97,-1,73,97,72,-1,72,97,96,-1,72,96,75,-1,75,96,95,-1,75,95,76,-1,76,95,68,-1,76,68,70,-1,71,69,103,-1,71,103,85,-1,85,103,106,-1,85,106,87,-1,87,106,105,-1,87,105,86,-1,86,105,104,-1,86,104,84,-1,84,104,102,-1,84,102,88,-1,88,102,56,-1,88,56,58,-1,59,57,100,-1,59,100,77,-1,77,100,111,-1,77,111,89,-1,89,111,110,-1,89,110,90,-1,90,110,109,-1,90,109,91,-1,91,109,101,-1,91,101,78,-1,78,101,60,-1,78,60,62,-1,63,61,94,-1,63,94,79,-1,79,94,93,-1,79,93,80,-1,80,93,92,-1,80,92,81,-1,81,92,107,-1,81,107,83,-1,83,107,108,-1,83,108,82,-1,82,108,67,-1,82,67,65,-1,
        ]
    }
}